M48
;Layer_Color=9474304
;FILE_FORMAT=2:5
INCH,LZ
;TYPE=PLATED
T01F00S00C0.00591
T02F00S00C0.00787
%
T01
X0026083Y0003937
X0031299Y0006299
X0018701Y0015256
X0021161Y0027362
X0015748Y0038386
T02
X0005906Y0014764
Y0018701
X0008858Y0016732
X0011811Y0018701
Y0014764
X0015748Y0009843
X0018209Y0007874
X0020177
X0018701Y0003937
X0024606Y0010827
X0024606Y0016142
X0022638Y0017323
X0026575
X0028543Y0016142
X0028346Y0012992
X003248Y0009744
Y0016732
X0035433
X0040354Y0020669
X0040551Y0009744
X0034547Y0003937
X0054331Y000748
X005748
X0055905Y0009055
X0055512Y0012205
X005315
X0050787
X0048031Y0014614
X0059055Y0012205
X0061811Y0011417
X0063779
X0065748
X0066535Y0007874
X0064567
X0068504
X0070472
X0077756Y0006004
Y001378
X008563Y0009744
X0083563Y0003937
X008563Y0018701
X0068504
X0065354
X0066929Y0016929
X0063779
X0065354Y0029528
X0066929Y0031102
X0074016Y002874
X0075591Y0030315
X0056693
X0053543
X0051968Y002874
X0050787Y0031102
X0048425
X0045276
X0042913Y0031102
X0051575Y0036614
X002874Y0037795
Y004252
X0030315Y0044094
Y0047244
X002874Y0048819
X0030315Y0050394
Y0053543
X002874Y0051968
Y0055118
X0030315Y0056693
X002874Y0058268
X0030315Y0059842
Y0062992
X002874Y0061417
Y0064567
X0030315Y0066142
X002874Y0067716
X0030315Y0069291
Y0072441
X002874Y0070866
Y0074016
X0030315Y007559
X002874Y0077165
Y0085039
X0030315Y0083465
X0034646Y0086221
X003622Y0087795
Y0084646
Y0082284
X0034646Y008937
X0044094
Y0086221
X0045669Y0087795
X0048819
X0051968
X0050394Y008937
X0053543
X0056693
X0059842
X0062992
X0066142
X0067716Y0087795
X0064567
X0061417
X0058268
X0069291Y008937
X0074016
X007559Y0087795
Y0085433
X0073228Y0084646
X0070472
X007874Y0087795
X0080315Y008937
X0077165Y008937
X0083465Y008937
X0083071Y0080709
X0087795Y0080315
X008937Y008189
Y007874
Y007559
X0086221
X0087795Y0074016
Y0070866
Y0067716
Y0064567
X008937Y0066142
Y0059842
Y0056693
X0087795Y0055118
Y0058268
Y0051968
X008937Y0053543
Y0050394
X0097244Y0049213
Y004685
X0105512Y0045276
X0108465Y0038386
X0108268Y003248
X0105118Y0029921
X0115748Y003937
X0113976Y0042913
X0115748Y0049213
Y005315
X0114173Y0056102
Y0063976
X0109843
X0107283Y0062008
Y0059055
X0106693Y0071653
X0105315Y0073228
X0106693Y0074803
X0105315Y0076378
X0106693Y0077953
X0105315Y0079528
X0106693Y0081102
X0105315Y0082677
X0106693Y0084252
X0105315Y0085827
X0103543Y0087598
X009941Y0091535
X0095965Y009941
X0095669Y0105512
X0094095Y0106693
X009252Y0105512
X0090945Y0106693
X008937Y0105512
X0087441Y0104744
X0083858Y0102362
X007874Y0107283
X0075787
X0073819Y0109843
Y0114173
X0081693Y0114173
X009252Y011063
X0094882
X0097244
X0099606
X0100394Y0106693
X0098819Y0105512
X0097244Y0106693
X0101969Y0105512
X0103543Y0106693
X0107283Y009941
Y0096457
X0109843Y0101378
X0114173Y0101378
Y0093504
X011063Y0082677
Y0080315
Y0077953
Y007559
X009941Y0070374
X008937Y0072441
X0081496Y0077165
X0068405Y009941
X0067716Y0103496
Y0105905
X0062992Y0106693
X0061417Y0105512
X0059842Y0106693
X0058268Y0105512
X0056693Y0106693
X0055118Y0105512
X0053543Y0106693
X0051968Y0105512
X0050197Y0103543
X0046457Y0102362
X0041339Y0107283
X0038386
X0036417Y0109843
Y0114173
X0044291
X0055118Y011063
X005748
X0059842
X0062205
X0030315Y0105905
Y0103496
X0033957Y009941
X0025591Y0106693
X0024016Y0105315
X0022441Y0106693
X0020866Y0105315
X0019291Y0106693
X0017717Y0105315
X0016142Y0106693
X0014567Y0105315
X0012795Y0102362
X0010827Y0098425
Y0095473
X0008268Y0093504
X0003937
Y0100886
X0018504Y0096457
X002126Y0090354
X0024975Y0091254
X0011417Y0085827
X0012795Y0084252
X0011417Y0082677
X0012795Y0081102
X0011417Y0079528
X0012795Y0077953
X0011417Y0076378
X0012795Y0074803
X0011417Y0073228
X0012795Y0071653
X0014567Y0069882
X0015748Y0066142
X0016732Y0057087
X0018701
X0020669
X0018701Y0049705
X0011811Y004626
Y0042323
X0008858Y0044291
X0005906Y004626
Y0042323
X003189Y004252
X002874Y0045669
X0024803Y0029921
X0018701Y007815
X000748Y0077165
Y0074803
Y0079528
Y008189
X0044882Y0083071
X0024803Y011063
X0022441
X0020079
X0017717
X008937Y003937
M30
