G04*
G04 #@! TF.GenerationSoftware,Altium Limited,Altium Designer,25.1.2 (22)*
G04*
G04 Layer_Physical_Order=1*
G04 Layer_Color=255*
%FSLAX44Y44*%
%MOMM*%
G71*
G04*
G04 #@! TF.SameCoordinates,CAC8B5B5-D6E6-4972-B4CC-480BD3444C87*
G04*
G04*
G04 #@! TF.FilePolarity,Positive*
G04*
G01*
G75*
%ADD10C,0.1000*%
%ADD12R,1.0000X2.7000*%
%ADD13R,0.5000X0.3000*%
%ADD14R,0.7000X0.4000*%
%ADD15R,0.3000X0.5000*%
%ADD16R,0.4000X0.7000*%
%ADD17R,0.5500X0.5500*%
%ADD18C,0.2500*%
%ADD19R,0.3000X0.4500*%
%ADD20R,0.4750X0.2200*%
%ADD21R,0.6500X0.3200*%
%ADD22R,0.2200X0.4750*%
%ADD23R,0.3200X0.6500*%
%ADD24R,2.0000X1.2000*%
%ADD25R,0.2500X0.6000*%
%ADD26R,0.7800X0.6800*%
%ADD27R,0.2000X1.4500*%
%ADD28R,1.4500X0.2000*%
%ADD29R,0.8000X1.3000*%
%ADD48C,0.2000*%
%ADD49C,0.2500*%
%ADD50C,0.4000*%
%ADD51C,0.0500*%
%ADD52C,0.4000*%
G36*
X5500Y120500D02*
X17500D01*
Y120596D01*
X18673Y121082D01*
X20206Y119550D01*
Y119081D01*
X19750Y118000D01*
X18936Y118000D01*
X18770D01*
Y114000D01*
X17500D01*
Y112730D01*
X15250D01*
Y110000D01*
X15437D01*
X15978Y109746D01*
X16150Y108342D01*
X15602Y107794D01*
X13500D01*
Y108500D01*
X4500D01*
Y102500D01*
X13500D01*
Y103206D01*
X16500D01*
X16500Y95500D01*
X15437Y95000D01*
X15250D01*
Y92270D01*
X17500D01*
Y91000D01*
X18770D01*
Y87000D01*
X18980D01*
X19750Y87000D01*
X21020Y87000D01*
X21230D01*
Y91000D01*
X23770D01*
Y87000D01*
X24750D01*
X26020Y87000D01*
X26230D01*
Y91000D01*
X28770D01*
Y86143D01*
X28918Y85834D01*
Y82000D01*
X27500D01*
Y53000D01*
X30000D01*
Y49166D01*
X29750Y48000D01*
X25250Y48000D01*
X24794Y49081D01*
Y50744D01*
X24619Y51622D01*
X24122Y52366D01*
X17500Y58989D01*
Y82000D01*
X5500D01*
Y53000D01*
X17000D01*
X20206Y49794D01*
Y49081D01*
X19750Y48000D01*
X18936Y48000D01*
X18770D01*
Y44000D01*
X17500D01*
Y42730D01*
X15250D01*
Y40000D01*
X15437D01*
X15978Y39746D01*
X16150Y38342D01*
X15602Y37794D01*
X13500D01*
Y38500D01*
X4500D01*
Y32500D01*
X13500D01*
Y33206D01*
X16500D01*
X16500Y25500D01*
X15437Y25000D01*
X15250D01*
Y22270D01*
X17500D01*
Y21000D01*
X18770D01*
Y17000D01*
X18980D01*
X19750Y17000D01*
X21020Y17000D01*
X21230D01*
Y21000D01*
X23770D01*
Y17000D01*
X24750D01*
X26020Y17000D01*
X26230D01*
Y21000D01*
X28770D01*
Y17000D01*
X29750D01*
X31020Y17000D01*
X33980D01*
X34750Y17000D01*
Y17000D01*
X35250D01*
Y17000D01*
X38875D01*
X38985Y16735D01*
X39750Y16418D01*
X55000D01*
X55765Y16735D01*
X56082Y17500D01*
X68730D01*
X70000Y17500D01*
Y17500D01*
X70000D01*
Y17500D01*
X75000D01*
Y22500D01*
X76376Y22500D01*
Y22000D01*
X76852Y20852D01*
X78852Y18852D01*
X80000Y18376D01*
X84000D01*
Y11500D01*
X84146D01*
X84750Y10597D01*
Y9403D01*
X85207Y8301D01*
X86051Y7457D01*
X87153Y7000D01*
X88347D01*
X89449Y7457D01*
X90293Y8301D01*
X90750Y9403D01*
Y10597D01*
X91354Y11500D01*
X91500D01*
Y16668D01*
X92660Y17175D01*
X93500Y16505D01*
Y11500D01*
X101000D01*
Y19000D01*
X95802D01*
X95068Y19891D01*
X95541Y21000D01*
X101000D01*
Y21000D01*
X102270Y21805D01*
X102403Y21750D01*
X103597D01*
X104699Y22207D01*
X104993Y22500D01*
X135544Y22500D01*
X135987Y21230D01*
X135457Y20699D01*
X135000Y19597D01*
Y18403D01*
X135366Y17520D01*
X135270Y17285D01*
Y12875D01*
Y9500D01*
X140000D01*
Y1624D01*
X40000D01*
X39766Y1527D01*
X33979Y1982D01*
X28105Y3392D01*
X22525Y5704D01*
X17375Y8860D01*
X12782Y12782D01*
X8860Y17375D01*
X5704Y22525D01*
X3392Y28105D01*
X1982Y33979D01*
X1527Y39766D01*
X1624Y40000D01*
Y125000D01*
X5500D01*
Y120500D01*
D02*
G37*
G36*
X54750Y143270D02*
X54750Y142000D01*
X54750D01*
Y142000D01*
X54750Y142000D01*
Y131270D01*
X54750Y130000D01*
X54750D01*
Y130000D01*
X54750Y130000D01*
Y126000D01*
Y115270D01*
X54750Y114000D01*
X54750D01*
Y114000D01*
X54750Y114000D01*
Y103270D01*
X54750Y102000D01*
X54750D01*
Y102000D01*
X54750Y102000D01*
Y91270D01*
X54750Y90000D01*
X54750D01*
Y90000D01*
X54750Y90000D01*
Y88205D01*
X53577Y87719D01*
X53148Y88148D01*
X52000Y88624D01*
Y90000D01*
X48770D01*
Y87000D01*
Y84000D01*
X52000D01*
X52000Y84000D01*
Y84000D01*
X53121Y83583D01*
X53852Y82852D01*
X54249Y82687D01*
Y81313D01*
X53852Y81148D01*
X53270Y80566D01*
X52000Y81000D01*
Y81000D01*
X43000D01*
Y75000D01*
X39500D01*
Y82000D01*
X30000D01*
Y85834D01*
X30250Y87000D01*
X33980D01*
X34750Y87000D01*
Y87000D01*
X35250D01*
Y87000D01*
X36230D01*
Y91000D01*
X37500D01*
Y92270D01*
X39750D01*
Y92770D01*
X41020Y93449D01*
X41122Y93381D01*
X42000Y93206D01*
X43000D01*
Y92500D01*
X52000D01*
Y98500D01*
X43000D01*
Y98500D01*
X41881Y98864D01*
X38500Y102244D01*
X38500Y109500D01*
X39563Y110000D01*
X39750D01*
Y112730D01*
X37500D01*
Y114000D01*
X36230D01*
Y118000D01*
X35250D01*
X34794Y119081D01*
Y120500D01*
X39500D01*
Y147500D01*
X54750D01*
Y143270D01*
D02*
G37*
G36*
X55000Y52500D02*
Y45743D01*
X54957Y45699D01*
X54500Y44597D01*
Y43403D01*
X54957Y42301D01*
X55000Y42257D01*
Y24000D01*
Y17500D01*
X39750D01*
Y19730D01*
X37500D01*
Y22270D01*
X39750D01*
Y22770D01*
X41020Y23449D01*
X41122Y23381D01*
X42000Y23206D01*
X43000Y22500D01*
Y22500D01*
X52000D01*
Y28500D01*
X43000D01*
Y28500D01*
X41881Y28864D01*
X38500Y32244D01*
X38500Y39500D01*
X39563Y40000D01*
X39750D01*
Y42730D01*
X37500D01*
Y44000D01*
X36230D01*
Y48000D01*
X35250D01*
X34794Y49081D01*
Y53000D01*
X39500D01*
Y73918D01*
X43000D01*
X43765Y74235D01*
X44082Y75000D01*
X55000D01*
Y52500D01*
D02*
G37*
G36*
X190000Y1624D02*
X141082D01*
Y9500D01*
X160730D01*
Y12875D01*
Y16250D01*
X160039D01*
Y19155D01*
X163384Y22500D01*
X190000D01*
Y1624D01*
D02*
G37*
%LPC*%
G36*
X13500Y117500D02*
X10270D01*
Y115770D01*
X13500D01*
Y117500D01*
D02*
G37*
G36*
X7730D02*
X4500D01*
Y115770D01*
X7730D01*
Y117500D01*
D02*
G37*
G36*
X16230Y118000D02*
X15250D01*
Y115270D01*
X16230D01*
Y118000D01*
D02*
G37*
G36*
X13500Y113230D02*
X10270D01*
Y111500D01*
X13500D01*
Y113230D01*
D02*
G37*
G36*
X7730D02*
X4500D01*
Y111500D01*
X7730D01*
Y113230D01*
D02*
G37*
G36*
X16230Y89730D02*
X15250D01*
Y87000D01*
X16230D01*
Y89730D01*
D02*
G37*
G36*
X13500Y47500D02*
X10270D01*
Y45770D01*
X13500D01*
Y47500D01*
D02*
G37*
G36*
X7730D02*
X4500D01*
Y45770D01*
X7730D01*
Y47500D01*
D02*
G37*
G36*
X16230Y48000D02*
X15250D01*
Y45270D01*
X16230D01*
Y48000D01*
D02*
G37*
G36*
X13500Y43230D02*
X10270D01*
Y41500D01*
X13500D01*
Y43230D01*
D02*
G37*
G36*
X7730D02*
X4500D01*
Y41500D01*
X7730D01*
Y43230D01*
D02*
G37*
G36*
X16230Y19730D02*
X15250D01*
Y17000D01*
X16230D01*
Y19730D01*
D02*
G37*
G36*
X124730Y16250D02*
X123900D01*
Y14145D01*
X124730D01*
Y16250D01*
D02*
G37*
G36*
X66000Y14500D02*
X60000D01*
Y13436D01*
X59347Y13000D01*
X58153D01*
X57500Y13436D01*
Y14500D01*
X51500D01*
Y5500D01*
X57500D01*
Y6564D01*
X58153Y7000D01*
X59347D01*
X60000Y6564D01*
Y5500D01*
X66000D01*
Y14500D01*
D02*
G37*
G36*
X48500D02*
X42500D01*
Y13402D01*
X41230Y12738D01*
X40597Y13000D01*
X39403D01*
X38301Y12543D01*
X37457Y11699D01*
X37000Y10597D01*
Y9403D01*
X37457Y8301D01*
X38301Y7457D01*
X39403Y7000D01*
X40597D01*
X41230Y7262D01*
X42500Y6598D01*
Y5500D01*
X48500D01*
Y14500D01*
D02*
G37*
G36*
X119100Y18400D02*
X113900D01*
Y9900D01*
X119100D01*
Y18400D01*
D02*
G37*
G36*
X132730Y16250D02*
X131270D01*
Y12875D01*
Y9500D01*
X132730D01*
Y12875D01*
Y16250D01*
D02*
G37*
G36*
X128730D02*
X127270D01*
Y12875D01*
Y9500D01*
X128730D01*
Y12875D01*
Y16250D01*
D02*
G37*
G36*
X124730Y11605D02*
X123900D01*
Y9500D01*
X124730D01*
Y11605D01*
D02*
G37*
G36*
X75000Y14500D02*
X69000D01*
Y5500D01*
X75000D01*
Y6598D01*
X76270Y7262D01*
X76903Y7000D01*
X78097D01*
X79199Y7457D01*
X80043Y8301D01*
X80500Y9403D01*
Y10597D01*
X80043Y11699D01*
X79199Y12543D01*
X78097Y13000D01*
X76903D01*
X76270Y12738D01*
X75000Y13402D01*
Y14500D01*
D02*
G37*
G36*
X52000Y142500D02*
X48770D01*
Y140770D01*
X52000D01*
Y142500D01*
D02*
G37*
G36*
X46230D02*
X43000D01*
Y140770D01*
X46230D01*
Y142500D01*
D02*
G37*
G36*
X52000Y138230D02*
X48770D01*
Y136500D01*
X52000D01*
Y138230D01*
D02*
G37*
G36*
X46230D02*
X43000D01*
Y136500D01*
X46230D01*
Y138230D01*
D02*
G37*
G36*
X52000Y133500D02*
X43000D01*
Y127500D01*
X44064D01*
X44500Y126847D01*
Y125653D01*
X44064Y125000D01*
X43000D01*
Y119000D01*
X52000D01*
Y125000D01*
X50936D01*
X50500Y125653D01*
Y126847D01*
X50936Y127500D01*
X52000D01*
Y133500D01*
D02*
G37*
G36*
X38770Y118000D02*
Y115270D01*
X39750D01*
Y118000D01*
X38770D01*
D02*
G37*
G36*
X52000Y116000D02*
X48770D01*
Y114270D01*
X52000D01*
Y116000D01*
D02*
G37*
G36*
X46230D02*
X43000D01*
Y114270D01*
X46230D01*
Y116000D01*
D02*
G37*
G36*
X52000Y111730D02*
X48770D01*
Y110000D01*
X52000D01*
Y111730D01*
D02*
G37*
G36*
X46230D02*
X43000D01*
Y110000D01*
X46230D01*
Y111730D01*
D02*
G37*
G36*
X52000Y107500D02*
X48770D01*
Y105770D01*
X52000D01*
Y107500D01*
D02*
G37*
G36*
X46230D02*
X43000D01*
Y105770D01*
X46230D01*
Y107500D01*
D02*
G37*
G36*
X52000Y103230D02*
X48770D01*
Y101500D01*
X52000D01*
Y103230D01*
D02*
G37*
G36*
X46230D02*
X43000D01*
Y101500D01*
X46230D01*
Y103230D01*
D02*
G37*
G36*
Y90000D02*
X43000D01*
Y88270D01*
X46230D01*
Y90000D01*
D02*
G37*
G36*
X39750Y89730D02*
X38770D01*
Y87000D01*
X39750D01*
Y89730D01*
D02*
G37*
G36*
X46230Y85730D02*
X43000D01*
Y84000D01*
X46230D01*
Y85730D01*
D02*
G37*
G36*
X52000Y72500D02*
X48770D01*
Y70770D01*
X52000D01*
Y72500D01*
D02*
G37*
G36*
X46230D02*
X43000D01*
Y70770D01*
X46230D01*
Y72500D01*
D02*
G37*
G36*
X52000Y68230D02*
X48770D01*
Y66500D01*
X52000D01*
Y68230D01*
D02*
G37*
G36*
X46230D02*
X43000D01*
Y66500D01*
X46230D01*
Y68230D01*
D02*
G37*
G36*
X52000Y63500D02*
X43000D01*
Y57500D01*
X44064D01*
X44500Y56847D01*
Y55653D01*
X44064Y55000D01*
X43000D01*
Y49000D01*
X52000D01*
Y55000D01*
X50936D01*
X50500Y55653D01*
Y56847D01*
X50936Y57500D01*
X52000D01*
Y63500D01*
D02*
G37*
G36*
X38770Y48000D02*
Y45270D01*
X39750D01*
Y48000D01*
X38770D01*
D02*
G37*
G36*
X52000Y46000D02*
X48770D01*
Y44270D01*
X52000D01*
Y46000D01*
D02*
G37*
G36*
X46230D02*
X43000D01*
Y44270D01*
X46230D01*
Y46000D01*
D02*
G37*
G36*
X52000Y41730D02*
X48770D01*
Y40000D01*
X52000D01*
Y41730D01*
D02*
G37*
G36*
X46230D02*
X43000D01*
Y40000D01*
X46230D01*
Y41730D01*
D02*
G37*
G36*
X52000Y37500D02*
X48770D01*
Y35770D01*
X52000D01*
Y37500D01*
D02*
G37*
G36*
X46230D02*
X43000D01*
Y35770D01*
X46230D01*
Y37500D01*
D02*
G37*
G36*
X52000Y33230D02*
X48770D01*
Y31500D01*
X52000D01*
Y33230D01*
D02*
G37*
G36*
X46230D02*
X43000D01*
Y31500D01*
X46230D01*
Y33230D01*
D02*
G37*
G36*
X176100Y16250D02*
X175270D01*
Y14145D01*
X176100D01*
Y16250D01*
D02*
G37*
G36*
X186100Y18400D02*
X180900D01*
Y9900D01*
X186100D01*
Y18400D01*
D02*
G37*
G36*
X176100Y11605D02*
X175270D01*
Y9500D01*
X176100D01*
Y11605D01*
D02*
G37*
G36*
X172730Y16250D02*
X171270D01*
Y12875D01*
Y9500D01*
X172730D01*
Y12875D01*
Y16250D01*
D02*
G37*
G36*
X168730D02*
X167270D01*
Y12875D01*
Y9500D01*
X168730D01*
Y12875D01*
Y16250D01*
D02*
G37*
G36*
X164730D02*
X163270D01*
Y12875D01*
Y9500D01*
X164730D01*
Y12875D01*
Y16250D01*
D02*
G37*
%LPD*%
D10*
X125000Y110420D02*
G03*
X124000Y111420I-1000J0D01*
G01*
X122610Y112128D02*
G03*
X123318Y111420I708J0D01*
G01*
Y114960D02*
G03*
X122610Y114252I0J-708D01*
G01*
X124000Y114960D02*
G03*
X125000Y115960I0J1000D01*
G01*
Y100051D02*
Y110420D01*
X123318Y111420D02*
X124000D01*
X122610Y112128D02*
Y114252D01*
X123318Y114960D02*
X124000D01*
X125000Y115960D02*
Y120000D01*
X108000Y250000D02*
X112000Y246000D01*
X108000Y250000D02*
Y252500D01*
X143000Y251000D02*
Y252500D01*
X152000D02*
X152000Y252500D01*
X195500Y250500D02*
X200000Y246000D01*
X195500Y250500D02*
Y252500D01*
X200000Y237000D02*
Y246000D01*
X204000Y252000D02*
X204500Y252500D01*
X204000Y237000D02*
Y252000D01*
X160500Y252500D02*
Y255500D01*
X164000Y259000D01*
Y262880D01*
X169500Y258000D02*
X181500D01*
X168000Y259500D02*
Y262880D01*
Y259500D02*
X169500Y258000D01*
X181500D02*
X187000Y252500D01*
X74500Y258000D02*
X94000D01*
X99500Y252500D01*
X69000Y259000D02*
X73000Y255000D01*
Y252500D02*
Y255000D01*
X69000Y259000D02*
Y262880D01*
X266000Y256000D02*
X267500Y257500D01*
X266000Y252500D02*
Y256000D01*
X279000Y252500D02*
Y257500D01*
X272500Y245000D02*
X275000Y242500D01*
X279000D01*
X272500Y250000D02*
Y252500D01*
X270000Y247500D02*
X272500Y250000D01*
X266000Y247500D02*
X270000D01*
X272500Y245000D02*
X275000Y247500D01*
X279000D01*
X294000Y106500D02*
Y125000D01*
X285000Y130500D02*
X289500Y135000D01*
X22500Y227500D02*
X34000Y239000D01*
Y242500D01*
X21000Y237500D02*
Y242500D01*
X25000Y252500D02*
X27500Y250000D01*
X21000Y252500D02*
X25000D01*
X27500Y242500D02*
Y245000D01*
X30000Y247500D01*
X34000D01*
X25000D02*
X27500Y250000D01*
X21000Y247500D02*
X25000D01*
X94000Y266000D02*
X97500D01*
X92500Y279000D02*
X97500D01*
X105000Y272500D02*
X107500Y275000D01*
Y279000D01*
X97500Y272500D02*
X100000D01*
X102500Y270000D01*
Y266000D02*
Y270000D01*
Y275000D02*
X105000Y272500D01*
X102500Y275000D02*
Y279000D01*
X189000Y266000D02*
X192500D01*
X187500Y279000D02*
X192500D01*
X200000Y272500D02*
X202500Y275000D01*
Y279000D01*
X192500Y272500D02*
X195000D01*
X197500Y270000D01*
Y266000D02*
Y270000D01*
Y275000D02*
X200000Y272500D01*
X197500Y275000D02*
Y279000D01*
X279000Y157500D02*
Y162500D01*
X272500Y150000D02*
X275000Y147500D01*
X279000D01*
X272500Y155000D02*
Y157500D01*
X270000Y152500D02*
X272500Y155000D01*
X266000Y152500D02*
X270000D01*
X272500Y150000D02*
X275000Y152500D01*
X279000D01*
X245000Y148000D02*
X247000Y150000D01*
Y153000D02*
X251000Y157000D01*
X247000Y150000D02*
Y153000D01*
X237000Y148000D02*
X245000D01*
X237000Y144000D02*
X245000D01*
X251000Y157000D02*
X252500D01*
X82500Y49000D02*
Y50500D01*
X88000Y56000D01*
Y63000D01*
X82500Y42500D02*
X82500Y42500D01*
Y49000D01*
X92500Y36000D02*
X96000Y39500D01*
Y63000D01*
X262880Y194000D02*
X267500D01*
X95836Y62836D02*
X96000Y63000D01*
X290000Y102500D02*
X294000Y106500D01*
X285000Y97500D02*
X287500Y100000D01*
X67500Y27500D02*
X70000D01*
X62500D02*
X67500D01*
X67500Y27500D02*
X67500Y27500D01*
X67500Y20750D02*
Y27500D01*
X62500D02*
X62500Y27500D01*
X62500Y20750D02*
Y27500D01*
X70000Y27500D02*
X72500Y25000D01*
Y20750D02*
Y25000D01*
X57500Y20750D02*
Y25000D01*
X192000Y54000D02*
X194500Y51500D01*
Y47500D02*
Y51500D01*
X185500D02*
X188000Y54000D01*
X185500Y47500D02*
Y51500D01*
X188000Y54000D02*
Y63000D01*
X192000Y54000D02*
Y63000D01*
X130500Y47500D02*
Y52500D01*
X139500Y47500D02*
Y50500D01*
X136000Y54000D02*
X139500Y50500D01*
X212000Y25000D02*
X212250Y24750D01*
X276000Y97500D02*
X280000D01*
X275500Y92500D02*
X280000D01*
X252500Y192000D02*
X253500D01*
X259500Y186000D01*
X262880D01*
X259000Y259500D02*
Y262880D01*
X257000Y252500D02*
X263000Y258500D01*
Y262880D01*
X73000Y259500D02*
X74500Y258000D01*
X73000Y259500D02*
Y262880D01*
X169500Y252500D02*
X178000D01*
X249500Y200500D02*
X252500D01*
X246000Y208000D02*
X247500Y209500D01*
X252500D01*
X237000Y208000D02*
X246000D01*
X52000Y87000D02*
X55000Y84000D01*
X47500Y78000D02*
X53000D01*
X55000Y80000D01*
X47500Y87000D02*
X52000D01*
X55000Y80000D02*
X63000D01*
X55000Y84000D02*
X63000D01*
X47500Y52000D02*
Y60500D01*
X92500Y20000D02*
X97250Y15250D01*
X57500Y59500D02*
X58000Y60000D01*
X67000Y57000D02*
Y60000D01*
X57500Y49250D02*
Y59500D01*
X62500Y52500D02*
X67000Y57000D01*
X62500Y49250D02*
Y52500D01*
X72000Y10000D02*
X77500D01*
X40000D02*
X45500D01*
X87500Y45000D02*
Y49000D01*
Y45000D02*
X90000Y42500D01*
X92500Y45000D01*
Y49000D01*
X245000Y144000D02*
X249000Y148000D01*
X252500D01*
X116000Y251500D02*
X117000Y252500D01*
X148000Y237000D02*
Y246000D01*
X143000Y251000D02*
X148000Y246000D01*
X107500Y262500D02*
Y266000D01*
X104000Y259000D02*
X107500Y262500D01*
X237000Y160000D02*
X246000D01*
X247250Y161250D01*
X262500Y147500D02*
X266000D01*
X260000Y150000D02*
X262500Y147500D01*
X247250Y161250D02*
X257750D01*
X260000Y159000D01*
Y150000D02*
Y159000D01*
X208000Y237000D02*
Y246000D01*
X208750Y246750D01*
X216000Y237000D02*
Y246000D01*
X217000Y247000D01*
X227500Y242500D02*
X266000D01*
X223000Y247000D02*
X227500Y242500D01*
X217000Y247000D02*
X223000D01*
X84000Y237000D02*
Y246000D01*
X83000Y247000D02*
X84000Y246000D01*
X68300Y247000D02*
X83000D01*
X63650Y251650D02*
X68300Y247000D01*
X57500Y44000D02*
Y49250D01*
X62500Y41000D02*
Y49250D01*
X63000Y88000D02*
X72000D01*
X73000Y87000D01*
X63000Y92000D02*
X72000D01*
X75000Y89000D01*
X63000Y76000D02*
Y80000D01*
X262880Y218000D02*
X267500D01*
X164000Y262880D02*
Y267000D01*
X166000Y269000D01*
X251000Y262880D02*
Y268000D01*
X236000Y258000D02*
X257500D01*
X259000Y259500D01*
X230500Y252500D02*
X236000Y258000D01*
X168000Y262880D02*
X172000D01*
X166000Y269000D02*
X172000D01*
X227000Y262880D02*
Y268000D01*
X231000Y262880D02*
Y271000D01*
X235000Y262880D02*
Y268000D01*
X243000Y262880D02*
Y268000D01*
X239000Y262880D02*
Y271000D01*
X286951Y202169D02*
X287120Y202000D01*
X223000Y140000D02*
X237000D01*
X227000Y136000D02*
X237000D01*
X282831Y202169D02*
X286951D01*
X281000Y204000D02*
X282831Y202169D01*
X227000Y100000D02*
X237000D01*
X227000Y168000D02*
X237000D01*
X262880Y202000D02*
X267500D01*
X262880Y210000D02*
X267500D01*
X223000Y132000D02*
X237000D01*
X223000Y180000D02*
X237000D01*
X219000Y179000D02*
X222000Y176000D01*
X237000D01*
X247000Y262880D02*
Y271000D01*
X255000Y262880D02*
Y271000D01*
X208750Y246750D02*
Y259750D01*
X202500Y266000D02*
X208750Y259750D01*
X258000Y180500D02*
X259500Y182000D01*
X252500Y165500D02*
X258000Y171000D01*
Y180500D01*
X266000Y157500D02*
Y161000D01*
X281000Y198000D02*
X287120D01*
X281000Y198000D02*
X281000Y198000D01*
X247000Y281000D02*
Y287120D01*
X243000Y283000D02*
Y287120D01*
X241000Y281000D02*
X243000Y283000D01*
X251000Y283000D02*
Y287120D01*
Y283000D02*
X253000Y281000D01*
X263000Y262880D02*
Y271000D01*
X259000Y262880D02*
Y268000D01*
X255000Y284000D02*
Y287120D01*
Y284000D02*
X267500Y271500D01*
Y257500D02*
Y271500D01*
X85000Y275000D02*
X94000Y266000D01*
X61000Y262880D02*
Y267500D01*
X45000Y262880D02*
Y267500D01*
X53000Y283000D02*
Y287120D01*
X51000Y281000D02*
X53000Y283000D01*
X37000Y262880D02*
Y267500D01*
X148000Y262880D02*
Y268000D01*
X156000Y262880D02*
Y268000D01*
Y262880D02*
X156000Y262880D01*
X144000D02*
Y271000D01*
X144000Y271000D02*
X144000Y271000D01*
X152000Y262880D02*
Y271000D01*
X152000Y271000D02*
X152000Y271000D01*
X180000Y275000D02*
X189000Y266000D01*
X188000Y227000D02*
Y237000D01*
X196000Y227000D02*
Y237000D01*
X196000Y227000D02*
X196000Y227000D01*
X212000Y227000D02*
Y237000D01*
X54500Y10000D02*
X58750D01*
X63000D01*
X227000Y192000D02*
X237000D01*
X219000Y179000D02*
Y192000D01*
X57000Y281000D02*
Y287120D01*
X152000Y281000D02*
Y287120D01*
X74000Y275000D02*
X85000D01*
X65169Y283831D02*
Y286951D01*
X61000Y283000D02*
X63000Y281000D01*
X65169Y283831D02*
X74000Y275000D01*
X61000Y283000D02*
Y287120D01*
X65000D02*
X65169Y286951D01*
X148000Y283000D02*
Y287120D01*
X146000Y281000D02*
X148000Y283000D01*
X12880Y198000D02*
X17000D01*
X12880Y206000D02*
X17000D01*
X12880Y210000D02*
X13049Y210169D01*
X22500Y216500D02*
Y227500D01*
X41000Y262880D02*
Y271000D01*
X49000Y262880D02*
Y271000D01*
X262880Y190000D02*
X271000D01*
X262880Y198000D02*
X271000D01*
X262880Y206000D02*
X271000D01*
X262880Y214000D02*
X271000D01*
X112000Y237000D02*
Y246000D01*
X53000Y262880D02*
Y267500D01*
X57000Y262880D02*
Y271000D01*
X65000Y262880D02*
Y271000D01*
X69000Y262880D02*
Y267000D01*
X112000Y227000D02*
Y237000D01*
X73000Y262880D02*
X77000D01*
X69000Y267000D02*
X71000Y269000D01*
X112000Y219000D02*
X117000D01*
X116000Y223000D02*
Y251500D01*
X219836Y236836D02*
X220000Y237000D01*
X219836Y228836D02*
Y236836D01*
X227000Y144000D02*
X237000D01*
X227000Y152000D02*
X237000D01*
X223000Y148000D02*
X237000D01*
X226000Y156000D02*
X237000D01*
X104000Y237000D02*
Y259000D01*
X82000Y252500D02*
X90500D01*
X71000Y269000D02*
X77000D01*
X169000Y275000D02*
X180000D01*
X160169Y283831D02*
X169000Y275000D01*
X158000Y281000D02*
Y281086D01*
X160169Y283831D02*
Y286951D01*
X156000Y283086D02*
X158000Y281086D01*
X156000Y283086D02*
Y287120D01*
X180000Y221000D02*
X186000Y215000D01*
X180000Y221000D02*
Y237000D01*
X212250Y10000D02*
Y15250D01*
X188000Y63000D02*
Y73000D01*
X192000Y63000D02*
Y77000D01*
X172000Y223000D02*
Y237000D01*
X172000Y223000D02*
X172000Y223000D01*
X176000Y227000D02*
Y237000D01*
X168000Y227000D02*
Y237000D01*
X164000Y222500D02*
Y237000D01*
X144000Y227000D02*
Y237000D01*
X117000Y219000D02*
X120000Y222000D01*
Y237000D01*
X124000Y222500D02*
Y223000D01*
X132000Y222500D02*
Y223000D01*
Y237000D01*
X124000Y223000D02*
Y237000D01*
X128000Y227000D02*
Y237000D01*
X152000Y227000D02*
Y252500D01*
X148000Y222500D02*
Y237000D01*
X160000Y227000D02*
Y237000D01*
X160000Y237000D01*
X156000Y222500D02*
Y237000D01*
X140000Y226000D02*
Y237000D01*
X136000Y227000D02*
Y237000D01*
X140000Y226000D02*
X151000Y215000D01*
X87500Y31500D02*
X89000Y30000D01*
X97000D01*
X97250Y29750D01*
X87500Y31500D02*
Y36000D01*
X239500Y252500D02*
X248000D01*
X204000Y227000D02*
Y237000D01*
X200000Y223000D02*
Y237000D01*
X192000Y223000D02*
Y237000D01*
X184000Y225000D02*
Y237000D01*
Y225000D02*
X192000Y217000D01*
X63000Y156000D02*
X73000D01*
X63000Y124000D02*
X73000D01*
X227000Y208000D02*
X237000D01*
X227000Y200000D02*
X237000D01*
X63000Y164000D02*
X73000D01*
X63000Y148000D02*
X73000D01*
X13049Y210169D02*
X16169D01*
X22500Y216500D01*
X17000Y206000D02*
X19000Y208000D01*
X29000Y194000D02*
X37120D01*
X29000Y218000D02*
X37120D01*
X32500Y198000D02*
X37120D01*
X32500Y190000D02*
X37120D01*
X32500Y182000D02*
X37120D01*
X29000Y186000D02*
X37120D01*
X73000Y180000D02*
X73000Y180000D01*
X73000Y172000D02*
X73000Y172000D01*
X63000Y180000D02*
X73000D01*
X63000Y172000D02*
X73000D01*
X63000Y128000D02*
X77000D01*
X63000Y136000D02*
X77000D01*
X63000Y152000D02*
X77000D01*
X77000Y160000D02*
X77000Y160000D01*
X63000Y168000D02*
X77000D01*
X77000Y168000D01*
X63000Y176000D02*
X77000D01*
X29000Y210000D02*
X37120D01*
X12880Y202000D02*
X19000D01*
X17000Y198000D02*
X19000Y196000D01*
X63000Y96000D02*
X73000D01*
X63000Y120000D02*
X77000D01*
X63000Y116000D02*
X73000D01*
X63000Y108000D02*
X73000D01*
X63000Y132000D02*
X73000D01*
X77000Y144000D02*
X77000Y144000D01*
X63000Y140000D02*
X73000D01*
X63000Y144000D02*
X77000D01*
X160000Y262880D02*
Y271000D01*
X160000Y271000D02*
X160000Y271000D01*
X281086Y192000D02*
X283086Y194000D01*
X283950Y190000D02*
X287120D01*
X281000Y192000D02*
X281086D01*
X283086Y194000D02*
X287120D01*
X252500Y174500D02*
Y183000D01*
X140000Y268000D02*
X140000Y268000D01*
X136000Y262880D02*
Y271000D01*
X140000Y262880D02*
Y268000D01*
X132000Y268000D02*
X132000Y268000D01*
Y262880D02*
Y268000D01*
X63000Y160000D02*
X77000D01*
X48000D02*
X63000D01*
X47500Y159500D02*
X48000Y160000D01*
X55000Y156000D02*
X63000D01*
X49500Y150500D02*
X55000Y156000D01*
X47500Y150500D02*
X49500D01*
X37120Y218000D02*
X41000D01*
X47500Y211500D01*
X42000Y191000D02*
X47500Y185500D01*
X42000Y191000D02*
Y213000D01*
X41000Y214000D02*
X42000Y213000D01*
X37120Y214000D02*
X41000D01*
X32500D02*
X37120D01*
X78000Y226000D02*
X80000Y228000D01*
Y237000D01*
X48000Y220000D02*
X63000D01*
X47500Y220500D02*
X48000Y220000D01*
X88000Y227000D02*
Y237000D01*
X63000Y112000D02*
X77000D01*
X80000Y20000D02*
X92500D01*
X82500Y24750D02*
X87750D01*
X78000Y22000D02*
X80000Y20000D01*
X82500Y31500D02*
Y36000D01*
X78000Y22000D02*
Y27000D01*
X82500Y31500D01*
X63436Y231786D02*
Y238136D01*
X63650Y238350D01*
X29000Y202000D02*
X37120D01*
X32500Y206000D02*
X37120D01*
X47500Y194500D02*
Y202500D01*
X63000Y220000D02*
X63164Y219836D01*
X108000Y225000D02*
Y237000D01*
X63000Y216000D02*
X73000D01*
X63000Y212000D02*
X77000D01*
X63164Y219836D02*
X75164D01*
X77000Y104000D02*
X81000Y108000D01*
X63000Y104000D02*
X77000D01*
X218000Y212000D02*
X237000D01*
X223000Y204000D02*
X246000D01*
X249500Y200500D01*
X211000Y205000D02*
X218000Y212000D01*
X223000Y172000D02*
X237000D01*
X223000Y188000D02*
X237000D01*
X227000Y184000D02*
X237000D01*
X223000Y164000D02*
X237000D01*
X92000Y223000D02*
Y237000D01*
Y209000D02*
X108000Y225000D01*
X93000Y219000D02*
X96000Y222000D01*
Y237000D01*
X88000Y219000D02*
X93000D01*
X92000Y215000D02*
X100000Y223000D01*
Y237000D01*
X275000Y181050D02*
X283950Y190000D01*
X266000Y161000D02*
X275000Y170000D01*
Y181050D01*
X259500Y182000D02*
X262880D01*
X271000D01*
X262880Y186000D02*
X267500D01*
X152000Y47000D02*
X154000Y45000D01*
Y37120D02*
Y45000D01*
X152000Y47000D02*
Y63000D01*
X130500Y52500D02*
X132000Y54000D01*
X77000Y184000D02*
X77000Y184000D01*
X63000Y188000D02*
X73000D01*
X63000Y184000D02*
X77000D01*
X63000Y192000D02*
X77000D01*
X63000Y196000D02*
X73000D01*
X77000Y192000D02*
X77000Y192000D01*
X114000Y211000D02*
X202000D01*
X219836Y228836D01*
X151000Y215000D02*
X179000D01*
X70750Y204000D02*
X71750Y205000D01*
X63000Y204000D02*
X70750D01*
Y208000D02*
X71750Y207000D01*
X63000Y208000D02*
X70750D01*
X67500Y44000D02*
Y52500D01*
X73000Y58000D02*
Y87000D01*
X67500Y52500D02*
X73000Y58000D01*
X72500Y41000D02*
Y49250D01*
X75000Y56000D02*
Y89000D01*
X72500Y53500D02*
X75000Y56000D01*
X72500Y49250D02*
Y53500D01*
X219000Y149000D02*
X226000Y156000D01*
X194500Y47500D02*
X203000D01*
X174000Y37120D02*
Y47500D01*
X212000D02*
X217500D01*
X166000Y37120D02*
Y47500D01*
X217000Y216000D02*
X237000D01*
X218000Y220000D02*
X237000D01*
X156000Y48000D02*
Y63000D01*
X170000Y169000D02*
X217000Y216000D01*
X166000Y168000D02*
X218000Y220000D01*
X115000Y79000D02*
X120000Y74000D01*
Y63000D02*
Y74000D01*
X116000Y63000D02*
Y72000D01*
X109000Y79000D02*
X116000Y72000D01*
X112000Y48500D02*
Y63000D01*
X144000D02*
Y77000D01*
X132000Y54000D02*
Y73000D01*
X136000Y54000D02*
Y77000D01*
X225000Y55000D02*
Y75000D01*
X217500Y47500D02*
X225000Y55000D01*
X47500Y122000D02*
Y130500D01*
X166000Y75000D02*
Y168000D01*
X170000Y79000D02*
Y169000D01*
X127000Y81086D02*
X129000Y79086D01*
Y79000D02*
Y79086D01*
X123000D02*
X125000Y81086D01*
X123000Y79000D02*
Y79086D01*
X75164Y219836D02*
X131000Y164000D01*
Y93000D02*
Y164000D01*
X142000Y41000D02*
X148000Y47000D01*
Y63000D01*
X142000Y37120D02*
Y41000D01*
X125000Y81086D02*
Y100051D01*
X275000Y82500D02*
X280500D01*
X285000Y92500D02*
X289500Y88000D01*
Y82500D02*
Y88000D01*
Y135000D02*
X294000D01*
X280500Y115000D02*
Y125000D01*
Y135000D01*
X289500Y125000D02*
X294000D01*
X219000Y81000D02*
Y149000D01*
Y81000D02*
X225000Y75000D01*
X227000Y128000D02*
X237000D01*
Y124000D02*
X246000D01*
X247000Y125000D01*
X237000Y120000D02*
X246000D01*
X247000Y119000D01*
X290000Y92500D02*
X294000Y88500D01*
Y78000D02*
Y88500D01*
X292000Y76000D02*
X294000Y78000D01*
X267000Y76000D02*
X292000D01*
X55000Y234000D02*
X63000Y226000D01*
X78000D01*
X55000Y234000D02*
Y254000D01*
X34000Y252500D02*
X39500Y258000D01*
X51000D01*
X55000Y254000D01*
X47000Y245000D02*
Y251000D01*
X46350Y251650D02*
X47000Y251000D01*
Y239000D02*
Y245000D01*
X46350Y238350D02*
X47000Y239000D01*
X47500Y229500D02*
X54000D01*
X47500D02*
X48000Y230000D01*
X57500Y25000D02*
X60000Y27500D01*
X62500D01*
X128000Y54000D02*
Y63000D01*
X126000Y52000D02*
X128000Y54000D01*
X126000Y44000D02*
Y52000D01*
Y44000D02*
X128000Y42000D01*
X137000D01*
X138000Y41000D01*
Y37120D02*
Y41000D01*
X122000Y37120D02*
X126000D01*
X130000Y32812D02*
Y37120D01*
X134000Y32812D02*
Y37120D01*
X135000Y31000D02*
Y31812D01*
X129000D02*
X130000Y32812D01*
X134000Y32812D02*
X135000Y31812D01*
X129000Y31000D02*
Y31812D01*
X125642Y37478D02*
X126000Y37120D01*
X122000D02*
Y47500D01*
X170000Y43000D02*
X170000Y43000D01*
Y37120D02*
Y43000D01*
X158000Y37120D02*
Y46000D01*
X156000Y48000D02*
X158000Y46000D01*
X162000Y37120D02*
Y43000D01*
X150000Y31000D02*
Y37120D01*
X144000Y31000D02*
X146000Y33000D01*
Y37120D01*
X141000Y31000D02*
X144000D01*
X275500Y102500D02*
X280000D01*
X293426Y99426D02*
X294000Y100000D01*
X293426Y98547D02*
Y99426D01*
X290000Y97500D02*
X292379D01*
X293426Y98547D01*
X285000Y107828D02*
X287500Y105328D01*
X285000Y107828D02*
Y130500D01*
X287500Y105000D02*
Y105328D01*
X280500Y107000D02*
Y109000D01*
Y107000D02*
X285000Y102500D01*
X125828Y163172D02*
X127000Y162000D01*
X125000Y120000D02*
Y161172D01*
X125828Y163172D02*
X125828D01*
X71750Y207000D02*
X82000D01*
X125828Y163172D01*
X81172Y205000D02*
X125000Y161172D01*
X71750Y205000D02*
X81172D01*
X125000Y161172D02*
X125000D01*
X127000Y81086D02*
Y120000D01*
Y162000D01*
X207000Y196000D02*
X237000D01*
D12*
X33500Y67500D02*
D03*
X11500D02*
D03*
X33500Y135000D02*
D03*
X11500D02*
D03*
D13*
X266000Y242500D02*
D03*
Y247500D02*
D03*
X279000Y242500D02*
D03*
Y247500D02*
D03*
Y252500D02*
D03*
X266000D02*
D03*
X34000D02*
D03*
Y247500D02*
D03*
X21000Y252500D02*
D03*
Y247500D02*
D03*
Y242500D02*
D03*
X34000D02*
D03*
X266000Y147500D02*
D03*
Y152500D02*
D03*
X279000Y147500D02*
D03*
Y152500D02*
D03*
Y157500D02*
D03*
X266000D02*
D03*
D14*
X10000Y252000D02*
D03*
Y243000D02*
D03*
X290000Y243000D02*
D03*
Y252000D02*
D03*
Y148000D02*
D03*
Y157000D02*
D03*
X47500Y220500D02*
D03*
Y229500D02*
D03*
X102500Y47000D02*
D03*
Y38000D02*
D03*
X252500Y227000D02*
D03*
Y218000D02*
D03*
X10000Y260500D02*
D03*
Y269500D02*
D03*
X47500Y168000D02*
D03*
Y177000D02*
D03*
X252500Y174500D02*
D03*
Y165500D02*
D03*
X47500Y202500D02*
D03*
Y211500D02*
D03*
X252500Y183000D02*
D03*
Y192000D02*
D03*
X47500Y194500D02*
D03*
Y185500D02*
D03*
X9000Y35500D02*
D03*
Y44500D02*
D03*
X47500Y60500D02*
D03*
Y69500D02*
D03*
Y52000D02*
D03*
Y43000D02*
D03*
Y25500D02*
D03*
Y34500D02*
D03*
X9000Y105500D02*
D03*
Y114500D02*
D03*
X47500Y95500D02*
D03*
Y104500D02*
D03*
Y122000D02*
D03*
Y113000D02*
D03*
Y130500D02*
D03*
Y139500D02*
D03*
Y159500D02*
D03*
Y150500D02*
D03*
Y87000D02*
D03*
Y78000D02*
D03*
X252500Y209500D02*
D03*
Y200500D02*
D03*
Y157000D02*
D03*
Y148000D02*
D03*
D15*
X107500Y266000D02*
D03*
X102500D02*
D03*
X107500Y279000D02*
D03*
X102500D02*
D03*
X97500D02*
D03*
Y266000D02*
D03*
X202500D02*
D03*
X197500D02*
D03*
X202500Y279000D02*
D03*
X197500D02*
D03*
X192500D02*
D03*
Y266000D02*
D03*
X92500Y36000D02*
D03*
X87500D02*
D03*
X92500Y49000D02*
D03*
X87500D02*
D03*
X82500D02*
D03*
Y36000D02*
D03*
D16*
X107000Y290000D02*
D03*
X98000D02*
D03*
X202000D02*
D03*
X193000D02*
D03*
X280500Y135000D02*
D03*
X289500D02*
D03*
X203000Y35000D02*
D03*
X212000D02*
D03*
X280500Y125000D02*
D03*
X289500D02*
D03*
X280500Y82500D02*
D03*
X289500D02*
D03*
Y115000D02*
D03*
X280500D02*
D03*
X63000Y10000D02*
D03*
X72000D02*
D03*
X54500D02*
D03*
X45500D02*
D03*
X67000Y60000D02*
D03*
X58000D02*
D03*
X213000Y252500D02*
D03*
X222000D02*
D03*
X125500D02*
D03*
X134500D02*
D03*
X248000D02*
D03*
X257000D02*
D03*
X178000D02*
D03*
X187000D02*
D03*
X90500D02*
D03*
X99500D02*
D03*
X239500D02*
D03*
X230500D02*
D03*
X169500D02*
D03*
X160500D02*
D03*
X82000D02*
D03*
X73000D02*
D03*
X108000D02*
D03*
X117000D02*
D03*
X143000D02*
D03*
X152000D02*
D03*
X195500D02*
D03*
X204500D02*
D03*
X130500Y47500D02*
D03*
X139500D02*
D03*
X185500D02*
D03*
X194500D02*
D03*
X113000D02*
D03*
X122000D02*
D03*
X203000D02*
D03*
X212000D02*
D03*
D17*
X212250Y15250D02*
D03*
Y24750D02*
D03*
X202750D02*
D03*
Y15250D02*
D03*
X97250D02*
D03*
Y24750D02*
D03*
X87750D02*
D03*
Y15250D02*
D03*
D18*
X280000Y92500D02*
D03*
X285000D02*
D03*
X290000D02*
D03*
Y97500D02*
D03*
Y102500D02*
D03*
X285000D02*
D03*
X280000D02*
D03*
Y97500D02*
D03*
X285000D02*
D03*
D19*
X57500Y20750D02*
D03*
X62500D02*
D03*
X67500D02*
D03*
Y49250D02*
D03*
X62500D02*
D03*
X57500D02*
D03*
X72500Y20750D02*
D03*
Y49250D02*
D03*
D20*
X287120Y198000D02*
D03*
Y202000D02*
D03*
Y194000D02*
D03*
Y206000D02*
D03*
Y182000D02*
D03*
Y186000D02*
D03*
Y190000D02*
D03*
X262880Y218000D02*
D03*
Y214000D02*
D03*
Y210000D02*
D03*
Y206000D02*
D03*
Y202000D02*
D03*
Y198000D02*
D03*
Y194000D02*
D03*
Y190000D02*
D03*
Y186000D02*
D03*
Y182000D02*
D03*
X287120Y218000D02*
D03*
Y214000D02*
D03*
Y210000D02*
D03*
X12880Y202000D02*
D03*
Y198000D02*
D03*
Y206000D02*
D03*
Y194000D02*
D03*
Y218000D02*
D03*
Y214000D02*
D03*
Y210000D02*
D03*
X37120Y182000D02*
D03*
Y186000D02*
D03*
Y190000D02*
D03*
Y194000D02*
D03*
Y198000D02*
D03*
Y202000D02*
D03*
Y206000D02*
D03*
Y210000D02*
D03*
Y214000D02*
D03*
Y218000D02*
D03*
X12880Y182000D02*
D03*
Y186000D02*
D03*
Y190000D02*
D03*
D21*
X285850Y172500D02*
D03*
Y227500D02*
D03*
X264150D02*
D03*
Y172500D02*
D03*
X14150Y227500D02*
D03*
Y172500D02*
D03*
X35850D02*
D03*
Y227500D02*
D03*
D22*
X247000Y287120D02*
D03*
X243000D02*
D03*
X251000D02*
D03*
X239000D02*
D03*
X263000D02*
D03*
X259000D02*
D03*
X255000D02*
D03*
X227000Y262880D02*
D03*
X231000D02*
D03*
X235000D02*
D03*
X239000D02*
D03*
X243000D02*
D03*
X247000D02*
D03*
X251000D02*
D03*
X255000D02*
D03*
X259000D02*
D03*
X263000D02*
D03*
X227000Y287120D02*
D03*
X231000D02*
D03*
X235000D02*
D03*
X152000D02*
D03*
X148000D02*
D03*
X156000D02*
D03*
X144000D02*
D03*
X168000D02*
D03*
X164000D02*
D03*
X160000D02*
D03*
X132000Y262880D02*
D03*
X136000D02*
D03*
X140000D02*
D03*
X144000D02*
D03*
X148000D02*
D03*
X152000D02*
D03*
X156000D02*
D03*
X160000D02*
D03*
X164000D02*
D03*
X168000D02*
D03*
X132000Y287120D02*
D03*
X136000D02*
D03*
X140000D02*
D03*
X57000D02*
D03*
X53000D02*
D03*
X61000D02*
D03*
X49000D02*
D03*
X73000D02*
D03*
X69000D02*
D03*
X65000D02*
D03*
X37000Y262880D02*
D03*
X41000D02*
D03*
X45000D02*
D03*
X49000D02*
D03*
X53000D02*
D03*
X57000D02*
D03*
X61000D02*
D03*
X65000D02*
D03*
X69000D02*
D03*
X73000D02*
D03*
X37000Y287120D02*
D03*
X41000D02*
D03*
X45000D02*
D03*
X126000Y12875D02*
D03*
X130000D02*
D03*
X134000D02*
D03*
X138000D02*
D03*
X142000D02*
D03*
X146000D02*
D03*
X150000D02*
D03*
X154000D02*
D03*
X158000D02*
D03*
X162000D02*
D03*
X166000D02*
D03*
X170000D02*
D03*
X174000D02*
D03*
X126000Y37120D02*
D03*
X130000D02*
D03*
X134000D02*
D03*
X138000D02*
D03*
X142000D02*
D03*
X146000D02*
D03*
X150000D02*
D03*
X154000D02*
D03*
X158000D02*
D03*
X162000D02*
D03*
X166000D02*
D03*
X170000D02*
D03*
X174000D02*
D03*
D23*
X272500Y285850D02*
D03*
X217500D02*
D03*
Y264150D02*
D03*
X272500D02*
D03*
X177500Y285850D02*
D03*
X122500D02*
D03*
Y264150D02*
D03*
X177500D02*
D03*
X82500Y285850D02*
D03*
X27500D02*
D03*
Y264150D02*
D03*
X82500D02*
D03*
X116500Y35850D02*
D03*
X183500D02*
D03*
Y14150D02*
D03*
X116500D02*
D03*
D24*
X27500Y32500D02*
D03*
Y102500D02*
D03*
D25*
X37500Y21000D02*
D03*
X32500D02*
D03*
X27500D02*
D03*
X22500D02*
D03*
X17500D02*
D03*
Y44000D02*
D03*
X22500D02*
D03*
X27500D02*
D03*
X32500D02*
D03*
X37500D02*
D03*
Y91000D02*
D03*
X32500D02*
D03*
X27500D02*
D03*
X22500D02*
D03*
X17500D02*
D03*
Y114000D02*
D03*
X22500D02*
D03*
X27500D02*
D03*
X32500D02*
D03*
X37500D02*
D03*
D26*
X46350Y251650D02*
D03*
Y238350D02*
D03*
X63650D02*
D03*
Y251650D02*
D03*
D27*
X220000Y237000D02*
D03*
X216000D02*
D03*
X212000D02*
D03*
X208000D02*
D03*
X204000D02*
D03*
X200000D02*
D03*
X196000D02*
D03*
X192000D02*
D03*
X188000D02*
D03*
X184000D02*
D03*
X180000D02*
D03*
X176000D02*
D03*
X172000D02*
D03*
X168000D02*
D03*
X164000D02*
D03*
X160000D02*
D03*
X156000D02*
D03*
X152000D02*
D03*
X148000D02*
D03*
X144000D02*
D03*
X140000D02*
D03*
X136000D02*
D03*
X132000D02*
D03*
X128000D02*
D03*
X124000D02*
D03*
X120000D02*
D03*
X116000D02*
D03*
X112000D02*
D03*
X108000D02*
D03*
X104000D02*
D03*
X100000D02*
D03*
X96000D02*
D03*
X92000D02*
D03*
X88000D02*
D03*
X84000D02*
D03*
X80000D02*
D03*
X112000Y63000D02*
D03*
X108000D02*
D03*
X104000D02*
D03*
X100000D02*
D03*
X96000D02*
D03*
X160000D02*
D03*
X88000D02*
D03*
X84000D02*
D03*
X164000D02*
D03*
X168000D02*
D03*
X176000D02*
D03*
X172000D02*
D03*
X204000D02*
D03*
X192000D02*
D03*
X188000D02*
D03*
X184000D02*
D03*
X208000D02*
D03*
X212000D02*
D03*
X216000D02*
D03*
X180000D02*
D03*
X200000D02*
D03*
X196000D02*
D03*
X220000D02*
D03*
X92000D02*
D03*
X156000D02*
D03*
X152000D02*
D03*
X148000D02*
D03*
X144000D02*
D03*
X140000D02*
D03*
X136000D02*
D03*
X132000D02*
D03*
X124000D02*
D03*
X120000D02*
D03*
X128000D02*
D03*
X116000D02*
D03*
X80000D02*
D03*
D28*
X63000Y220000D02*
D03*
Y216000D02*
D03*
Y212000D02*
D03*
Y208000D02*
D03*
Y204000D02*
D03*
Y200000D02*
D03*
Y196000D02*
D03*
Y192000D02*
D03*
Y188000D02*
D03*
Y184000D02*
D03*
Y180000D02*
D03*
Y176000D02*
D03*
Y172000D02*
D03*
Y168000D02*
D03*
Y164000D02*
D03*
Y160000D02*
D03*
Y156000D02*
D03*
Y152000D02*
D03*
Y148000D02*
D03*
Y144000D02*
D03*
Y140000D02*
D03*
Y136000D02*
D03*
Y132000D02*
D03*
Y128000D02*
D03*
Y124000D02*
D03*
Y120000D02*
D03*
Y116000D02*
D03*
Y112000D02*
D03*
Y108000D02*
D03*
Y104000D02*
D03*
Y100000D02*
D03*
Y96000D02*
D03*
Y92000D02*
D03*
Y88000D02*
D03*
Y84000D02*
D03*
Y80000D02*
D03*
X237000Y192000D02*
D03*
Y220000D02*
D03*
Y200000D02*
D03*
Y188000D02*
D03*
Y208000D02*
D03*
Y212000D02*
D03*
Y204000D02*
D03*
Y216000D02*
D03*
Y196000D02*
D03*
Y116000D02*
D03*
Y124000D02*
D03*
Y120000D02*
D03*
Y148000D02*
D03*
Y144000D02*
D03*
Y140000D02*
D03*
Y136000D02*
D03*
Y128000D02*
D03*
Y132000D02*
D03*
Y112000D02*
D03*
Y156000D02*
D03*
Y168000D02*
D03*
Y152000D02*
D03*
Y164000D02*
D03*
Y184000D02*
D03*
Y172000D02*
D03*
Y160000D02*
D03*
Y176000D02*
D03*
Y180000D02*
D03*
Y92000D02*
D03*
Y104000D02*
D03*
Y84000D02*
D03*
Y80000D02*
D03*
Y88000D02*
D03*
Y96000D02*
D03*
Y100000D02*
D03*
Y108000D02*
D03*
D29*
X267500Y135000D02*
D03*
X254400D02*
D03*
D48*
X252500Y227000D02*
Y232500D01*
X290000Y237500D02*
Y243000D01*
X263000Y287120D02*
Y292500D01*
X259000Y291500D02*
X260000Y292500D01*
X259000Y287120D02*
Y291500D01*
X265000Y292500D02*
X267500Y290000D01*
Y280000D02*
Y290000D01*
Y280000D02*
X290000Y257500D01*
Y252000D02*
Y257500D01*
X207500Y290000D02*
X207500Y290000D01*
X202000Y290000D02*
X207500D01*
X112500D02*
X112500Y290000D01*
X107000Y290000D02*
X112500D01*
X10000Y252000D02*
X10000Y252000D01*
Y260500D01*
X290000Y142500D02*
Y148000D01*
X7500Y218000D02*
X12880D01*
X7500Y215000D02*
X8500Y214000D01*
X12880D01*
X164000Y291500D02*
X165000Y292500D01*
X164000Y287120D02*
Y291500D01*
X10000Y269500D02*
X32500D01*
X135000Y292500D02*
X136000Y291500D01*
Y287120D02*
Y291500D01*
X230000Y292500D02*
X231000Y291500D01*
Y287120D02*
Y291500D01*
X287120Y218000D02*
X292500D01*
X291500Y214000D02*
X292500Y215000D01*
X287120Y214000D02*
X291500D01*
X290000Y222500D02*
X292500Y220000D01*
X252500Y218000D02*
X257000Y222500D01*
X287120Y182000D02*
X292500D01*
X291500Y186000D02*
X292500Y185000D01*
X287120Y186000D02*
X291500D01*
X212000Y25000D02*
Y35000D01*
X97250Y24750D02*
Y29750D01*
X102500Y35000D02*
Y38000D01*
X97250Y29750D02*
X102500Y35000D01*
X197500Y15250D02*
X202750D01*
X197500Y35000D02*
X203000D01*
X102500Y47000D02*
Y52500D01*
X127500Y290000D02*
X130000Y292500D01*
X32500Y269500D02*
Y290000D01*
X180500Y292500D02*
X183000Y290000D01*
X290000Y157000D02*
Y167000D01*
X292500Y169500D02*
Y185000D01*
X290000Y167000D02*
X292500Y169500D01*
X7500Y230500D02*
X10000Y233000D01*
X287120Y206000D02*
X291000D01*
X292500Y207500D01*
X291000Y210000D02*
X292500Y208500D01*
Y207500D02*
Y208500D01*
X213000Y252500D02*
Y260000D01*
X287120Y210000D02*
X291000D01*
X235000Y287120D02*
Y291000D01*
Y281000D02*
Y287120D01*
X236500Y292500D02*
X237500D01*
X235000Y291000D02*
X236500Y292500D01*
X237500D02*
X239000Y291000D01*
Y287120D02*
Y291000D01*
X141500Y292500D02*
X142500D01*
X140000Y291000D02*
X141500Y292500D01*
X142500D02*
X144000Y291000D01*
Y287120D02*
Y291000D01*
X45000Y287120D02*
Y291000D01*
Y281000D02*
Y287120D01*
X46500Y292500D02*
X47500D01*
X45000Y291000D02*
X46500Y292500D01*
X47500D02*
X49000Y291000D01*
Y287120D02*
Y291000D01*
X7500Y191500D02*
Y192500D01*
X97250Y24750D02*
X103000D01*
X212250D02*
X217500D01*
X87750Y10000D02*
Y15250D01*
X32500Y260000D02*
Y269500D01*
X222000Y252500D02*
X222050Y252550D01*
Y266000D01*
X222100Y266050D01*
X9000Y194000D02*
X12880D01*
X7500Y192500D02*
X9000Y194000D01*
X7500Y185000D02*
X8500Y186000D01*
X12880D01*
X7500Y191500D02*
X9000Y190000D01*
X19000D01*
X140000Y287120D02*
Y291000D01*
Y281000D02*
Y287120D01*
X127500Y259500D02*
X134500Y252500D01*
X118000Y260000D02*
X125500Y252500D01*
X40000Y168000D02*
X47500D01*
X281000Y210000D02*
X287120D01*
X32500Y290000D02*
X35000Y292500D01*
X40000D02*
X41000Y291500D01*
X37000Y287120D02*
Y292500D01*
X41000Y287120D02*
Y291500D01*
X69000Y287120D02*
Y291500D01*
X73000Y287120D02*
Y292500D01*
X69000Y291500D02*
X70000Y292500D01*
X85500D02*
X88000Y290000D01*
X70000Y292500D02*
X85500D01*
X88000Y290000D02*
X98000D01*
X35000Y292500D02*
X40000D01*
X8000Y182000D02*
X12880D01*
X7500Y180000D02*
X10000Y177500D01*
X7500Y180000D02*
Y185000D01*
X10000Y177500D02*
X37000D01*
X47500D01*
X7500Y215000D02*
Y230500D01*
X10000Y233000D02*
Y243000D01*
X292500Y215000D02*
Y220000D01*
X257000Y222500D02*
X263000D01*
X290000D01*
X260000Y292500D02*
X265000D01*
X225000D02*
X227000D01*
X230000D01*
X227000Y287120D02*
Y292500D01*
X168000Y287120D02*
Y292500D01*
X165000Y292500D02*
X180500D01*
X183000Y290000D02*
X193000D01*
X130000Y292500D02*
X132000D01*
X135000D01*
X132000Y287120D02*
Y292500D01*
X127500Y259500D02*
Y263000D01*
Y290000D01*
X222100Y266050D02*
Y289600D01*
X225000Y292500D01*
X170000Y12875D02*
X170000Y12875D01*
X138000D02*
Y18000D01*
X146000Y12875D02*
Y19000D01*
X142000Y12875D02*
Y23000D01*
X150000Y12875D02*
Y22000D01*
X157000Y29000D01*
X154000Y12875D02*
Y21000D01*
X162000Y29000D01*
X158000Y12875D02*
Y20000D01*
X167000Y29000D01*
D49*
X35000Y32500D02*
X42000Y25500D01*
X9000Y105500D02*
X24500D01*
X35000Y102500D02*
X42000Y95500D01*
X47500D01*
X42000Y25500D02*
X47500D01*
X32500Y21000D02*
Y27500D01*
X27500Y32500D02*
Y44000D01*
X32500D02*
Y66500D01*
Y91000D02*
Y97500D01*
Y114000D02*
Y136500D01*
X27500Y102500D02*
Y114000D01*
X22500D02*
Y120500D01*
Y44000D02*
Y50744D01*
X11500Y61744D02*
X22500Y50744D01*
X9000Y35500D02*
X24500D01*
X11500Y131500D02*
X22500Y120500D01*
D50*
X267500Y125000D02*
Y135000D01*
X262500Y120000D02*
X267500Y125000D01*
X262500Y110000D02*
X270000Y102500D01*
X262500Y110000D02*
Y120000D01*
X254400Y105600D02*
Y135000D01*
Y105600D02*
X267500Y92500D01*
X275500D01*
X268000Y115000D02*
X280500D01*
X270000Y102500D02*
X275500D01*
X280500Y109000D02*
Y115000D01*
X289500Y109000D02*
Y115000D01*
D51*
X287500Y100000D02*
Y105000D01*
D52*
X252500Y232500D02*
D03*
X10000Y237500D02*
D03*
X92500Y290000D02*
D03*
X187500D02*
D03*
X290000Y162500D02*
D03*
X279000Y257500D02*
D03*
X272500Y245000D02*
D03*
Y252500D02*
D03*
X290000Y257500D02*
D03*
Y237500D02*
D03*
X207500Y290000D02*
D03*
X112500Y290000D02*
D03*
X10000Y256250D02*
D03*
X290000Y142500D02*
D03*
X21000Y237500D02*
D03*
X27500Y250000D02*
D03*
Y242500D02*
D03*
X92500Y279000D02*
D03*
X105000Y272500D02*
D03*
X97500D02*
D03*
X187500Y279000D02*
D03*
X200000Y272500D02*
D03*
X192500D02*
D03*
X279000Y162500D02*
D03*
X272500Y150000D02*
D03*
Y157500D02*
D03*
X82500Y42500D02*
D03*
X267500Y194000D02*
D03*
X33450Y106450D02*
D03*
X47500Y20000D02*
D03*
X42500D02*
D03*
X275500Y97500D02*
D03*
X173750Y252500D02*
D03*
X52500Y20000D02*
D03*
X33000Y36000D02*
D03*
Y29000D02*
D03*
X22000Y36000D02*
D03*
Y29000D02*
D03*
Y106000D02*
D03*
X27500Y32500D02*
D03*
X47500Y56250D02*
D03*
X77500Y10000D02*
D03*
X58750D02*
D03*
X40000D02*
D03*
X90000Y42500D02*
D03*
X197500Y15250D02*
D03*
Y35000D02*
D03*
X102500Y52500D02*
D03*
X57500Y44000D02*
D03*
X62500Y41000D02*
D03*
X67500Y44000D02*
D03*
X72500Y41000D02*
D03*
X63000Y76000D02*
D03*
X22000Y99000D02*
D03*
X33000D02*
D03*
X27500Y102500D02*
D03*
X267500Y218000D02*
D03*
X251000Y268000D02*
D03*
X172000Y269000D02*
D03*
Y262880D02*
D03*
X263000Y222500D02*
D03*
X227000Y268000D02*
D03*
X231000Y271000D02*
D03*
X235000Y268000D02*
D03*
X243000D02*
D03*
X239000Y271000D02*
D03*
X223000Y140000D02*
D03*
X227000Y136000D02*
D03*
Y100000D02*
D03*
Y168000D02*
D03*
X267500Y202000D02*
D03*
Y210000D02*
D03*
X223000Y132000D02*
D03*
Y180000D02*
D03*
X247000Y271000D02*
D03*
X255000D02*
D03*
X213000Y260000D02*
D03*
X281000Y204000D02*
D03*
Y198000D02*
D03*
X247000Y281000D02*
D03*
X241000D02*
D03*
X253000D02*
D03*
X263000Y271000D02*
D03*
X259000Y268000D02*
D03*
X61000Y267500D02*
D03*
X45000D02*
D03*
X51000Y281000D02*
D03*
X37000Y267500D02*
D03*
X148000Y268000D02*
D03*
X156000D02*
D03*
X144000Y271000D02*
D03*
X152000D02*
D03*
X188000Y227000D02*
D03*
X196000Y227000D02*
D03*
X212000Y227000D02*
D03*
X72000Y33000D02*
D03*
X227000Y192000D02*
D03*
X219000D02*
D03*
X57000Y281000D02*
D03*
X152000D02*
D03*
X63000D02*
D03*
X146000D02*
D03*
X41000Y271000D02*
D03*
X49000D02*
D03*
X271000Y214000D02*
D03*
Y206000D02*
D03*
Y198000D02*
D03*
Y190000D02*
D03*
X235000Y281000D02*
D03*
X45000D02*
D03*
X53000Y267500D02*
D03*
X57000Y271000D02*
D03*
X65000D02*
D03*
X112000Y227000D02*
D03*
X77000Y262880D02*
D03*
X112000Y219000D02*
D03*
X116000Y223000D02*
D03*
X227000Y152000D02*
D03*
Y144000D02*
D03*
X223000Y148000D02*
D03*
X86250Y252500D02*
D03*
X77000Y269000D02*
D03*
X158000Y281000D02*
D03*
X186000Y215000D02*
D03*
X114000Y211000D02*
D03*
X103000Y24750D02*
D03*
X217500D02*
D03*
X212250Y10000D02*
D03*
X87750D02*
D03*
X188000Y73000D02*
D03*
X192000Y77000D02*
D03*
X172000Y223000D02*
D03*
X176000Y227000D02*
D03*
X168000D02*
D03*
X164000Y223000D02*
D03*
X144000Y227000D02*
D03*
X124000Y223000D02*
D03*
X132000D02*
D03*
X128000Y227000D02*
D03*
X148000Y223000D02*
D03*
X152000Y227000D02*
D03*
X156000Y223000D02*
D03*
X160000Y227000D02*
D03*
X136000D02*
D03*
X32500Y260000D02*
D03*
X243750Y252500D02*
D03*
X204000Y227000D02*
D03*
X200000Y223000D02*
D03*
X192000D02*
D03*
Y217000D02*
D03*
X73000Y156000D02*
D03*
Y124000D02*
D03*
X227000Y208000D02*
D03*
Y200000D02*
D03*
X73000Y164000D02*
D03*
Y148000D02*
D03*
X19000Y208000D02*
D03*
X29000Y194000D02*
D03*
Y218000D02*
D03*
X32500Y214000D02*
D03*
Y198000D02*
D03*
Y190000D02*
D03*
Y182000D02*
D03*
X29000Y186000D02*
D03*
X73000Y172000D02*
D03*
Y180000D02*
D03*
X42500Y145000D02*
D03*
X47500D02*
D03*
X77000Y128000D02*
D03*
Y136000D02*
D03*
Y152000D02*
D03*
Y160000D02*
D03*
Y168000D02*
D03*
Y176000D02*
D03*
X29000Y210000D02*
D03*
X19000Y202000D02*
D03*
Y196000D02*
D03*
Y190000D02*
D03*
X73000Y96000D02*
D03*
X77000Y120000D02*
D03*
X73000Y116000D02*
D03*
Y108000D02*
D03*
X52500Y145000D02*
D03*
X73000Y132000D02*
D03*
X77000Y144000D02*
D03*
X73000Y140000D02*
D03*
X160000Y271000D02*
D03*
X140000Y281000D02*
D03*
X281000Y192000D02*
D03*
X252500Y178750D02*
D03*
X136000Y271000D02*
D03*
X140000Y268000D02*
D03*
X132000D02*
D03*
X127500Y263000D02*
D03*
X118000Y260000D02*
D03*
X37000Y177500D02*
D03*
X40000Y168000D02*
D03*
X88000Y227000D02*
D03*
Y219000D02*
D03*
X77000Y112000D02*
D03*
X82500Y24750D02*
D03*
X281000Y210000D02*
D03*
X63436Y231786D02*
D03*
X29000Y202000D02*
D03*
X32500Y206000D02*
D03*
X47500Y198500D02*
D03*
X73000Y216000D02*
D03*
X77000Y212000D02*
D03*
X81000Y108000D02*
D03*
X223000Y204000D02*
D03*
X211000Y205000D02*
D03*
X223000Y172000D02*
D03*
Y188000D02*
D03*
X227000Y184000D02*
D03*
X223000Y164000D02*
D03*
X92000Y223000D02*
D03*
Y215000D02*
D03*
Y209000D02*
D03*
X271000Y182000D02*
D03*
X267500Y186000D02*
D03*
X73000Y196000D02*
D03*
X77000Y192000D02*
D03*
Y184000D02*
D03*
X73000Y188000D02*
D03*
X179000Y215000D02*
D03*
X217500Y47500D02*
D03*
X174000D02*
D03*
X166000D02*
D03*
X115000Y79000D02*
D03*
X109000Y79000D02*
D03*
X132000Y73000D02*
D03*
X136000Y77000D02*
D03*
X144000D02*
D03*
X47500Y126250D02*
D03*
X166000Y75000D02*
D03*
X170000Y79000D02*
D03*
X123000D02*
D03*
X129000D02*
D03*
X131000Y93000D02*
D03*
X222100Y266050D02*
D03*
X275000Y82500D02*
D03*
X294000Y100000D02*
D03*
Y135000D02*
D03*
Y125000D02*
D03*
X227000Y128000D02*
D03*
X247000Y125000D02*
D03*
Y119000D02*
D03*
X267000Y76000D02*
D03*
X268000Y115000D02*
D03*
X47000Y245000D02*
D03*
X54000Y229500D02*
D03*
X62500Y27500D02*
D03*
X164000Y20000D02*
D03*
X169000D02*
D03*
X174000D02*
D03*
X179000D02*
D03*
X135000Y31000D02*
D03*
X129000D02*
D03*
X122000Y37120D02*
D03*
X146000Y19000D02*
D03*
X170000Y43000D02*
D03*
X162000D02*
D03*
X138000Y19000D02*
D03*
X142000Y23000D02*
D03*
X141000Y31000D02*
D03*
X150000D02*
D03*
X157000Y29000D02*
D03*
X162000D02*
D03*
X167000D02*
D03*
X289500Y109000D02*
D03*
X207000Y196000D02*
D03*
M02*
