G04*
G04 #@! TF.GenerationSoftware,Altium Limited,Altium Designer,25.3.3 (18)*
G04*
G04 Layer_Physical_Order=3*
G04 Layer_Color=128*
%FSLAX44Y44*%
%MOMM*%
G71*
G04*
G04 #@! TF.SameCoordinates,3D6F95C3-3EEA-4EE9-ABCE-244942E3EF3B*
G04*
G04*
G04 #@! TF.FilePolarity,Negative*
G04*
G01*
G75*
%ADD53C,0.2000*%
%ADD58C,1.0160*%
%ADD59C,0.6000*%
%ADD60C,0.5500*%
D53*
X30000Y40000D02*
G03*
X40000Y30000I10000J0D01*
G01*
X260000Y30000D02*
G03*
X270000Y40000I0J10000D01*
G01*
Y260000D02*
G03*
X260000Y270000I-10000J0D01*
G01*
X40000D02*
G03*
X30000Y260000I0J-10000D01*
G01*
X270000Y40000D02*
Y260000D01*
X30000Y40000D02*
Y260000D01*
X40000Y270000D02*
X260000D01*
X153000Y25000D02*
Y30000D01*
Y25000D02*
X171000D01*
Y30000D01*
X260000D01*
X40000D02*
X153000D01*
D58*
X-0Y40000D02*
G03*
X40000Y0I40000J0D01*
G01*
X260000Y-0D02*
G03*
X300000Y40000I0J40000D01*
G01*
Y260000D02*
G03*
X260000Y300000I-40000J0D01*
G01*
X40000Y300000D02*
G03*
X-0Y260000I0J-40000D01*
G01*
X40000Y0D02*
X260000Y-0D01*
X300000Y40000D02*
Y260000D01*
X40000Y300000D02*
X260000Y300000D01*
X-0Y40000D02*
X0Y260000D01*
D59*
X47500Y126250D02*
D03*
Y10000D02*
D03*
X30000Y117500D02*
D03*
X15000D02*
D03*
Y107500D02*
D03*
X30000D02*
D03*
X22500Y112500D02*
D03*
X30000Y47500D02*
D03*
X15000D02*
D03*
X30000Y37500D02*
D03*
X15000D02*
D03*
X22500Y42500D02*
D03*
X252500Y232500D02*
D03*
X279000Y257500D02*
D03*
X272500Y245000D02*
D03*
X290000Y237500D02*
D03*
X207500Y290000D02*
D03*
X112500Y290000D02*
D03*
X10000Y256250D02*
D03*
X290000Y142500D02*
D03*
X21000Y237500D02*
D03*
X27500Y250000D02*
D03*
X92500Y279000D02*
D03*
X105000Y272500D02*
D03*
X187500Y279000D02*
D03*
X200000Y272500D02*
D03*
X279000Y162500D02*
D03*
X272500Y150000D02*
D03*
X82500Y42500D02*
D03*
X267500Y194000D02*
D03*
X275500Y97500D02*
D03*
X90000Y42500D02*
D03*
X197500Y15250D02*
D03*
Y35000D02*
D03*
X102500Y52500D02*
D03*
X62500Y41000D02*
D03*
X67500Y44000D02*
D03*
X72500Y41000D02*
D03*
X63000Y76000D02*
D03*
X267500Y218000D02*
D03*
X251000Y268000D02*
D03*
X172000Y269000D02*
D03*
Y262880D02*
D03*
X227000Y268000D02*
D03*
X231000Y271000D02*
D03*
X235000Y268000D02*
D03*
X243000D02*
D03*
X239000Y271000D02*
D03*
X223000Y140000D02*
D03*
X227000Y136000D02*
D03*
Y100000D02*
D03*
Y168000D02*
D03*
X267500Y202000D02*
D03*
Y210000D02*
D03*
X223000Y132000D02*
D03*
Y180000D02*
D03*
X247000Y271000D02*
D03*
X255000D02*
D03*
X213000Y260000D02*
D03*
X281000Y204000D02*
D03*
Y198000D02*
D03*
X247000Y281000D02*
D03*
X241000D02*
D03*
X253000D02*
D03*
X263000Y271000D02*
D03*
X259000Y268000D02*
D03*
X61000Y267500D02*
D03*
X45000D02*
D03*
X51000Y281000D02*
D03*
X37000Y267500D02*
D03*
X148000Y268000D02*
D03*
X156000D02*
D03*
X144000Y271000D02*
D03*
X152000D02*
D03*
X188000Y227000D02*
D03*
X196000Y227000D02*
D03*
X212000Y227000D02*
D03*
X227000Y192000D02*
D03*
X219000D02*
D03*
X57000Y281000D02*
D03*
X152000D02*
D03*
X63000D02*
D03*
X146000D02*
D03*
X41000Y271000D02*
D03*
X49000D02*
D03*
X271000Y214000D02*
D03*
Y206000D02*
D03*
Y198000D02*
D03*
Y190000D02*
D03*
X235000Y281000D02*
D03*
X45000D02*
D03*
X53000Y267500D02*
D03*
X57000Y271000D02*
D03*
X65000D02*
D03*
X77000Y262880D02*
D03*
X112000Y219000D02*
D03*
X116000Y223000D02*
D03*
X227000Y152000D02*
D03*
Y144000D02*
D03*
X77000Y269000D02*
D03*
X158000Y281000D02*
D03*
X186000Y215000D02*
D03*
X114000Y211000D02*
D03*
X212250Y10000D02*
D03*
X87750D02*
D03*
X188000Y73000D02*
D03*
X172000Y223000D02*
D03*
X176000Y227000D02*
D03*
X168000D02*
D03*
X164000Y223000D02*
D03*
X144000Y227000D02*
D03*
X124000Y223000D02*
D03*
X132000D02*
D03*
X128000Y227000D02*
D03*
X152000D02*
D03*
X156000Y223000D02*
D03*
X160000Y227000D02*
D03*
X136000D02*
D03*
X200000Y223000D02*
D03*
X192000D02*
D03*
Y217000D02*
D03*
X73000Y156000D02*
D03*
Y124000D02*
D03*
X227000Y200000D02*
D03*
X73000Y164000D02*
D03*
Y148000D02*
D03*
X19000Y208000D02*
D03*
X29000Y194000D02*
D03*
Y218000D02*
D03*
X32500Y214000D02*
D03*
Y198000D02*
D03*
Y190000D02*
D03*
Y182000D02*
D03*
X29000Y186000D02*
D03*
X73000Y172000D02*
D03*
Y180000D02*
D03*
X77000Y128000D02*
D03*
Y136000D02*
D03*
Y152000D02*
D03*
Y168000D02*
D03*
Y176000D02*
D03*
X29000Y210000D02*
D03*
X19000Y202000D02*
D03*
Y196000D02*
D03*
Y190000D02*
D03*
X73000Y96000D02*
D03*
X77000Y120000D02*
D03*
X73000Y116000D02*
D03*
Y108000D02*
D03*
Y132000D02*
D03*
X77000Y144000D02*
D03*
X73000Y140000D02*
D03*
X160000Y271000D02*
D03*
X140000Y281000D02*
D03*
X281000Y192000D02*
D03*
X136000Y271000D02*
D03*
X140000Y268000D02*
D03*
X132000D02*
D03*
X118000Y260000D02*
D03*
X40000Y168000D02*
D03*
X88000Y227000D02*
D03*
Y219000D02*
D03*
X77000Y112000D02*
D03*
X82500Y24750D02*
D03*
X281000Y210000D02*
D03*
X63436Y231786D02*
D03*
X29000Y202000D02*
D03*
X32500Y206000D02*
D03*
X77000Y212000D02*
D03*
X81000Y108000D02*
D03*
X223000Y204000D02*
D03*
X211000Y205000D02*
D03*
X223000Y172000D02*
D03*
Y188000D02*
D03*
X227000Y184000D02*
D03*
X223000Y164000D02*
D03*
X92000Y223000D02*
D03*
Y215000D02*
D03*
Y209000D02*
D03*
X271000Y182000D02*
D03*
X267500Y186000D02*
D03*
X73000Y196000D02*
D03*
X77000Y192000D02*
D03*
Y184000D02*
D03*
X73000Y188000D02*
D03*
X179000Y215000D02*
D03*
X217500Y47500D02*
D03*
X174000D02*
D03*
X166000D02*
D03*
X115000Y79000D02*
D03*
X109000Y79000D02*
D03*
X136000Y77000D02*
D03*
X144000D02*
D03*
X166000Y75000D02*
D03*
X170000Y79000D02*
D03*
X123000D02*
D03*
X129000D02*
D03*
X131000Y93000D02*
D03*
X275000Y82500D02*
D03*
X294000Y100000D02*
D03*
Y135000D02*
D03*
Y125000D02*
D03*
X227000Y128000D02*
D03*
X247000Y125000D02*
D03*
Y119000D02*
D03*
X54000Y229500D02*
D03*
X62500Y27500D02*
D03*
X164000Y20000D02*
D03*
X169000D02*
D03*
X174000D02*
D03*
X179000D02*
D03*
X135000Y31000D02*
D03*
X129000D02*
D03*
X122000Y37120D02*
D03*
X170000Y43000D02*
D03*
X162000D02*
D03*
X141000Y31000D02*
D03*
X150000D02*
D03*
X289500Y109000D02*
D03*
X207000Y196000D02*
D03*
D60*
X40000Y97500D02*
D03*
X66250Y10000D02*
D03*
X79500Y16000D02*
D03*
X53750Y69500D02*
D03*
X47500Y38750D02*
D03*
M02*
