G04*
G04 #@! TF.GenerationSoftware,Altium Limited,Altium Designer,25.3.3 (18)*
G04*
G04 Layer_Color=32896*
%FSLAX44Y44*%
%MOMM*%
G71*
G04*
G04 #@! TF.SameCoordinates,3D6F95C3-3EEA-4EE9-ABCE-244942E3EF3B*
G04*
G04*
G04 #@! TF.FilePolarity,Positive*
G04*
G01*
G75*
G36*
X255716Y45720D02*
X253878D01*
Y47419D01*
X255716D01*
Y45720D01*
D02*
G37*
G36*
X239337D02*
X237500D01*
Y47419D01*
X239337D01*
Y45720D01*
D02*
G37*
G36*
X233326Y44923D02*
X233547Y44888D01*
X233755Y44847D01*
X233957Y44784D01*
X234137Y44715D01*
X234310Y44639D01*
X234470Y44555D01*
X234615Y44465D01*
X234747Y44382D01*
X234858Y44292D01*
X234955Y44216D01*
X235038Y44146D01*
X235108Y44084D01*
X235149Y44042D01*
X235184Y44015D01*
X235191Y44001D01*
X235336Y43820D01*
X235468Y43619D01*
X235579Y43411D01*
X235676Y43196D01*
X235759Y42974D01*
X235822Y42752D01*
X235877Y42530D01*
X235926Y42323D01*
X235961Y42121D01*
X235988Y41934D01*
X236002Y41768D01*
X236016Y41615D01*
X236023Y41553D01*
Y41497D01*
X236030Y41449D01*
Y41407D01*
Y41372D01*
Y41352D01*
Y41338D01*
Y41331D01*
X236023Y41074D01*
X236002Y40832D01*
X235967Y40596D01*
X235933Y40381D01*
X235884Y40173D01*
X235829Y39979D01*
X235773Y39805D01*
X235711Y39646D01*
X235648Y39500D01*
X235593Y39369D01*
X235537Y39258D01*
X235489Y39167D01*
X235447Y39098D01*
X235420Y39043D01*
X235399Y39015D01*
X235392Y39001D01*
X235232Y38793D01*
X235059Y38613D01*
X234886Y38453D01*
X234698Y38321D01*
X234511Y38204D01*
X234331Y38114D01*
X234151Y38030D01*
X233977Y37968D01*
X233811Y37919D01*
X233658Y37885D01*
X233520Y37857D01*
X233402Y37843D01*
X233305Y37829D01*
X233235Y37822D01*
X233173D01*
X232944Y37836D01*
X232722Y37871D01*
X232514Y37926D01*
X232313Y38003D01*
X232126Y38086D01*
X231952Y38183D01*
X231800Y38280D01*
X231654Y38391D01*
X231523Y38495D01*
X231412Y38592D01*
X231308Y38689D01*
X231231Y38779D01*
X231162Y38849D01*
X231113Y38904D01*
X231086Y38939D01*
X231079Y38953D01*
X231086Y37933D01*
Y37822D01*
X231093Y37725D01*
Y37628D01*
X231100Y37545D01*
X231106Y37469D01*
X231113Y37399D01*
X231120Y37337D01*
X231127Y37288D01*
X231141Y37240D01*
X231148Y37198D01*
X231162Y37143D01*
X231169Y37108D01*
X231176Y37094D01*
X231224Y36983D01*
X231287Y36886D01*
X231349Y36810D01*
X231405Y36741D01*
X231460Y36692D01*
X231502Y36657D01*
X231530Y36637D01*
X231543Y36630D01*
X231613Y36588D01*
X231696Y36553D01*
X231862Y36505D01*
X232043Y36463D01*
X232216Y36435D01*
X232299Y36428D01*
X232376Y36421D01*
X232445Y36415D01*
X232507D01*
X232556Y36408D01*
X232729D01*
X232826Y36415D01*
X232909Y36428D01*
X232993Y36442D01*
X233069Y36456D01*
X233138Y36470D01*
X233249Y36512D01*
X233339Y36546D01*
X233402Y36581D01*
X233436Y36602D01*
X233450Y36609D01*
X233520Y36671D01*
X233568Y36747D01*
X233610Y36831D01*
X233644Y36914D01*
X233665Y36990D01*
X233679Y37053D01*
X233693Y37101D01*
Y37108D01*
Y37115D01*
X235794Y37371D01*
X235801Y37281D01*
Y37212D01*
Y37184D01*
Y37170D01*
Y37157D01*
Y37150D01*
X235794Y36976D01*
X235766Y36817D01*
X235732Y36664D01*
X235683Y36519D01*
X235628Y36380D01*
X235565Y36255D01*
X235503Y36137D01*
X235434Y36033D01*
X235364Y35936D01*
X235302Y35853D01*
X235239Y35784D01*
X235184Y35721D01*
X235135Y35673D01*
X235101Y35638D01*
X235073Y35617D01*
X235066Y35610D01*
X234913Y35506D01*
X234747Y35409D01*
X234560Y35326D01*
X234359Y35257D01*
X234158Y35201D01*
X233943Y35153D01*
X233735Y35111D01*
X233533Y35076D01*
X233339Y35048D01*
X233152Y35035D01*
X232986Y35021D01*
X232840Y35007D01*
X232722D01*
X232674Y35000D01*
X232382D01*
X232223Y35007D01*
X232063Y35021D01*
X231918Y35035D01*
X231779Y35048D01*
X231654Y35062D01*
X231536Y35083D01*
X231432Y35104D01*
X231335Y35118D01*
X231252Y35139D01*
X231176Y35153D01*
X231120Y35173D01*
X231072Y35180D01*
X231037Y35194D01*
X231016Y35201D01*
X231009D01*
X230788Y35277D01*
X230593Y35368D01*
X230427Y35458D01*
X230351Y35499D01*
X230288Y35548D01*
X230226Y35582D01*
X230170Y35624D01*
X230129Y35659D01*
X230094Y35687D01*
X230060Y35707D01*
X230039Y35728D01*
X230032Y35735D01*
X230025Y35742D01*
X229893Y35881D01*
X229782Y36040D01*
X229685Y36200D01*
X229602Y36352D01*
X229539Y36491D01*
X229512Y36546D01*
X229491Y36602D01*
X229477Y36643D01*
X229463Y36671D01*
X229456Y36692D01*
Y36699D01*
X229422Y36817D01*
X229387Y36955D01*
X229359Y37094D01*
X229338Y37240D01*
X229297Y37545D01*
X229283Y37697D01*
X229276Y37843D01*
X229262Y37982D01*
Y38114D01*
X229255Y38231D01*
X229248Y38328D01*
Y38412D01*
Y38474D01*
Y38516D01*
Y38530D01*
Y44777D01*
X230968D01*
Y43793D01*
X231127Y43994D01*
X231301Y44167D01*
X231474Y44320D01*
X231654Y44451D01*
X231835Y44562D01*
X232008Y44652D01*
X232181Y44729D01*
X232348Y44791D01*
X232500Y44833D01*
X232646Y44867D01*
X232771Y44895D01*
X232882Y44909D01*
X232972Y44923D01*
X233041Y44930D01*
X233097D01*
X233326Y44923D01*
D02*
G37*
G36*
X211552D02*
X211781Y44909D01*
X211996Y44881D01*
X212197Y44854D01*
X212377Y44819D01*
X212551Y44777D01*
X212703Y44729D01*
X212835Y44687D01*
X212960Y44639D01*
X213064Y44590D01*
X213154Y44548D01*
X213223Y44514D01*
X213279Y44486D01*
X213320Y44458D01*
X213348Y44444D01*
X213355Y44437D01*
X213480Y44340D01*
X213591Y44236D01*
X213702Y44118D01*
X213792Y44001D01*
X213882Y43876D01*
X213958Y43751D01*
X214035Y43633D01*
X214097Y43508D01*
X214146Y43397D01*
X214194Y43293D01*
X214236Y43196D01*
X214263Y43113D01*
X214291Y43044D01*
X214305Y42988D01*
X214312Y42961D01*
X214319Y42947D01*
X212648Y42648D01*
X212578Y42815D01*
X212509Y42961D01*
X212433Y43078D01*
X212363Y43169D01*
X212308Y43238D01*
X212252Y43293D01*
X212225Y43321D01*
X212211Y43328D01*
X212100Y43390D01*
X211975Y43439D01*
X211843Y43474D01*
X211719Y43501D01*
X211614Y43515D01*
X211566D01*
X211524Y43522D01*
X211309D01*
X211192Y43515D01*
X211081Y43501D01*
X210977Y43488D01*
X210886Y43467D01*
X210810Y43453D01*
X210734Y43432D01*
X210671Y43411D01*
X210616Y43383D01*
X210574Y43363D01*
X210533Y43349D01*
X210505Y43328D01*
X210477Y43314D01*
X210463Y43300D01*
X210450Y43293D01*
X210401Y43245D01*
X210359Y43196D01*
X210297Y43078D01*
X210248Y42954D01*
X210221Y42829D01*
X210200Y42718D01*
X210193Y42669D01*
Y42621D01*
X210186Y42586D01*
Y42558D01*
Y42544D01*
Y42537D01*
Y42357D01*
X210290Y42316D01*
X210408Y42274D01*
X210540Y42232D01*
X210678Y42198D01*
X210970Y42121D01*
X211268Y42045D01*
X211406Y42017D01*
X211538Y41990D01*
X211663Y41962D01*
X211767Y41941D01*
X211850Y41920D01*
X211920Y41913D01*
X211961Y41899D01*
X211975D01*
X212148Y41865D01*
X212315Y41830D01*
X212467Y41796D01*
X212606Y41754D01*
X212738Y41719D01*
X212856Y41685D01*
X212967Y41650D01*
X213064Y41615D01*
X213154Y41588D01*
X213230Y41560D01*
X213293Y41532D01*
X213341Y41511D01*
X213383Y41497D01*
X213417Y41483D01*
X213431Y41470D01*
X213438D01*
X213619Y41372D01*
X213778Y41255D01*
X213910Y41137D01*
X214021Y41026D01*
X214111Y40922D01*
X214173Y40839D01*
X214201Y40804D01*
X214215Y40783D01*
X214222Y40769D01*
X214229Y40762D01*
X214319Y40589D01*
X214388Y40409D01*
X214437Y40228D01*
X214471Y40069D01*
X214485Y39993D01*
X214492Y39923D01*
X214499Y39868D01*
Y39812D01*
X214506Y39771D01*
Y39743D01*
Y39722D01*
Y39715D01*
X214499Y39556D01*
X214478Y39396D01*
X214451Y39251D01*
X214409Y39112D01*
X214360Y38980D01*
X214312Y38862D01*
X214256Y38751D01*
X214194Y38647D01*
X214139Y38557D01*
X214083Y38474D01*
X214035Y38405D01*
X213986Y38349D01*
X213944Y38308D01*
X213917Y38273D01*
X213896Y38252D01*
X213889Y38245D01*
X213771Y38141D01*
X213639Y38051D01*
X213501Y37975D01*
X213362Y37905D01*
X213223Y37850D01*
X213085Y37808D01*
X212946Y37767D01*
X212814Y37739D01*
X212682Y37711D01*
X212571Y37690D01*
X212467Y37683D01*
X212377Y37670D01*
X212301D01*
X212246Y37663D01*
X212197D01*
X211975Y37670D01*
X211760Y37697D01*
X211566Y37732D01*
X211476Y37753D01*
X211393Y37781D01*
X211323Y37801D01*
X211254Y37822D01*
X211198Y37836D01*
X211143Y37857D01*
X211108Y37871D01*
X211074Y37885D01*
X211060Y37892D01*
X211053D01*
X210852Y37989D01*
X210665Y38093D01*
X210491Y38210D01*
X210345Y38321D01*
X210276Y38370D01*
X210221Y38419D01*
X210165Y38467D01*
X210124Y38502D01*
X210089Y38536D01*
X210061Y38557D01*
X210047Y38571D01*
X210040Y38578D01*
X210033Y38550D01*
X210027Y38523D01*
X210006Y38453D01*
X209992Y38419D01*
X209985Y38391D01*
X209978Y38370D01*
Y38363D01*
X209943Y38238D01*
X209909Y38127D01*
X209874Y38037D01*
X209846Y37961D01*
X209825Y37898D01*
X209812Y37857D01*
X209798Y37829D01*
Y37822D01*
X207981D01*
X208064Y38003D01*
X208134Y38176D01*
X208196Y38335D01*
X208237Y38474D01*
X208272Y38585D01*
X208286Y38633D01*
X208293Y38675D01*
X208307Y38710D01*
Y38731D01*
X208314Y38744D01*
Y38751D01*
X208328Y38842D01*
X208342Y38932D01*
X208355Y39036D01*
X208362Y39147D01*
X208376Y39369D01*
X208383Y39590D01*
X208390Y39694D01*
Y39792D01*
X208397Y39875D01*
Y39951D01*
Y40013D01*
Y40062D01*
Y40097D01*
Y40104D01*
X208369Y42246D01*
Y42461D01*
X208383Y42662D01*
X208390Y42843D01*
X208411Y43009D01*
X208425Y43162D01*
X208446Y43293D01*
X208473Y43418D01*
X208494Y43522D01*
X208515Y43612D01*
X208543Y43689D01*
X208563Y43758D01*
X208577Y43806D01*
X208598Y43848D01*
X208605Y43876D01*
X208619Y43890D01*
Y43897D01*
X208668Y43980D01*
X208723Y44056D01*
X208855Y44202D01*
X208993Y44327D01*
X209132Y44437D01*
X209264Y44521D01*
X209319Y44555D01*
X209368Y44583D01*
X209409Y44611D01*
X209437Y44625D01*
X209458Y44639D01*
X209465D01*
X209583Y44687D01*
X209715Y44736D01*
X209860Y44777D01*
X210006Y44805D01*
X210311Y44860D01*
X210463Y44881D01*
X210609Y44895D01*
X210748Y44909D01*
X210879Y44916D01*
X210997Y44923D01*
X211101D01*
X211185Y44930D01*
X211302D01*
X211552Y44923D01*
D02*
G37*
G36*
X264848Y37822D02*
X263066D01*
X261887Y42295D01*
X260688Y37822D01*
X258927D01*
X256687Y44777D01*
X258503D01*
X259835Y40215D01*
X260993Y44777D01*
X262761D01*
X263961Y40215D01*
X265264Y44777D01*
X267047D01*
X264848Y37822D01*
D02*
G37*
G36*
X219727Y47572D02*
X219908Y47565D01*
X220261Y47523D01*
X220587Y47454D01*
X220899Y47371D01*
X221191Y47274D01*
X221454Y47156D01*
X221704Y47038D01*
X221926Y46913D01*
X222120Y46788D01*
X222293Y46670D01*
X222446Y46559D01*
X222570Y46455D01*
X222668Y46372D01*
X222737Y46303D01*
X222758Y46282D01*
X222778Y46261D01*
X222785Y46254D01*
X222792Y46247D01*
X222903Y46122D01*
X223007Y45991D01*
X223202Y45706D01*
X223361Y45415D01*
X223507Y45110D01*
X223624Y44798D01*
X223729Y44493D01*
X223805Y44188D01*
X223874Y43890D01*
X223923Y43612D01*
X223964Y43356D01*
X223978Y43238D01*
X223992Y43127D01*
X223999Y43023D01*
X224006Y42926D01*
X224013Y42836D01*
X224020Y42759D01*
Y42690D01*
X224027Y42635D01*
Y42593D01*
Y42558D01*
Y42537D01*
Y42530D01*
X224020Y42323D01*
X224013Y42115D01*
X223971Y41726D01*
X223916Y41359D01*
X223832Y41019D01*
X223742Y40700D01*
X223638Y40402D01*
X223527Y40138D01*
X223410Y39896D01*
X223299Y39681D01*
X223188Y39493D01*
X223132Y39410D01*
X223084Y39334D01*
X223035Y39265D01*
X222994Y39202D01*
X222952Y39147D01*
X222910Y39098D01*
X222883Y39056D01*
X222855Y39022D01*
X222827Y38994D01*
X222813Y38973D01*
X222799Y38966D01*
Y38959D01*
X222682Y38842D01*
X222564Y38731D01*
X222439Y38627D01*
X222314Y38530D01*
X222050Y38356D01*
X221794Y38204D01*
X221523Y38079D01*
X221267Y37975D01*
X221010Y37885D01*
X220768Y37822D01*
X220539Y37767D01*
X220331Y37725D01*
X220137Y37697D01*
X220053Y37683D01*
X219977Y37677D01*
X219908Y37670D01*
X219845Y37663D01*
X219790D01*
X219741Y37656D01*
X219658D01*
X219374Y37663D01*
X219103Y37690D01*
X218847Y37725D01*
X218611Y37774D01*
X218382Y37836D01*
X218174Y37898D01*
X217980Y37968D01*
X217807Y38037D01*
X217647Y38107D01*
X217509Y38176D01*
X217391Y38245D01*
X217294Y38301D01*
X217217Y38349D01*
X217162Y38384D01*
X217127Y38412D01*
X217113Y38419D01*
X216933Y38571D01*
X216760Y38737D01*
X216607Y38918D01*
X216462Y39105D01*
X216330Y39299D01*
X216212Y39493D01*
X216108Y39688D01*
X216018Y39875D01*
X215935Y40048D01*
X215865Y40215D01*
X215803Y40367D01*
X215754Y40499D01*
X215720Y40603D01*
X215706Y40651D01*
X215692Y40686D01*
X215685Y40714D01*
X215678Y40735D01*
X215671Y40749D01*
Y40755D01*
X217550Y41352D01*
X217599Y41158D01*
X217654Y40977D01*
X217717Y40818D01*
X217779Y40658D01*
X217841Y40520D01*
X217911Y40395D01*
X217980Y40277D01*
X218043Y40180D01*
X218105Y40090D01*
X218160Y40013D01*
X218216Y39944D01*
X218264Y39896D01*
X218299Y39854D01*
X218327Y39819D01*
X218348Y39805D01*
X218354Y39799D01*
X218458Y39715D01*
X218570Y39639D01*
X218680Y39577D01*
X218798Y39521D01*
X218909Y39473D01*
X219020Y39431D01*
X219124Y39396D01*
X219221Y39376D01*
X219318Y39355D01*
X219408Y39341D01*
X219485Y39327D01*
X219547Y39320D01*
X219603Y39313D01*
X219679D01*
X219873Y39320D01*
X220053Y39348D01*
X220227Y39382D01*
X220386Y39431D01*
X220539Y39493D01*
X220678Y39556D01*
X220802Y39625D01*
X220920Y39701D01*
X221024Y39771D01*
X221114Y39840D01*
X221198Y39903D01*
X221260Y39965D01*
X221308Y40013D01*
X221350Y40048D01*
X221371Y40076D01*
X221378Y40083D01*
X221496Y40242D01*
X221593Y40416D01*
X221683Y40610D01*
X221752Y40811D01*
X221815Y41026D01*
X221870Y41241D01*
X221912Y41456D01*
X221946Y41664D01*
X221974Y41865D01*
X221995Y42052D01*
X222009Y42225D01*
X222016Y42371D01*
X222023Y42440D01*
Y42496D01*
X222030Y42544D01*
Y42593D01*
Y42621D01*
Y42648D01*
Y42662D01*
Y42669D01*
X222023Y42981D01*
X222002Y43273D01*
X221967Y43536D01*
X221926Y43786D01*
X221877Y44008D01*
X221822Y44209D01*
X221759Y44396D01*
X221697Y44555D01*
X221641Y44701D01*
X221579Y44819D01*
X221523Y44923D01*
X221475Y45006D01*
X221433Y45068D01*
X221399Y45117D01*
X221378Y45145D01*
X221371Y45152D01*
X221239Y45290D01*
X221107Y45408D01*
X220962Y45505D01*
X220823Y45595D01*
X220678Y45672D01*
X220532Y45734D01*
X220393Y45783D01*
X220254Y45824D01*
X220130Y45859D01*
X220012Y45880D01*
X219908Y45901D01*
X219818Y45908D01*
X219748Y45914D01*
X219693Y45921D01*
X219644D01*
X219499Y45914D01*
X219367Y45901D01*
X219235Y45880D01*
X219110Y45852D01*
X218999Y45817D01*
X218888Y45783D01*
X218791Y45741D01*
X218694Y45706D01*
X218618Y45665D01*
X218542Y45623D01*
X218479Y45588D01*
X218431Y45554D01*
X218389Y45526D01*
X218354Y45505D01*
X218341Y45491D01*
X218334Y45484D01*
X218237Y45401D01*
X218146Y45311D01*
X218063Y45214D01*
X217994Y45117D01*
X217931Y45020D01*
X217869Y44923D01*
X217772Y44736D01*
X217737Y44652D01*
X217703Y44569D01*
X217675Y44500D01*
X217654Y44437D01*
X217640Y44382D01*
X217626Y44347D01*
X217619Y44320D01*
Y44313D01*
X215699Y44770D01*
X215761Y44978D01*
X215837Y45179D01*
X215914Y45360D01*
X215990Y45533D01*
X216073Y45686D01*
X216156Y45831D01*
X216240Y45963D01*
X216316Y46081D01*
X216392Y46185D01*
X216462Y46275D01*
X216524Y46358D01*
X216579Y46421D01*
X216621Y46469D01*
X216656Y46504D01*
X216677Y46525D01*
X216683Y46532D01*
X216898Y46719D01*
X217120Y46878D01*
X217356Y47017D01*
X217592Y47135D01*
X217834Y47239D01*
X218070Y47322D01*
X218306Y47391D01*
X218528Y47447D01*
X218736Y47488D01*
X218930Y47523D01*
X219097Y47544D01*
X219249Y47565D01*
X219311D01*
X219374Y47572D01*
X219422D01*
X219464Y47579D01*
X219540D01*
X219727Y47572D01*
D02*
G37*
G36*
X243720Y46157D02*
Y44777D01*
X244566D01*
Y43314D01*
X243720D01*
Y40277D01*
Y40104D01*
Y39944D01*
X243713Y39792D01*
Y39660D01*
X243706Y39542D01*
X243699Y39438D01*
Y39341D01*
X243692Y39265D01*
X243685Y39195D01*
X243678Y39133D01*
Y39084D01*
X243671Y39043D01*
Y39015D01*
X243664Y38994D01*
Y38987D01*
Y38980D01*
X243637Y38821D01*
X243595Y38675D01*
X243553Y38550D01*
X243512Y38446D01*
X243470Y38370D01*
X243435Y38308D01*
X243415Y38273D01*
X243408Y38259D01*
X243332Y38162D01*
X243234Y38079D01*
X243144Y38009D01*
X243047Y37947D01*
X242957Y37898D01*
X242888Y37857D01*
X242860Y37843D01*
X242839Y37836D01*
X242832Y37829D01*
X242825D01*
X242673Y37774D01*
X242513Y37732D01*
X242368Y37704D01*
X242229Y37683D01*
X242104Y37670D01*
X242056D01*
X242014Y37663D01*
X241931D01*
X241633Y37677D01*
X241362Y37704D01*
X241231Y37725D01*
X241113Y37746D01*
X241002Y37774D01*
X240898Y37801D01*
X240807Y37822D01*
X240724Y37850D01*
X240648Y37871D01*
X240586Y37892D01*
X240537Y37905D01*
X240502Y37919D01*
X240482Y37933D01*
X240475D01*
X240634Y39362D01*
X240807Y39306D01*
X240953Y39265D01*
X241085Y39230D01*
X241189Y39209D01*
X241272Y39195D01*
X241327Y39188D01*
X241376D01*
X241439Y39195D01*
X241501Y39202D01*
X241556Y39216D01*
X241598Y39237D01*
X241640Y39251D01*
X241667Y39265D01*
X241681Y39272D01*
X241688Y39278D01*
X241730Y39313D01*
X241764Y39355D01*
X241792Y39389D01*
X241813Y39424D01*
X241827Y39459D01*
X241841Y39486D01*
X241848Y39500D01*
Y39507D01*
X241854Y39542D01*
X241861Y39590D01*
Y39653D01*
X241868Y39722D01*
Y39805D01*
X241875Y39889D01*
Y40062D01*
X241882Y40228D01*
Y40305D01*
Y40367D01*
Y40430D01*
Y40471D01*
Y40499D01*
Y40506D01*
Y43314D01*
X240627D01*
Y44777D01*
X241882D01*
Y47239D01*
X243720Y46157D01*
D02*
G37*
G36*
X193204Y40374D02*
Y40194D01*
X193190Y40027D01*
X193183Y39868D01*
X193163Y39715D01*
X193149Y39577D01*
X193128Y39452D01*
X193107Y39334D01*
X193079Y39230D01*
X193059Y39140D01*
X193038Y39056D01*
X193017Y38987D01*
X192996Y38932D01*
X192982Y38883D01*
X192968Y38855D01*
X192962Y38835D01*
Y38828D01*
X192913Y38724D01*
X192857Y38633D01*
X192733Y38460D01*
X192594Y38314D01*
X192462Y38190D01*
X192344Y38093D01*
X192296Y38058D01*
X192247Y38023D01*
X192213Y38003D01*
X192178Y37982D01*
X192164Y37975D01*
X192157Y37968D01*
X192053Y37912D01*
X191942Y37871D01*
X191720Y37794D01*
X191512Y37739D01*
X191318Y37704D01*
X191228Y37690D01*
X191145Y37677D01*
X191075Y37670D01*
X191013D01*
X190964Y37663D01*
X190895D01*
X190770Y37670D01*
X190639Y37677D01*
X190403Y37711D01*
X190181Y37767D01*
X190077Y37794D01*
X189987Y37822D01*
X189897Y37850D01*
X189820Y37878D01*
X189758Y37905D01*
X189695Y37933D01*
X189654Y37954D01*
X189619Y37968D01*
X189598Y37982D01*
X189592D01*
X189370Y38113D01*
X189168Y38252D01*
X189002Y38398D01*
X188926Y38474D01*
X188856Y38543D01*
X188794Y38606D01*
X188739Y38668D01*
X188690Y38724D01*
X188655Y38772D01*
X188628Y38807D01*
X188607Y38835D01*
X188593Y38855D01*
X188586Y38862D01*
Y37822D01*
X186880D01*
Y44777D01*
X188718D01*
Y41844D01*
Y41574D01*
X188725Y41331D01*
X188732Y41116D01*
X188739Y40922D01*
X188752Y40742D01*
X188759Y40589D01*
X188773Y40457D01*
X188787Y40346D01*
X188801Y40242D01*
X188815Y40166D01*
X188822Y40097D01*
X188836Y40048D01*
X188843Y40013D01*
X188850Y39986D01*
X188856Y39972D01*
Y39965D01*
X188919Y39826D01*
X188995Y39701D01*
X189078Y39597D01*
X189161Y39500D01*
X189245Y39431D01*
X189307Y39376D01*
X189335Y39355D01*
X189356Y39341D01*
X189363Y39327D01*
X189370D01*
X189515Y39244D01*
X189661Y39181D01*
X189799Y39133D01*
X189931Y39105D01*
X190049Y39084D01*
X190098Y39077D01*
X190132D01*
X190167Y39070D01*
X190215D01*
X190361Y39077D01*
X190500Y39098D01*
X190618Y39133D01*
X190715Y39167D01*
X190791Y39195D01*
X190854Y39230D01*
X190888Y39251D01*
X190902Y39258D01*
X190992Y39334D01*
X191068Y39424D01*
X191131Y39507D01*
X191186Y39597D01*
X191221Y39667D01*
X191249Y39729D01*
X191263Y39771D01*
X191269Y39778D01*
Y39785D01*
X191283Y39861D01*
X191304Y39958D01*
X191311Y40076D01*
X191325Y40208D01*
X191332Y40346D01*
X191346Y40499D01*
X191353Y40811D01*
X191360Y40957D01*
Y41102D01*
X191367Y41234D01*
Y41345D01*
Y41442D01*
Y41518D01*
Y41546D01*
Y41567D01*
Y41574D01*
Y41581D01*
Y44777D01*
X193204D01*
Y40374D01*
D02*
G37*
G36*
X275000Y45797D02*
X272150D01*
Y37822D01*
X270215D01*
Y45797D01*
X267372D01*
Y47419D01*
X275000D01*
Y45797D01*
D02*
G37*
G36*
X255716Y37822D02*
X253878D01*
Y44777D01*
X255716D01*
Y37822D01*
D02*
G37*
G36*
X248269Y44916D02*
X248511Y44881D01*
X248740Y44819D01*
X248955Y44743D01*
X249156Y44659D01*
X249350Y44555D01*
X249524Y44451D01*
X249676Y44340D01*
X249822Y44229D01*
X249947Y44125D01*
X250051Y44021D01*
X250141Y43938D01*
X250217Y43862D01*
X250266Y43800D01*
X250294Y43765D01*
X250307Y43751D01*
Y44777D01*
X252013D01*
Y37822D01*
X250176D01*
Y40963D01*
Y41171D01*
X250169Y41366D01*
X250162Y41546D01*
X250155Y41705D01*
X250141Y41851D01*
X250134Y41983D01*
X250120Y42094D01*
X250106Y42198D01*
X250092Y42288D01*
X250079Y42364D01*
X250072Y42427D01*
X250058Y42475D01*
X250051Y42510D01*
X250044Y42537D01*
X250037Y42551D01*
Y42558D01*
X249974Y42711D01*
X249898Y42849D01*
X249808Y42974D01*
X249725Y43071D01*
X249642Y43155D01*
X249579Y43210D01*
X249552Y43231D01*
X249531Y43245D01*
X249524Y43259D01*
X249517D01*
X249371Y43349D01*
X249219Y43411D01*
X249073Y43460D01*
X248941Y43488D01*
X248823Y43508D01*
X248775Y43515D01*
X248733D01*
X248699Y43522D01*
X248650D01*
X248518Y43515D01*
X248393Y43494D01*
X248283Y43460D01*
X248192Y43432D01*
X248116Y43397D01*
X248061Y43363D01*
X248026Y43342D01*
X248012Y43335D01*
X247922Y43259D01*
X247839Y43182D01*
X247776Y43092D01*
X247721Y43009D01*
X247679Y42940D01*
X247652Y42877D01*
X247638Y42836D01*
X247631Y42829D01*
Y42822D01*
X247610Y42752D01*
X247589Y42662D01*
X247575Y42565D01*
X247561Y42454D01*
X247547Y42336D01*
X247534Y42212D01*
X247520Y41969D01*
X247513Y41851D01*
Y41740D01*
Y41636D01*
X247506Y41546D01*
Y41470D01*
Y41414D01*
Y41379D01*
Y41366D01*
Y37822D01*
X245668D01*
Y42135D01*
Y42281D01*
X245675Y42420D01*
Y42551D01*
X245682Y42669D01*
X245689Y42780D01*
X245703Y42884D01*
X245710Y42974D01*
X245717Y43057D01*
X245731Y43134D01*
X245738Y43196D01*
X245745Y43252D01*
X245758Y43300D01*
X245765Y43335D01*
Y43356D01*
X245772Y43370D01*
Y43376D01*
X245821Y43536D01*
X245876Y43682D01*
X245932Y43806D01*
X245994Y43924D01*
X246050Y44015D01*
X246098Y44084D01*
X246112Y44111D01*
X246126Y44132D01*
X246140Y44139D01*
Y44146D01*
X246244Y44271D01*
X246369Y44375D01*
X246493Y44472D01*
X246618Y44555D01*
X246729Y44618D01*
X246778Y44646D01*
X246819Y44666D01*
X246854Y44687D01*
X246882Y44701D01*
X246896Y44708D01*
X246903D01*
X247097Y44784D01*
X247284Y44840D01*
X247471Y44874D01*
X247645Y44902D01*
X247721Y44909D01*
X247790Y44916D01*
X247853Y44923D01*
X247908Y44930D01*
X248012D01*
X248269Y44916D01*
D02*
G37*
G36*
X239337Y37822D02*
X237500D01*
Y44777D01*
X239337D01*
Y37822D01*
D02*
G37*
G36*
X203522Y44923D02*
X203675Y44895D01*
X203807Y44860D01*
X203925Y44819D01*
X204021Y44777D01*
X204098Y44743D01*
X204126Y44729D01*
X204146Y44715D01*
X204153Y44708D01*
X204160D01*
X204223Y44659D01*
X204292Y44604D01*
X204361Y44542D01*
X204431Y44472D01*
X204562Y44320D01*
X204680Y44167D01*
X204784Y44021D01*
X204833Y43952D01*
X204867Y43897D01*
X204902Y43855D01*
X204923Y43813D01*
X204937Y43793D01*
X204944Y43786D01*
Y44777D01*
X206650D01*
Y37822D01*
X204812D01*
Y39965D01*
Y40131D01*
Y40284D01*
X204805Y40575D01*
X204798Y40839D01*
X204791Y41081D01*
X204777Y41289D01*
X204764Y41483D01*
X204750Y41650D01*
X204736Y41796D01*
X204722Y41920D01*
X204708Y42024D01*
X204694Y42115D01*
X204680Y42184D01*
X204673Y42232D01*
X204666Y42267D01*
X204660Y42288D01*
Y42295D01*
X204632Y42392D01*
X204597Y42489D01*
X204562Y42572D01*
X204528Y42648D01*
X204493Y42718D01*
X204458Y42780D01*
X204396Y42891D01*
X204334Y42967D01*
X204285Y43023D01*
X204257Y43057D01*
X204243Y43064D01*
X204139Y43134D01*
X204028Y43189D01*
X203918Y43224D01*
X203813Y43252D01*
X203723Y43266D01*
X203647Y43279D01*
X203508D01*
X203432Y43266D01*
X203280Y43231D01*
X203134Y43182D01*
X203002Y43127D01*
X202884Y43071D01*
X202836Y43044D01*
X202794Y43023D01*
X202766Y43002D01*
X202739Y42988D01*
X202725Y42981D01*
X202718Y42974D01*
X202142Y44576D01*
X202253Y44639D01*
X202364Y44694D01*
X202475Y44743D01*
X202579Y44784D01*
X202787Y44847D01*
X202974Y44888D01*
X203058Y44902D01*
X203134Y44909D01*
X203196Y44916D01*
X203252Y44923D01*
X203300Y44930D01*
X203363D01*
X203522Y44923D01*
D02*
G37*
G36*
X182720Y44923D02*
X182976Y44902D01*
X183212Y44874D01*
X183427Y44833D01*
X183628Y44784D01*
X183808Y44736D01*
X183968Y44680D01*
X184113Y44625D01*
X184245Y44562D01*
X184356Y44507D01*
X184446Y44458D01*
X184523Y44410D01*
X184585Y44368D01*
X184627Y44340D01*
X184654Y44320D01*
X184661Y44313D01*
X184786Y44195D01*
X184897Y44070D01*
X184987Y43945D01*
X185070Y43813D01*
X185140Y43689D01*
X185195Y43564D01*
X185244Y43439D01*
X185278Y43321D01*
X185306Y43210D01*
X185334Y43113D01*
X185348Y43023D01*
X185355Y42947D01*
X185362Y42884D01*
X185368Y42836D01*
Y42808D01*
Y42794D01*
X185362Y42614D01*
X185334Y42440D01*
X185292Y42274D01*
X185244Y42128D01*
X185181Y41983D01*
X185112Y41858D01*
X185036Y41740D01*
X184959Y41636D01*
X184883Y41539D01*
X184807Y41456D01*
X184737Y41386D01*
X184675Y41331D01*
X184627Y41282D01*
X184585Y41255D01*
X184557Y41234D01*
X184550Y41227D01*
X184488Y41192D01*
X184419Y41151D01*
X184342Y41109D01*
X184259Y41074D01*
X184065Y40998D01*
X183857Y40915D01*
X183628Y40839D01*
X183392Y40769D01*
X183157Y40693D01*
X182914Y40631D01*
X182685Y40568D01*
X182463Y40513D01*
X182262Y40457D01*
X182172Y40436D01*
X182082Y40416D01*
X182006Y40395D01*
X181936Y40381D01*
X181874Y40367D01*
X181825Y40353D01*
X181784Y40346D01*
X181756Y40339D01*
X181735Y40332D01*
X181728D01*
X181645Y40312D01*
X181562Y40291D01*
X181492Y40270D01*
X181430Y40249D01*
X181319Y40208D01*
X181243Y40173D01*
X181180Y40138D01*
X181139Y40111D01*
X181118Y40097D01*
X181111Y40090D01*
X181069Y40034D01*
X181035Y39979D01*
X181014Y39916D01*
X180993Y39868D01*
X180986Y39819D01*
X180979Y39778D01*
Y39750D01*
Y39743D01*
X180986Y39632D01*
X181014Y39535D01*
X181056Y39452D01*
X181097Y39382D01*
X181146Y39327D01*
X181180Y39285D01*
X181208Y39258D01*
X181222Y39251D01*
X181291Y39209D01*
X181374Y39167D01*
X181541Y39105D01*
X181721Y39056D01*
X181894Y39029D01*
X181978Y39015D01*
X182054Y39008D01*
X182116Y39001D01*
X182179D01*
X182227Y38994D01*
X182415D01*
X182526Y39008D01*
X182630Y39022D01*
X182727Y39036D01*
X182817Y39056D01*
X182900Y39084D01*
X182976Y39105D01*
X183046Y39133D01*
X183108Y39160D01*
X183164Y39181D01*
X183205Y39209D01*
X183240Y39230D01*
X183274Y39244D01*
X183295Y39258D01*
X183302Y39271D01*
X183309D01*
X183434Y39389D01*
X183538Y39514D01*
X183614Y39653D01*
X183677Y39785D01*
X183725Y39903D01*
X183746Y39958D01*
X183760Y39999D01*
X183767Y40041D01*
X183774Y40069D01*
X183781Y40083D01*
Y40090D01*
X185625Y39805D01*
X185570Y39625D01*
X185507Y39452D01*
X185431Y39292D01*
X185355Y39140D01*
X185264Y39001D01*
X185174Y38876D01*
X185084Y38758D01*
X184994Y38647D01*
X184904Y38557D01*
X184828Y38474D01*
X184751Y38405D01*
X184682Y38342D01*
X184627Y38301D01*
X184585Y38266D01*
X184557Y38245D01*
X184550Y38238D01*
X184391Y38134D01*
X184217Y38051D01*
X184030Y37975D01*
X183850Y37905D01*
X183656Y37850D01*
X183469Y37801D01*
X183288Y37767D01*
X183108Y37732D01*
X182942Y37711D01*
X182789Y37690D01*
X182650Y37683D01*
X182533Y37670D01*
X182435D01*
X182359Y37663D01*
X182297D01*
X182012Y37670D01*
X181749Y37690D01*
X181499Y37725D01*
X181270Y37774D01*
X181056Y37822D01*
X180868Y37878D01*
X180688Y37940D01*
X180535Y38009D01*
X180397Y38072D01*
X180272Y38134D01*
X180175Y38190D01*
X180085Y38245D01*
X180022Y38287D01*
X179974Y38321D01*
X179946Y38342D01*
X179939Y38349D01*
X179800Y38481D01*
X179676Y38620D01*
X179565Y38758D01*
X179475Y38897D01*
X179398Y39036D01*
X179329Y39174D01*
X179280Y39306D01*
X179232Y39431D01*
X179204Y39549D01*
X179176Y39653D01*
X179162Y39750D01*
X179149Y39833D01*
X179142Y39903D01*
X179135Y39951D01*
Y39979D01*
Y39993D01*
X179142Y40152D01*
X179162Y40305D01*
X179190Y40443D01*
X179225Y40575D01*
X179266Y40700D01*
X179322Y40811D01*
X179370Y40908D01*
X179426Y41005D01*
X179481Y41088D01*
X179530Y41158D01*
X179578Y41220D01*
X179627Y41269D01*
X179662Y41310D01*
X179689Y41338D01*
X179710Y41352D01*
X179717Y41359D01*
X179835Y41449D01*
X179974Y41532D01*
X180119Y41615D01*
X180286Y41691D01*
X180452Y41761D01*
X180625Y41830D01*
X180958Y41948D01*
X181125Y42003D01*
X181270Y42045D01*
X181409Y42087D01*
X181534Y42115D01*
X181631Y42142D01*
X181707Y42163D01*
X181735Y42170D01*
X181756D01*
X181763Y42177D01*
X181770D01*
X181901Y42205D01*
X182033Y42239D01*
X182262Y42295D01*
X182470Y42350D01*
X182657Y42399D01*
X182817Y42440D01*
X182955Y42489D01*
X183073Y42524D01*
X183177Y42558D01*
X183260Y42586D01*
X183323Y42614D01*
X183378Y42642D01*
X183420Y42655D01*
X183448Y42669D01*
X183469Y42683D01*
X183482Y42690D01*
X183545Y42745D01*
X183587Y42801D01*
X183621Y42856D01*
X183642Y42912D01*
X183656Y42954D01*
X183663Y42988D01*
Y43016D01*
Y43023D01*
X183656Y43106D01*
X183628Y43182D01*
X183593Y43245D01*
X183559Y43300D01*
X183517Y43342D01*
X183489Y43370D01*
X183462Y43390D01*
X183455Y43397D01*
X183392Y43432D01*
X183323Y43467D01*
X183164Y43515D01*
X182990Y43557D01*
X182817Y43578D01*
X182733Y43591D01*
X182664D01*
X182595Y43598D01*
X182533Y43605D01*
X182415D01*
X182213Y43598D01*
X182033Y43571D01*
X181881Y43536D01*
X181756Y43494D01*
X181659Y43453D01*
X181624Y43432D01*
X181589Y43418D01*
X181569Y43404D01*
X181548Y43390D01*
X181534Y43383D01*
X181423Y43293D01*
X181333Y43196D01*
X181264Y43092D01*
X181201Y42995D01*
X181159Y42905D01*
X181125Y42836D01*
X181118Y42808D01*
X181111Y42787D01*
X181104Y42773D01*
Y42766D01*
X179370Y43085D01*
X179426Y43252D01*
X179488Y43404D01*
X179558Y43550D01*
X179634Y43682D01*
X179710Y43806D01*
X179786Y43917D01*
X179870Y44021D01*
X179946Y44111D01*
X180022Y44195D01*
X180092Y44264D01*
X180161Y44320D01*
X180216Y44375D01*
X180258Y44410D01*
X180300Y44437D01*
X180320Y44451D01*
X180327Y44458D01*
X180466Y44541D01*
X180619Y44611D01*
X180778Y44680D01*
X180951Y44729D01*
X181125Y44777D01*
X181305Y44812D01*
X181479Y44847D01*
X181645Y44874D01*
X181811Y44888D01*
X181964Y44902D01*
X182096Y44916D01*
X182213Y44923D01*
X182311Y44930D01*
X182449D01*
X182720Y44923D01*
D02*
G37*
G36*
X197781Y44916D02*
X198016Y44881D01*
X198232Y44826D01*
X198329Y44798D01*
X198419Y44770D01*
X198502Y44736D01*
X198578Y44708D01*
X198641Y44680D01*
X198696Y44652D01*
X198738Y44632D01*
X198765Y44618D01*
X198786Y44611D01*
X198793Y44604D01*
X198994Y44472D01*
X199174Y44333D01*
X199327Y44188D01*
X199459Y44056D01*
X199514Y43994D01*
X199556Y43938D01*
X199597Y43883D01*
X199632Y43841D01*
X199660Y43800D01*
X199681Y43772D01*
X199688Y43758D01*
X199695Y43751D01*
Y44777D01*
X201407D01*
Y35180D01*
X199570D01*
Y38675D01*
X199473Y38578D01*
X199383Y38481D01*
X199286Y38398D01*
X199202Y38321D01*
X199112Y38245D01*
X199036Y38183D01*
X198890Y38079D01*
X198821Y38030D01*
X198765Y37996D01*
X198717Y37961D01*
X198675Y37933D01*
X198641Y37919D01*
X198613Y37905D01*
X198599Y37891D01*
X198592D01*
X198412Y37815D01*
X198232Y37760D01*
X198051Y37718D01*
X197885Y37690D01*
X197815Y37683D01*
X197746Y37677D01*
X197691Y37670D01*
X197635D01*
X197593Y37663D01*
X197538D01*
X197316Y37677D01*
X197101Y37704D01*
X196893Y37753D01*
X196706Y37815D01*
X196519Y37885D01*
X196352Y37968D01*
X196193Y38058D01*
X196047Y38148D01*
X195922Y38231D01*
X195805Y38321D01*
X195707Y38405D01*
X195624Y38474D01*
X195555Y38536D01*
X195513Y38585D01*
X195479Y38613D01*
X195472Y38627D01*
X195319Y38814D01*
X195187Y39022D01*
X195076Y39237D01*
X194979Y39459D01*
X194896Y39681D01*
X194827Y39909D01*
X194771Y40124D01*
X194723Y40339D01*
X194688Y40540D01*
X194660Y40728D01*
X194646Y40901D01*
X194633Y41047D01*
X194626Y41109D01*
Y41164D01*
X194619Y41213D01*
Y41255D01*
Y41289D01*
Y41310D01*
Y41324D01*
Y41331D01*
X194626Y41643D01*
X194653Y41934D01*
X194695Y42205D01*
X194750Y42461D01*
X194813Y42697D01*
X194889Y42919D01*
X194965Y43113D01*
X195042Y43293D01*
X195118Y43453D01*
X195194Y43591D01*
X195271Y43709D01*
X195333Y43806D01*
X195389Y43883D01*
X195430Y43938D01*
X195458Y43966D01*
X195465Y43980D01*
X195624Y44146D01*
X195798Y44292D01*
X195971Y44424D01*
X196144Y44528D01*
X196318Y44625D01*
X196491Y44701D01*
X196651Y44763D01*
X196810Y44812D01*
X196963Y44854D01*
X197094Y44881D01*
X197219Y44902D01*
X197323Y44916D01*
X197406Y44923D01*
X197469Y44930D01*
X197656D01*
X197781Y44916D01*
D02*
G37*
G36*
X263905Y29639D02*
X263982Y29479D01*
X264065Y29327D01*
X264155Y29188D01*
X264252Y29049D01*
X264349Y28924D01*
X264446Y28806D01*
X264536Y28695D01*
X264633Y28598D01*
X264717Y28515D01*
X264793Y28439D01*
X264862Y28377D01*
X264918Y28328D01*
X264966Y28286D01*
X264994Y28266D01*
X265001Y28259D01*
X265160Y28141D01*
X265313Y28030D01*
X265459Y27933D01*
X265604Y27843D01*
X265736Y27759D01*
X265868Y27690D01*
X265986Y27628D01*
X266096Y27565D01*
X266201Y27517D01*
X266291Y27475D01*
X266367Y27447D01*
X266436Y27420D01*
X266492Y27399D01*
X266526Y27385D01*
X266554Y27371D01*
X266561D01*
Y25700D01*
X266311Y25790D01*
X266069Y25887D01*
X265833Y25998D01*
X265611Y26109D01*
X265403Y26220D01*
X265209Y26338D01*
X265029Y26456D01*
X264862Y26567D01*
X264710Y26671D01*
X264578Y26775D01*
X264460Y26865D01*
X264363Y26941D01*
X264287Y27004D01*
X264231Y27052D01*
X264196Y27080D01*
X264183Y27094D01*
Y20166D01*
X262345D01*
Y29798D01*
X263843D01*
X263905Y29639D01*
D02*
G37*
G36*
X272199Y20166D02*
X270541D01*
X267782Y27121D01*
X269674D01*
X270992Y23571D01*
X271034Y23460D01*
X271068Y23356D01*
X271103Y23252D01*
X271131Y23162D01*
X271159Y23093D01*
X271179Y23030D01*
X271186Y22996D01*
X271193Y22982D01*
X271200Y22954D01*
X271214Y22912D01*
X271235Y22829D01*
X271269Y22732D01*
X271297Y22628D01*
X271332Y22538D01*
X271353Y22462D01*
X271367Y22427D01*
X271373Y22406D01*
X271380Y22392D01*
Y22385D01*
X271762Y23571D01*
X273072Y27121D01*
X275000D01*
X272199Y20166D01*
D02*
G37*
G36*
X259204D02*
X257366D01*
Y22004D01*
X259204D01*
Y20166D01*
D02*
G37*
G36*
X253025Y29784D02*
X253261Y29756D01*
X253490Y29708D01*
X253698Y29646D01*
X253892Y29569D01*
X254073Y29486D01*
X254232Y29396D01*
X254378Y29306D01*
X254509Y29216D01*
X254627Y29125D01*
X254724Y29042D01*
X254801Y28966D01*
X254863Y28904D01*
X254912Y28855D01*
X254939Y28827D01*
X254946Y28813D01*
X255030Y28695D01*
X255113Y28571D01*
X255182Y28439D01*
X255258Y28300D01*
X255383Y28009D01*
X255487Y27704D01*
X255577Y27378D01*
X255654Y27052D01*
X255716Y26733D01*
X255765Y26414D01*
X255806Y26109D01*
X255834Y25832D01*
X255841Y25700D01*
X255855Y25575D01*
X255862Y25457D01*
X255869Y25353D01*
X255875Y25256D01*
Y25166D01*
Y25090D01*
X255882Y25027D01*
Y24979D01*
Y24937D01*
Y24916D01*
Y24909D01*
Y24653D01*
X255875Y24410D01*
X255862Y24174D01*
X255848Y23953D01*
X255827Y23737D01*
X255806Y23530D01*
X255778Y23335D01*
X255751Y23148D01*
X255716Y22968D01*
X255681Y22794D01*
X255647Y22635D01*
X255612Y22482D01*
X255577Y22337D01*
X255536Y22205D01*
X255494Y22073D01*
X255452Y21955D01*
X255418Y21844D01*
X255376Y21741D01*
X255335Y21650D01*
X255300Y21560D01*
X255265Y21484D01*
X255224Y21408D01*
X255196Y21345D01*
X255161Y21283D01*
X255133Y21234D01*
X255106Y21193D01*
X255085Y21158D01*
X255064Y21123D01*
X255036Y21089D01*
X255030Y21075D01*
X254863Y20888D01*
X254683Y20721D01*
X254503Y20575D01*
X254315Y20451D01*
X254121Y20347D01*
X253934Y20264D01*
X253754Y20194D01*
X253573Y20132D01*
X253414Y20090D01*
X253254Y20055D01*
X253123Y20035D01*
X252998Y20014D01*
X252901Y20007D01*
X252831Y20000D01*
X252769D01*
X252512Y20014D01*
X252277Y20042D01*
X252048Y20090D01*
X251840Y20152D01*
X251646Y20229D01*
X251465Y20312D01*
X251306Y20395D01*
X251160Y20492D01*
X251028Y20582D01*
X250911Y20666D01*
X250814Y20749D01*
X250737Y20825D01*
X250675Y20888D01*
X250626Y20936D01*
X250599Y20964D01*
X250592Y20978D01*
X250508Y21096D01*
X250425Y21220D01*
X250349Y21352D01*
X250280Y21491D01*
X250155Y21782D01*
X250044Y22094D01*
X249954Y22413D01*
X249877Y22739D01*
X249815Y23065D01*
X249767Y23384D01*
X249725Y23689D01*
X249697Y23973D01*
X249683Y24105D01*
X249676Y24230D01*
X249669Y24341D01*
X249662Y24452D01*
X249655Y24549D01*
Y24639D01*
X249649Y24715D01*
Y24778D01*
Y24826D01*
Y24868D01*
Y24889D01*
Y24896D01*
Y25145D01*
X249655Y25388D01*
X249669Y25624D01*
X249690Y25845D01*
X249711Y26061D01*
X249739Y26268D01*
X249767Y26463D01*
X249794Y26657D01*
X249829Y26837D01*
X249870Y27011D01*
X249905Y27170D01*
X249947Y27329D01*
X249988Y27475D01*
X250030Y27614D01*
X250079Y27745D01*
X250120Y27870D01*
X250162Y27988D01*
X250210Y28092D01*
X250252Y28189D01*
X250294Y28286D01*
X250335Y28370D01*
X250370Y28446D01*
X250411Y28515D01*
X250446Y28571D01*
X250474Y28626D01*
X250501Y28675D01*
X250529Y28709D01*
X250550Y28744D01*
X250571Y28772D01*
X250578Y28786D01*
X250592Y28800D01*
X250744Y28973D01*
X250911Y29132D01*
X251084Y29264D01*
X251264Y29375D01*
X251444Y29472D01*
X251625Y29555D01*
X251805Y29618D01*
X251971Y29673D01*
X252138Y29715D01*
X252284Y29743D01*
X252422Y29770D01*
X252540Y29784D01*
X252637Y29791D01*
X252707Y29798D01*
X252769D01*
X253025Y29784D01*
D02*
G37*
%LPC*%
G36*
X232694Y43522D02*
X232632D01*
X232507Y43515D01*
X232389Y43501D01*
X232278Y43474D01*
X232167Y43439D01*
X232070Y43397D01*
X231980Y43356D01*
X231890Y43307D01*
X231814Y43259D01*
X231744Y43210D01*
X231682Y43162D01*
X231633Y43120D01*
X231585Y43078D01*
X231557Y43044D01*
X231530Y43016D01*
X231516Y43002D01*
X231509Y42995D01*
X231432Y42891D01*
X231363Y42773D01*
X231301Y42648D01*
X231245Y42524D01*
X231204Y42392D01*
X231169Y42260D01*
X231113Y41997D01*
X231093Y41872D01*
X231079Y41761D01*
X231072Y41657D01*
X231065Y41567D01*
X231058Y41497D01*
Y41442D01*
Y41407D01*
Y41393D01*
X231065Y41206D01*
X231079Y41033D01*
X231100Y40866D01*
X231127Y40714D01*
X231169Y40575D01*
X231204Y40443D01*
X231245Y40332D01*
X231287Y40228D01*
X231335Y40131D01*
X231377Y40055D01*
X231412Y39986D01*
X231446Y39930D01*
X231481Y39889D01*
X231502Y39861D01*
X231516Y39840D01*
X231523Y39833D01*
X231613Y39743D01*
X231703Y39660D01*
X231800Y39590D01*
X231897Y39528D01*
X231994Y39479D01*
X232084Y39438D01*
X232174Y39403D01*
X232264Y39376D01*
X232348Y39348D01*
X232424Y39334D01*
X232486Y39320D01*
X232549Y39313D01*
X232597D01*
X232632Y39306D01*
X232660D01*
X232778Y39313D01*
X232889Y39327D01*
X232993Y39355D01*
X233090Y39389D01*
X233270Y39466D01*
X233353Y39514D01*
X233430Y39563D01*
X233492Y39611D01*
X233554Y39660D01*
X233603Y39701D01*
X233644Y39736D01*
X233679Y39771D01*
X233700Y39799D01*
X233714Y39812D01*
X233721Y39819D01*
X233797Y39923D01*
X233859Y40034D01*
X233915Y40159D01*
X233963Y40291D01*
X234005Y40423D01*
X234040Y40554D01*
X234088Y40818D01*
X234109Y40943D01*
X234123Y41061D01*
X234130Y41164D01*
X234137Y41255D01*
X234144Y41331D01*
Y41386D01*
Y41421D01*
Y41435D01*
X234137Y41629D01*
X234123Y41803D01*
X234102Y41969D01*
X234074Y42121D01*
X234047Y42267D01*
X234012Y42392D01*
X233970Y42510D01*
X233929Y42614D01*
X233894Y42704D01*
X233853Y42787D01*
X233818Y42849D01*
X233783Y42905D01*
X233762Y42947D01*
X233741Y42981D01*
X233728Y42995D01*
X233721Y43002D01*
X233638Y43092D01*
X233547Y43175D01*
X233457Y43245D01*
X233367Y43300D01*
X233277Y43356D01*
X233187Y43397D01*
X233097Y43432D01*
X233013Y43460D01*
X232937Y43481D01*
X232861Y43494D01*
X232799Y43508D01*
X232743Y43515D01*
X232694Y43522D01*
D02*
G37*
G36*
X210193Y41158D02*
X210186D01*
Y40790D01*
Y40672D01*
Y40561D01*
X210193Y40457D01*
X210200Y40367D01*
X210207Y40284D01*
Y40215D01*
X210214Y40145D01*
X210221Y40090D01*
X210228Y40041D01*
X210235Y40000D01*
X210242Y39965D01*
X210248Y39937D01*
X210255Y39903D01*
X210262Y39889D01*
X210311Y39764D01*
X210373Y39646D01*
X210443Y39542D01*
X210519Y39452D01*
X210588Y39382D01*
X210644Y39327D01*
X210685Y39299D01*
X210692Y39285D01*
X210699D01*
X210782Y39230D01*
X210872Y39181D01*
X211039Y39098D01*
X211198Y39043D01*
X211344Y39001D01*
X211469Y38980D01*
X211517Y38966D01*
X211566D01*
X211601Y38959D01*
X211649D01*
X211809Y38973D01*
X211954Y39001D01*
X212079Y39050D01*
X212183Y39098D01*
X212266Y39147D01*
X212329Y39195D01*
X212370Y39223D01*
X212384Y39237D01*
X212481Y39348D01*
X212551Y39459D01*
X212599Y39570D01*
X212634Y39674D01*
X212655Y39764D01*
X212662Y39840D01*
X212668Y39868D01*
Y39889D01*
Y39896D01*
Y39903D01*
X212662Y39972D01*
X212655Y40041D01*
X212613Y40173D01*
X212558Y40284D01*
X212488Y40374D01*
X212426Y40450D01*
X212370Y40506D01*
X212329Y40540D01*
X212322Y40554D01*
X212315D01*
X212266Y40582D01*
X212204Y40610D01*
X212135Y40637D01*
X212058Y40672D01*
X211892Y40721D01*
X211725Y40769D01*
X211573Y40811D01*
X211504Y40832D01*
X211441Y40845D01*
X211386Y40859D01*
X211351Y40866D01*
X211323Y40873D01*
X211316D01*
X211178Y40901D01*
X211046Y40936D01*
X210928Y40963D01*
X210817Y40991D01*
X210713Y41012D01*
X210623Y41040D01*
X210540Y41061D01*
X210463Y41081D01*
X210394Y41095D01*
X210339Y41109D01*
X210290Y41123D01*
X210255Y41137D01*
X210221Y41144D01*
X210200Y41151D01*
X210193Y41158D01*
D02*
G37*
G36*
X198093Y43474D02*
X198030D01*
X197913Y43467D01*
X197795Y43453D01*
X197684Y43425D01*
X197587Y43390D01*
X197489Y43349D01*
X197399Y43307D01*
X197316Y43259D01*
X197240Y43210D01*
X197171Y43155D01*
X197108Y43106D01*
X197060Y43064D01*
X197011Y43023D01*
X196976Y42988D01*
X196956Y42960D01*
X196942Y42947D01*
X196935Y42940D01*
X196859Y42836D01*
X196789Y42718D01*
X196727Y42593D01*
X196678Y42461D01*
X196637Y42329D01*
X196602Y42198D01*
X196546Y41934D01*
X196526Y41809D01*
X196512Y41691D01*
X196505Y41588D01*
X196498Y41497D01*
X196491Y41421D01*
Y41366D01*
Y41331D01*
Y41317D01*
X196498Y41102D01*
X196512Y40908D01*
X196533Y40728D01*
X196560Y40561D01*
X196588Y40409D01*
X196630Y40270D01*
X196664Y40145D01*
X196706Y40034D01*
X196748Y39937D01*
X196782Y39854D01*
X196824Y39785D01*
X196852Y39729D01*
X196879Y39688D01*
X196900Y39660D01*
X196914Y39639D01*
X196921Y39632D01*
X197004Y39542D01*
X197087Y39466D01*
X197178Y39396D01*
X197268Y39334D01*
X197358Y39285D01*
X197448Y39244D01*
X197538Y39209D01*
X197621Y39181D01*
X197698Y39160D01*
X197767Y39147D01*
X197836Y39133D01*
X197885Y39126D01*
X197933D01*
X197968Y39119D01*
X197996D01*
X198120Y39126D01*
X198238Y39140D01*
X198349Y39167D01*
X198460Y39209D01*
X198557Y39251D01*
X198647Y39292D01*
X198738Y39348D01*
X198814Y39396D01*
X198890Y39445D01*
X198953Y39500D01*
X199001Y39542D01*
X199050Y39590D01*
X199084Y39625D01*
X199112Y39653D01*
X199126Y39667D01*
X199133Y39674D01*
X199216Y39785D01*
X199286Y39909D01*
X199348Y40041D01*
X199403Y40180D01*
X199445Y40325D01*
X199487Y40471D01*
X199542Y40748D01*
X199556Y40887D01*
X199570Y41005D01*
X199584Y41116D01*
X199591Y41213D01*
X199597Y41296D01*
Y41359D01*
Y41393D01*
Y41407D01*
X199591Y41594D01*
X199577Y41768D01*
X199556Y41927D01*
X199528Y42080D01*
X199494Y42218D01*
X199459Y42343D01*
X199417Y42454D01*
X199376Y42558D01*
X199334Y42648D01*
X199292Y42732D01*
X199258Y42794D01*
X199223Y42849D01*
X199195Y42891D01*
X199174Y42926D01*
X199161Y42940D01*
X199154Y42947D01*
X199064Y43037D01*
X198973Y43120D01*
X198883Y43189D01*
X198786Y43252D01*
X198696Y43300D01*
X198599Y43342D01*
X198509Y43383D01*
X198426Y43411D01*
X198342Y43432D01*
X198266Y43446D01*
X198197Y43460D01*
X198141Y43467D01*
X198093Y43474D01*
D02*
G37*
G36*
X252824Y28273D02*
X252769D01*
X252651Y28266D01*
X252533Y28238D01*
X252436Y28203D01*
X252346Y28168D01*
X252277Y28127D01*
X252221Y28092D01*
X252193Y28064D01*
X252180Y28057D01*
X252131Y28016D01*
X252083Y27960D01*
X251999Y27836D01*
X251923Y27697D01*
X251861Y27551D01*
X251812Y27420D01*
X251791Y27364D01*
X251770Y27316D01*
X251763Y27274D01*
X251750Y27239D01*
X251743Y27218D01*
Y27212D01*
X251715Y27080D01*
X251687Y26934D01*
X251660Y26761D01*
X251646Y26581D01*
X251625Y26393D01*
X251611Y26199D01*
X251597Y26005D01*
X251590Y25818D01*
X251583Y25631D01*
X251576Y25464D01*
Y25305D01*
X251569Y25166D01*
Y25055D01*
Y25006D01*
Y24972D01*
Y24937D01*
Y24916D01*
Y24903D01*
Y24896D01*
Y24590D01*
X251576Y24306D01*
X251590Y24043D01*
X251597Y23807D01*
X251611Y23592D01*
X251632Y23391D01*
X251646Y23217D01*
X251666Y23065D01*
X251687Y22926D01*
X251701Y22808D01*
X251715Y22711D01*
X251736Y22635D01*
X251743Y22573D01*
X251757Y22531D01*
X251763Y22503D01*
Y22496D01*
X251791Y22399D01*
X251826Y22309D01*
X251854Y22226D01*
X251888Y22150D01*
X251923Y22080D01*
X251958Y22018D01*
X252020Y21907D01*
X252083Y21831D01*
X252131Y21775D01*
X252159Y21747D01*
X252173Y21734D01*
X252277Y21664D01*
X252374Y21616D01*
X252478Y21574D01*
X252568Y21553D01*
X252651Y21539D01*
X252714Y21532D01*
X252755Y21525D01*
X252769D01*
X252887Y21532D01*
X253005Y21560D01*
X253102Y21595D01*
X253192Y21630D01*
X253261Y21671D01*
X253317Y21699D01*
X253351Y21727D01*
X253365Y21734D01*
X253414Y21775D01*
X253455Y21831D01*
X253539Y21955D01*
X253615Y22094D01*
X253677Y22233D01*
X253726Y22364D01*
X253747Y22420D01*
X253761Y22469D01*
X253774Y22510D01*
X253788Y22545D01*
X253795Y22566D01*
Y22573D01*
X253823Y22704D01*
X253851Y22857D01*
X253871Y23023D01*
X253892Y23204D01*
X253906Y23391D01*
X253920Y23585D01*
X253934Y23779D01*
X253941Y23973D01*
X253948Y24154D01*
X253955Y24327D01*
Y24486D01*
X253962Y24618D01*
Y24736D01*
Y24785D01*
Y24819D01*
Y24854D01*
Y24875D01*
Y24889D01*
Y24896D01*
Y25201D01*
X253955Y25485D01*
X253941Y25742D01*
X253934Y25984D01*
X253920Y26199D01*
X253899Y26393D01*
X253885Y26574D01*
X253865Y26726D01*
X253851Y26865D01*
X253837Y26983D01*
X253816Y27080D01*
X253802Y27156D01*
X253788Y27218D01*
X253781Y27260D01*
X253774Y27288D01*
Y27295D01*
X253747Y27392D01*
X253712Y27482D01*
X253684Y27572D01*
X253650Y27648D01*
X253615Y27718D01*
X253580Y27780D01*
X253518Y27884D01*
X253455Y27960D01*
X253407Y28016D01*
X253379Y28051D01*
X253365Y28057D01*
X253261Y28127D01*
X253157Y28182D01*
X253060Y28217D01*
X252970Y28245D01*
X252887Y28259D01*
X252824Y28273D01*
D02*
G37*
%LPD*%
M02*
