G04*
G04 #@! TF.GenerationSoftware,Altium Limited,Altium Designer,25.8.1 (18)*
G04*
G04 Layer_Color=65535*
%FSLAX44Y44*%
%MOMM*%
G71*
G04*
G04 #@! TF.SameCoordinates,89BD97E8-7FFC-4123-A3EE-04367D590976*
G04*
G04*
G04 #@! TF.FilePolarity,Positive*
G04*
G01*
G75*
%ADD10C,0.1000*%
%ADD11C,0.0200*%
G36*
X170000Y291250D02*
X130000D01*
Y299250D01*
X170000D01*
Y291250D01*
D02*
G37*
G36*
X176000Y1250D02*
X124000D01*
Y9250D01*
X176000D01*
Y1250D01*
D02*
G37*
G36*
X299000Y180250D02*
X291000D01*
Y220250D01*
X299000D01*
Y180250D01*
D02*
G37*
G36*
X9000Y220250D02*
Y180250D01*
X1000D01*
Y220250D01*
X9000D01*
D02*
G37*
G36*
X265000Y291250D02*
X225000D01*
Y299250D01*
X265000D01*
Y291250D01*
D02*
G37*
G36*
X75000D02*
X35000D01*
Y299250D01*
X75000D01*
Y291250D01*
D02*
G37*
%LPC*%
G36*
X158534Y298558D02*
D01*
Y295308D01*
X158529Y295447D01*
X158525Y295585D01*
X158497Y295844D01*
X158460Y296089D01*
X158404Y296316D01*
X158344Y296528D01*
X158275Y296727D01*
X158201Y296903D01*
X158122Y297065D01*
X158048Y297208D01*
X157974Y297333D01*
X157937Y297388D01*
X157905Y297439D01*
X157873Y297485D01*
X157845Y297527D01*
X157817Y297564D01*
X157789Y297596D01*
X157771Y297624D01*
X157753Y297647D01*
X157734Y297666D01*
X157725Y297679D01*
X157716Y297684D01*
Y297689D01*
X157637Y297767D01*
X157558Y297841D01*
X157475Y297911D01*
X157392Y297975D01*
X157216Y298091D01*
X157045Y298193D01*
X156865Y298276D01*
X156694Y298345D01*
X156523Y298405D01*
X156361Y298447D01*
X156208Y298484D01*
X156070Y298512D01*
X155940Y298530D01*
X155885Y298539D01*
X155834Y298544D01*
X155788Y298549D01*
X155746Y298553D01*
X155709D01*
X155677Y298558D01*
X158534D01*
X152963D01*
X155621D01*
X155432Y298553D01*
X155252Y298535D01*
X155080Y298512D01*
X154923Y298479D01*
X154771Y298438D01*
X154632Y298396D01*
X154503Y298350D01*
X154387Y298304D01*
X154281Y298257D01*
X154188Y298211D01*
X154110Y298165D01*
X154045Y298128D01*
X153994Y298095D01*
X153957Y298072D01*
X153934Y298054D01*
X153925Y298049D01*
X153805Y297948D01*
X153689Y297837D01*
X153587Y297716D01*
X153490Y297592D01*
X153402Y297462D01*
X153324Y297333D01*
X153254Y297203D01*
X153194Y297078D01*
X153139Y296963D01*
X153093Y296852D01*
X153051Y296750D01*
X153019Y296662D01*
X152996Y296593D01*
X152986Y296561D01*
X152977Y296538D01*
X152972Y296519D01*
X152968Y296505D01*
X152963Y296496D01*
Y296491D01*
X154216Y296094D01*
X154248Y296223D01*
X154285Y296343D01*
X154327Y296450D01*
X154369Y296556D01*
X154410Y296649D01*
X154456Y296732D01*
X154503Y296810D01*
X154544Y296875D01*
X154586Y296935D01*
X154623Y296986D01*
X154660Y297032D01*
X154692Y297065D01*
X154715Y297092D01*
X154734Y297115D01*
X154748Y297125D01*
X154752Y297129D01*
X154822Y297185D01*
X154896Y297236D01*
X154970Y297277D01*
X155048Y297314D01*
X155122Y297347D01*
X155196Y297374D01*
X155265Y297397D01*
X155330Y297411D01*
X155395Y297425D01*
X155455Y297434D01*
X155506Y297444D01*
X155547Y297448D01*
X155584Y297453D01*
X155635D01*
X155765Y297448D01*
X155885Y297430D01*
X156000Y297407D01*
X156107Y297374D01*
X156208Y297333D01*
X156301Y297291D01*
X156384Y297245D01*
X156463Y297194D01*
X156532Y297148D01*
X156592Y297102D01*
X156648Y297060D01*
X156689Y297018D01*
X156722Y296986D01*
X156749Y296963D01*
X156763Y296944D01*
X156768Y296940D01*
X156846Y296833D01*
X156911Y296718D01*
X156971Y296588D01*
X157017Y296454D01*
X157059Y296311D01*
X157096Y296168D01*
X157124Y296024D01*
X157147Y295886D01*
X157165Y295752D01*
X157179Y295627D01*
X157189Y295511D01*
X157193Y295414D01*
X157198Y295368D01*
Y295331D01*
X157202Y295299D01*
Y295266D01*
Y295248D01*
Y295229D01*
Y295220D01*
Y295215D01*
X157198Y295007D01*
X157184Y294813D01*
X157161Y294638D01*
X157133Y294471D01*
X157101Y294323D01*
X157064Y294189D01*
X157022Y294064D01*
X156980Y293958D01*
X156944Y293861D01*
X156902Y293782D01*
X156865Y293713D01*
X156833Y293658D01*
X156805Y293616D01*
X156782Y293584D01*
X156768Y293565D01*
X156763Y293561D01*
X156675Y293468D01*
X156587Y293389D01*
X156490Y293325D01*
X156398Y293265D01*
X156301Y293214D01*
X156204Y293172D01*
X156111Y293140D01*
X156019Y293112D01*
X155936Y293089D01*
X155857Y293075D01*
X155788Y293061D01*
X155728Y293057D01*
X155681Y293052D01*
X155645Y293047D01*
X155612D01*
X155515Y293052D01*
X155427Y293061D01*
X155339Y293075D01*
X155256Y293094D01*
X155182Y293117D01*
X155108Y293140D01*
X155043Y293168D01*
X154979Y293191D01*
X154928Y293218D01*
X154877Y293246D01*
X154836Y293269D01*
X154803Y293292D01*
X154775Y293311D01*
X154752Y293325D01*
X154743Y293334D01*
X154738Y293339D01*
X154674Y293394D01*
X154614Y293454D01*
X154558Y293519D01*
X154512Y293584D01*
X154470Y293648D01*
X154429Y293713D01*
X154364Y293838D01*
X154341Y293893D01*
X154318Y293949D01*
X154299Y293995D01*
X154285Y294037D01*
X154276Y294074D01*
X154267Y294097D01*
X154262Y294115D01*
Y294120D01*
X152982Y293815D01*
X153023Y293676D01*
X153074Y293542D01*
X153125Y293422D01*
X153176Y293306D01*
X153231Y293204D01*
X153287Y293107D01*
X153342Y293020D01*
X153393Y292941D01*
X153444Y292872D01*
X153490Y292812D01*
X153532Y292756D01*
X153569Y292715D01*
X153597Y292682D01*
X153620Y292659D01*
X153634Y292645D01*
X153638Y292641D01*
X153781Y292516D01*
X153929Y292409D01*
X154087Y292317D01*
X154244Y292238D01*
X154406Y292169D01*
X154563Y292114D01*
X154720Y292067D01*
X154868Y292030D01*
X155007Y292003D01*
X155136Y291980D01*
X155247Y291966D01*
X155349Y291952D01*
X155390D01*
X155432Y291947D01*
X155464D01*
X155492Y291943D01*
X155543D01*
X158534D01*
X155543D01*
X155668Y291947D01*
X155788Y291952D01*
X156024Y291980D01*
X156241Y292026D01*
X156449Y292081D01*
X156643Y292146D01*
X156819Y292225D01*
X156985Y292303D01*
X157133Y292386D01*
X157262Y292470D01*
X157378Y292548D01*
X157480Y292622D01*
X157563Y292691D01*
X157628Y292747D01*
X157674Y292793D01*
X157688Y292807D01*
X157702Y292821D01*
X157706Y292826D01*
X157711Y292830D01*
X157785Y292913D01*
X157854Y293001D01*
X157984Y293191D01*
X158090Y293385D01*
X158187Y293588D01*
X158266Y293796D01*
X158335Y294000D01*
X158386Y294203D01*
X158432Y294402D01*
X158464Y294587D01*
X158492Y294758D01*
X158501Y294836D01*
X158511Y294910D01*
X158515Y294980D01*
X158520Y295044D01*
X158525Y295105D01*
X158529Y295155D01*
Y295202D01*
X158534Y295239D01*
Y291943D01*
D01*
D01*
Y298558D01*
D02*
G37*
G36*
X145715D02*
X141466D01*
D01*
X143616D01*
X143449Y298553D01*
X143288Y298530D01*
X143135Y298502D01*
X142992Y298465D01*
X142853Y298419D01*
X142728Y298368D01*
X142613Y298317D01*
X142507Y298262D01*
X142414Y298206D01*
X142326Y298151D01*
X142257Y298105D01*
X142197Y298058D01*
X142150Y298022D01*
X142114Y297989D01*
X142095Y297971D01*
X142086Y297966D01*
X141975Y297850D01*
X141882Y297735D01*
X141799Y297615D01*
X141725Y297490D01*
X141670Y297370D01*
X141619Y297250D01*
X141577Y297134D01*
X141545Y297023D01*
X141517Y296921D01*
X141499Y296829D01*
X141485Y296741D01*
X141476Y296672D01*
X141471Y296611D01*
X141466Y296565D01*
Y296528D01*
X141471Y296422D01*
X141480Y296320D01*
X141499Y296223D01*
X141517Y296131D01*
X141540Y296043D01*
X141568Y295960D01*
X141600Y295886D01*
X141628Y295816D01*
X141660Y295756D01*
X141693Y295701D01*
X141721Y295650D01*
X141744Y295613D01*
X141762Y295581D01*
X141781Y295557D01*
X141790Y295544D01*
X141795Y295539D01*
X141859Y295465D01*
X141929Y295400D01*
X141998Y295336D01*
X142072Y295285D01*
X142141Y295234D01*
X142215Y295192D01*
X142289Y295155D01*
X142359Y295123D01*
X142423Y295095D01*
X142483Y295072D01*
X142534Y295049D01*
X142580Y295035D01*
X142622Y295026D01*
X142650Y295017D01*
X142668Y295012D01*
X142673D01*
X142590Y294966D01*
X142511Y294915D01*
X142437Y294864D01*
X142368Y294809D01*
X142303Y294758D01*
X142243Y294702D01*
X142137Y294591D01*
X142049Y294476D01*
X141975Y294365D01*
X141915Y294254D01*
X141864Y294152D01*
X141827Y294051D01*
X141799Y293958D01*
X141776Y293880D01*
X141762Y293806D01*
X141753Y293745D01*
X141748Y293704D01*
Y293676D01*
Y293667D01*
X141753Y293556D01*
X141767Y293450D01*
X141790Y293348D01*
X141818Y293251D01*
X141855Y293158D01*
X141892Y293071D01*
X141933Y292987D01*
X141975Y292913D01*
X142016Y292844D01*
X142058Y292784D01*
X142095Y292733D01*
X142132Y292687D01*
X142160Y292650D01*
X142183Y292627D01*
X142197Y292608D01*
X142201Y292604D01*
X142308Y292502D01*
X142419Y292414D01*
X142539Y292335D01*
X142659Y292271D01*
X142779Y292215D01*
X142899Y292164D01*
X143015Y292127D01*
X143131Y292100D01*
X143237Y292072D01*
X143334Y292058D01*
X143422Y292044D01*
X143500Y292035D01*
X143560Y292030D01*
X143607Y292026D01*
X143745D01*
X143842Y292035D01*
X144023Y292058D01*
X144106Y292072D01*
X144185Y292090D01*
X144258Y292104D01*
X144328Y292123D01*
X144388Y292141D01*
X144443Y292160D01*
X144490Y292178D01*
X144531Y292192D01*
X144564Y292206D01*
X144587Y292215D01*
X144601Y292220D01*
X144605Y292225D01*
X144758Y292303D01*
X144823Y292349D01*
X144887Y292396D01*
X144947Y292437D01*
X145003Y292483D01*
X145054Y292530D01*
X145095Y292571D01*
X145137Y292613D01*
X145174Y292650D01*
X145202Y292682D01*
X145225Y292715D01*
X145248Y292738D01*
X145262Y292756D01*
X145266Y292765D01*
X145271Y292770D01*
X145312Y292839D01*
X145354Y292909D01*
X145423Y293061D01*
X145484Y293218D01*
X145534Y293366D01*
X145557Y293431D01*
X145571Y293496D01*
X145590Y293551D01*
X145599Y293602D01*
X145608Y293644D01*
X145618Y293671D01*
X145622Y293695D01*
Y293699D01*
X144494Y293889D01*
X144485Y293815D01*
X144471Y293741D01*
X144453Y293676D01*
X144434Y293616D01*
X144411Y293556D01*
X144388Y293505D01*
X144365Y293459D01*
X144342Y293417D01*
X144319Y293380D01*
X144300Y293348D01*
X144277Y293320D01*
X144263Y293297D01*
X144245Y293279D01*
X144235Y293265D01*
X144231Y293260D01*
X144226Y293255D01*
X144185Y293218D01*
X144138Y293181D01*
X144046Y293126D01*
X143953Y293089D01*
X143870Y293061D01*
X143796Y293043D01*
X143764Y293038D01*
X143736D01*
X143718Y293034D01*
X143685D01*
X143570Y293043D01*
X143473Y293066D01*
X143385Y293094D01*
X143311Y293131D01*
X143251Y293168D01*
X143209Y293195D01*
X143181Y293218D01*
X143172Y293228D01*
X143107Y293306D01*
X143061Y293389D01*
X143024Y293473D01*
X143001Y293556D01*
X142987Y293630D01*
X142983Y293658D01*
Y293685D01*
X142978Y293708D01*
Y293727D01*
Y293736D01*
Y293741D01*
X142983Y293810D01*
X142987Y293875D01*
X143001Y293940D01*
X143020Y293995D01*
X143061Y294101D01*
X143107Y294189D01*
X143135Y294226D01*
X143158Y294258D01*
X143181Y294286D01*
X143200Y294309D01*
X143218Y294328D01*
X143232Y294342D01*
X143237Y294346D01*
X143242Y294351D01*
X143292Y294393D01*
X143348Y294425D01*
X143408Y294453D01*
X143473Y294480D01*
X143597Y294517D01*
X143722Y294541D01*
X143778Y294550D01*
X143833Y294554D01*
X143879Y294559D01*
X143921Y294564D01*
X144004D01*
X144138Y295562D01*
X144023Y295530D01*
X143916Y295507D01*
X143819Y295493D01*
X143736Y295479D01*
X143671Y295474D01*
X143644D01*
X143621Y295470D01*
X143579D01*
X143514Y295474D01*
X143449Y295484D01*
X143389Y295493D01*
X143334Y295511D01*
X143232Y295557D01*
X143144Y295604D01*
X143070Y295655D01*
X143043Y295678D01*
X143020Y295701D01*
X142997Y295719D01*
X142983Y295729D01*
X142978Y295738D01*
X142973Y295742D01*
X142927Y295793D01*
X142890Y295853D01*
X142858Y295914D01*
X142830Y295974D01*
X142784Y296094D01*
X142756Y296214D01*
X142742Y296265D01*
X142738Y296316D01*
X142733Y296362D01*
X142728Y296399D01*
X142724Y296431D01*
Y296459D01*
Y296473D01*
Y296478D01*
X142728Y296565D01*
X142733Y296653D01*
X142747Y296732D01*
X142765Y296806D01*
X142784Y296875D01*
X142807Y296940D01*
X142830Y296995D01*
X142853Y297051D01*
X142881Y297097D01*
X142904Y297139D01*
X142927Y297171D01*
X142946Y297203D01*
X142964Y297226D01*
X142978Y297240D01*
X142983Y297250D01*
X142987Y297254D01*
X143038Y297305D01*
X143089Y297347D01*
X143140Y297388D01*
X143195Y297421D01*
X143251Y297448D01*
X143302Y297471D01*
X143403Y297504D01*
X143491Y297527D01*
X143528Y297532D01*
X143560Y297536D01*
X143588Y297541D01*
X143625D01*
X143690Y297536D01*
X143750Y297532D01*
X143866Y297504D01*
X143967Y297467D01*
X144055Y297421D01*
X144129Y297379D01*
X144157Y297360D01*
X144180Y297342D01*
X144198Y297328D01*
X144212Y297314D01*
X144221Y297310D01*
X144226Y297305D01*
X144268Y297259D01*
X144309Y297208D01*
X144374Y297092D01*
X144430Y296977D01*
X144466Y296866D01*
X144485Y296815D01*
X144494Y296764D01*
X144508Y296723D01*
X144513Y296681D01*
X144522Y296649D01*
Y296625D01*
X144527Y296611D01*
Y296607D01*
X145715Y296755D01*
Y292303D01*
Y298558D01*
D02*
G37*
G36*
X151849Y298447D02*
X146736D01*
Y292049D01*
X148026D01*
Y294568D01*
X150559D01*
Y292049D01*
X151849D01*
Y298447D01*
D02*
G37*
%LPD*%
G36*
X155543Y291943D02*
D01*
D01*
D01*
D02*
G37*
G36*
X145715Y296755D02*
X145692Y296903D01*
X145659Y297041D01*
X145622Y297176D01*
X145576Y297296D01*
X145520Y297411D01*
X145465Y297522D01*
X145410Y297619D01*
X145350Y297707D01*
X145294Y297786D01*
X145239Y297860D01*
X145188Y297920D01*
X145146Y297966D01*
X145109Y298008D01*
X145077Y298035D01*
X145058Y298054D01*
X145054Y298058D01*
X144943Y298146D01*
X144827Y298225D01*
X144707Y298290D01*
X144587Y298345D01*
X144466Y298396D01*
X144346Y298438D01*
X144231Y298470D01*
X144120Y298493D01*
X144014Y298516D01*
X143921Y298530D01*
X143833Y298544D01*
X143759Y298549D01*
X143699Y298553D01*
X143653Y298558D01*
X145715D01*
Y296755D01*
D02*
G37*
G36*
D02*
D01*
D01*
D01*
D02*
G37*
G36*
X150559Y295650D02*
X148026D01*
Y298447D01*
X150559D01*
Y295650D01*
D02*
G37*
%LPC*%
G36*
X156278Y8560D02*
X154262D01*
X156278D01*
Y3914D01*
X156273Y4025D01*
X156269Y4131D01*
X156255Y4233D01*
X156236Y4330D01*
X156218Y4418D01*
X156195Y4501D01*
X156171Y4580D01*
X156148Y4649D01*
X156125Y4714D01*
X156102Y4769D01*
X156079Y4815D01*
X156060Y4857D01*
X156042Y4889D01*
X156028Y4913D01*
X156024Y4926D01*
X156019Y4931D01*
X155968Y5005D01*
X155917Y5079D01*
X155802Y5208D01*
X155742Y5268D01*
X155681Y5319D01*
X155626Y5370D01*
X155570Y5412D01*
X155515Y5453D01*
X155469Y5486D01*
X155422Y5513D01*
X155386Y5541D01*
X155353Y5560D01*
X155330Y5573D01*
X155316Y5578D01*
X155312Y5583D01*
X155224Y5629D01*
X155122Y5671D01*
X155016Y5717D01*
X154905Y5759D01*
X154674Y5837D01*
X154558Y5869D01*
X154447Y5906D01*
X154341Y5934D01*
X154244Y5962D01*
X154151Y5985D01*
X154073Y6008D01*
X154008Y6022D01*
X153962Y6036D01*
X153943Y6040D01*
X153929D01*
X153925Y6045D01*
X153920D01*
X153754Y6087D01*
X153596Y6128D01*
X153462Y6165D01*
X153338Y6207D01*
X153227Y6244D01*
X153130Y6281D01*
X153046Y6313D01*
X152972Y6346D01*
X152912Y6373D01*
X152861Y6396D01*
X152820Y6420D01*
X152788Y6438D01*
X152760Y6457D01*
X152746Y6466D01*
X152737Y6475D01*
X152732D01*
X152667Y6540D01*
X152621Y6604D01*
X152589Y6669D01*
X152566Y6729D01*
X152552Y6785D01*
X152547Y6826D01*
X152542Y6854D01*
Y6859D01*
Y6863D01*
X152547Y6909D01*
X152552Y6951D01*
X152575Y7030D01*
X152607Y7094D01*
X152644Y7150D01*
X152681Y7196D01*
X152714Y7229D01*
X152737Y7252D01*
X152746Y7256D01*
X152811Y7298D01*
X152875Y7335D01*
X152945Y7367D01*
X153019Y7395D01*
X153167Y7437D01*
X153305Y7464D01*
X153375Y7473D01*
X153435Y7478D01*
X153490Y7483D01*
X153536Y7487D01*
X153573Y7492D01*
X153726D01*
X153823Y7483D01*
X153906Y7473D01*
X153985Y7460D01*
X154059Y7441D01*
X154128Y7423D01*
X154188Y7404D01*
X154244Y7386D01*
X154290Y7363D01*
X154332Y7344D01*
X154369Y7326D01*
X154396Y7307D01*
X154419Y7293D01*
X154433Y7284D01*
X154443Y7279D01*
X154447Y7275D01*
X154498Y7233D01*
X154540Y7182D01*
X154618Y7071D01*
X154678Y6956D01*
X154729Y6840D01*
X154748Y6785D01*
X154761Y6734D01*
X154775Y6688D01*
X154785Y6646D01*
X154794Y6614D01*
X154798Y6591D01*
X154803Y6572D01*
Y6567D01*
X156093Y6623D01*
X156079Y6785D01*
X156056Y6937D01*
X156024Y7081D01*
X155977Y7215D01*
X155931Y7340D01*
X155876Y7455D01*
X155820Y7561D01*
X155760Y7654D01*
X155700Y7742D01*
X155644Y7816D01*
X155594Y7880D01*
X155547Y7931D01*
X155506Y7973D01*
X155478Y8005D01*
X155459Y8024D01*
X155450Y8028D01*
X155330Y8121D01*
X155201Y8204D01*
X155057Y8273D01*
X154914Y8338D01*
X154761Y8389D01*
X154609Y8430D01*
X154461Y8467D01*
X154318Y8495D01*
X154179Y8514D01*
X154054Y8532D01*
X153939Y8546D01*
X153837Y8551D01*
X153791Y8555D01*
X153754D01*
X153721Y8560D01*
X151077D01*
X153638D01*
X153504Y8555D01*
X153375Y8551D01*
X153250Y8541D01*
X153130Y8523D01*
X153019Y8509D01*
X152917Y8490D01*
X152820Y8467D01*
X152732Y8449D01*
X152654Y8426D01*
X152584Y8407D01*
X152524Y8384D01*
X152473Y8370D01*
X152436Y8357D01*
X152404Y8343D01*
X152385Y8338D01*
X152381Y8333D01*
X152284Y8292D01*
X152196Y8241D01*
X152113Y8190D01*
X152034Y8139D01*
X151965Y8084D01*
X151900Y8033D01*
X151840Y7977D01*
X151784Y7927D01*
X151738Y7876D01*
X151697Y7834D01*
X151660Y7793D01*
X151632Y7756D01*
X151609Y7728D01*
X151595Y7705D01*
X151586Y7691D01*
X151581Y7686D01*
X151535Y7608D01*
X151493Y7524D01*
X151456Y7446D01*
X151424Y7363D01*
X151396Y7284D01*
X151373Y7210D01*
X151359Y7136D01*
X151341Y7071D01*
X151331Y7007D01*
X151322Y6946D01*
X151318Y6896D01*
X151313Y6854D01*
X151308Y6817D01*
Y6794D01*
Y6776D01*
Y6771D01*
X151313Y6632D01*
X151331Y6498D01*
X151364Y6369D01*
X151401Y6248D01*
X151442Y6137D01*
X151493Y6031D01*
X151549Y5934D01*
X151604Y5846D01*
X151655Y5763D01*
X151710Y5694D01*
X151761Y5629D01*
X151803Y5578D01*
X151840Y5541D01*
X151872Y5509D01*
X151891Y5490D01*
X151895Y5486D01*
X151983Y5416D01*
X152080Y5352D01*
X152187Y5287D01*
X152302Y5227D01*
X152418Y5171D01*
X152542Y5120D01*
X152663Y5074D01*
X152783Y5028D01*
X152894Y4991D01*
X153000Y4954D01*
X153097Y4922D01*
X153185Y4899D01*
X153254Y4880D01*
X153282Y4871D01*
X153305Y4866D01*
X153324Y4857D01*
X153338D01*
X153347Y4852D01*
X153351D01*
X153495Y4815D01*
X153629Y4783D01*
X153749Y4755D01*
X153855Y4728D01*
X153953Y4700D01*
X154036Y4677D01*
X154110Y4658D01*
X154174Y4640D01*
X154225Y4626D01*
X154271Y4612D01*
X154309Y4598D01*
X154341Y4589D01*
X154359Y4584D01*
X154378Y4580D01*
X154382Y4575D01*
X154387D01*
X154447Y4552D01*
X154503Y4529D01*
X154600Y4483D01*
X154683Y4432D01*
X154748Y4390D01*
X154794Y4349D01*
X154826Y4321D01*
X154849Y4302D01*
X154854Y4293D01*
X154900Y4233D01*
X154932Y4168D01*
X154956Y4103D01*
X154970Y4043D01*
X154983Y3988D01*
X154988Y3946D01*
Y3919D01*
Y3914D01*
Y3909D01*
X154983Y3845D01*
X154974Y3780D01*
X154960Y3724D01*
X154937Y3664D01*
X154886Y3563D01*
X154831Y3470D01*
X154798Y3433D01*
X154771Y3396D01*
X154743Y3368D01*
X154720Y3341D01*
X154697Y3322D01*
X154683Y3308D01*
X154674Y3299D01*
X154669Y3295D01*
X154609Y3248D01*
X154540Y3207D01*
X154466Y3174D01*
X154392Y3142D01*
X154313Y3119D01*
X154235Y3096D01*
X154082Y3063D01*
X154013Y3054D01*
X153943Y3045D01*
X153883Y3040D01*
X153832Y3036D01*
X153791Y3031D01*
X153731D01*
X153624Y3036D01*
X153523Y3045D01*
X153426Y3059D01*
X153333Y3077D01*
X153250Y3100D01*
X153176Y3124D01*
X153102Y3151D01*
X153042Y3179D01*
X152982Y3207D01*
X152935Y3234D01*
X152889Y3257D01*
X152857Y3281D01*
X152829Y3299D01*
X152811Y3313D01*
X152797Y3322D01*
X152792Y3327D01*
X152732Y3387D01*
X152672Y3452D01*
X152621Y3521D01*
X152575Y3595D01*
X152533Y3674D01*
X152496Y3752D01*
X152432Y3905D01*
X152409Y3974D01*
X152390Y4039D01*
X152372Y4099D01*
X152358Y4154D01*
X152348Y4196D01*
X152339Y4228D01*
X152334Y4247D01*
Y4256D01*
X151077Y4136D01*
D01*
X151105Y3942D01*
X151146Y3757D01*
X151193Y3586D01*
X151253Y3424D01*
X151313Y3281D01*
X151378Y3147D01*
X151442Y3022D01*
X151512Y2915D01*
X151576Y2818D01*
X151636Y2735D01*
X151697Y2661D01*
X151747Y2606D01*
X151789Y2560D01*
X151821Y2527D01*
X151840Y2504D01*
X151849Y2499D01*
X151979Y2402D01*
X152117Y2315D01*
X152265Y2241D01*
X152418Y2176D01*
X152570Y2120D01*
X152727Y2079D01*
X152880Y2042D01*
X153028Y2009D01*
X153167Y1986D01*
X153296Y1968D01*
X153416Y1958D01*
X153518Y1949D01*
X153560Y1945D01*
X153601D01*
X153633Y1940D01*
X151077D01*
X156278D01*
Y8560D01*
D02*
G37*
G36*
X143117Y8454D02*
X141827D01*
Y5934D01*
X139294D01*
Y8454D01*
X140560D01*
X138004D01*
Y2056D01*
X143117D01*
Y8454D01*
D02*
G37*
G36*
X150398Y8560D02*
X144189D01*
D01*
X147282D01*
X147139Y8555D01*
X147000Y8551D01*
X146866Y8537D01*
X146736Y8518D01*
X146616Y8500D01*
X146501Y8481D01*
X146399Y8458D01*
X146302Y8435D01*
X146214Y8407D01*
X146135Y8384D01*
X146066Y8366D01*
X146011Y8347D01*
X145964Y8329D01*
X145932Y8315D01*
X145913Y8310D01*
X145904Y8306D01*
X145821Y8269D01*
X145738Y8227D01*
X145585Y8135D01*
X145442Y8037D01*
X145377Y7991D01*
X145317Y7945D01*
X145266Y7903D01*
X145215Y7862D01*
X145174Y7825D01*
X145137Y7793D01*
X145109Y7765D01*
X145091Y7746D01*
X145077Y7732D01*
X145072Y7728D01*
X144938Y7580D01*
X144823Y7427D01*
X144721Y7279D01*
X144638Y7145D01*
X144601Y7081D01*
X144568Y7025D01*
X144541Y6974D01*
X144522Y6933D01*
X144503Y6896D01*
X144490Y6873D01*
X144485Y6854D01*
X144480Y6849D01*
X144430Y6720D01*
X144383Y6591D01*
X144346Y6452D01*
X144314Y6313D01*
X144286Y6179D01*
X144258Y6040D01*
X144240Y5911D01*
X144226Y5782D01*
X144212Y5666D01*
X144203Y5555D01*
X144198Y5458D01*
X144194Y5375D01*
X144189Y5305D01*
Y5213D01*
X144194Y5070D01*
X144198Y4936D01*
X144226Y4672D01*
X144268Y4423D01*
X144319Y4191D01*
X144383Y3979D01*
X144457Y3780D01*
X144531Y3600D01*
X144610Y3438D01*
X144688Y3295D01*
X144725Y3230D01*
X144762Y3170D01*
X144799Y3114D01*
X144836Y3063D01*
X144869Y3017D01*
X144901Y2975D01*
X144929Y2939D01*
X144952Y2906D01*
X144975Y2878D01*
X144993Y2855D01*
X145012Y2837D01*
X145021Y2823D01*
X145030Y2818D01*
Y2814D01*
X145109Y2735D01*
X145197Y2661D01*
X145280Y2592D01*
X145368Y2527D01*
X145553Y2412D01*
X145742Y2310D01*
X145932Y2227D01*
X146117Y2157D01*
X146302Y2097D01*
X146482Y2056D01*
X146649Y2019D01*
X146806Y1991D01*
X146875Y1982D01*
X146944Y1972D01*
X147004Y1963D01*
X147065Y1958D01*
X147115Y1954D01*
X147162Y1949D01*
X147203D01*
X147236Y1945D01*
X147300D01*
X147430Y1949D01*
X147559Y1954D01*
X147804Y1982D01*
X148031Y2023D01*
X148248Y2083D01*
X148447Y2148D01*
X148632Y2222D01*
X148803Y2301D01*
X148955Y2384D01*
X149089Y2462D01*
X149209Y2541D01*
X149316Y2615D01*
X149399Y2684D01*
X149436Y2712D01*
X149464Y2740D01*
X149492Y2763D01*
X149515Y2781D01*
X149529Y2795D01*
X149542Y2809D01*
X149547Y2814D01*
X149552Y2818D01*
X149630Y2902D01*
X149699Y2989D01*
X149769Y3082D01*
X149829Y3174D01*
X149944Y3368D01*
X150042Y3567D01*
X150125Y3766D01*
X150190Y3969D01*
X150245Y4168D01*
X150291Y4358D01*
X150328Y4538D01*
X150351Y4705D01*
X150365Y4783D01*
X150370Y4857D01*
X150379Y4922D01*
X150384Y4987D01*
X150388Y5042D01*
X150393Y5093D01*
Y5134D01*
X150398Y5171D01*
Y2740D01*
Y5384D01*
X150388Y5527D01*
X150361Y5795D01*
X150319Y6045D01*
X150264Y6281D01*
X150199Y6498D01*
X150129Y6701D01*
X150051Y6882D01*
X149972Y7048D01*
X149931Y7122D01*
X149894Y7192D01*
X149852Y7261D01*
X149815Y7321D01*
X149778Y7376D01*
X149746Y7432D01*
X149713Y7478D01*
X149681Y7520D01*
X149653Y7557D01*
X149626Y7589D01*
X149602Y7617D01*
X149584Y7640D01*
X149570Y7658D01*
X149556Y7672D01*
X149552Y7677D01*
X149547Y7681D01*
X149464Y7760D01*
X149381Y7834D01*
X149293Y7908D01*
X149205Y7973D01*
X149020Y8088D01*
X148835Y8190D01*
X148645Y8273D01*
X148456Y8347D01*
X148271Y8403D01*
X148095Y8449D01*
X147929Y8486D01*
X147776Y8514D01*
X147703Y8523D01*
X147638Y8532D01*
X147573Y8541D01*
X147518Y8546D01*
X147462Y8551D01*
X147416Y8555D01*
X147379D01*
X147346Y8560D01*
X150398D01*
D02*
G37*
G36*
X161996Y8454D02*
X156911D01*
Y2056D01*
Y7372D01*
X158811D01*
Y2056D01*
X156911D01*
X160101D01*
Y7372D01*
X161996D01*
Y8454D01*
D02*
G37*
%LPD*%
G36*
X156278Y1940D02*
X153717D01*
X153869Y1945D01*
X154017Y1949D01*
X154156Y1963D01*
X154285Y1977D01*
X154405Y1996D01*
X154521Y2014D01*
X154627Y2033D01*
X154725Y2056D01*
X154808Y2079D01*
X154886Y2097D01*
X154951Y2116D01*
X155002Y2134D01*
X155048Y2148D01*
X155080Y2162D01*
X155099Y2166D01*
X155104Y2171D01*
X155205Y2217D01*
X155302Y2268D01*
X155390Y2324D01*
X155473Y2384D01*
X155552Y2439D01*
X155621Y2499D01*
X155686Y2560D01*
X155746Y2615D01*
X155797Y2670D01*
X155843Y2721D01*
X155880Y2767D01*
X155913Y2804D01*
X155936Y2837D01*
X155954Y2865D01*
X155963Y2878D01*
X155968Y2883D01*
X156024Y2975D01*
X156070Y3063D01*
X156111Y3156D01*
X156148Y3248D01*
X156176Y3336D01*
X156204Y3419D01*
X156222Y3503D01*
X156241Y3581D01*
X156250Y3650D01*
X156259Y3715D01*
X156269Y3771D01*
X156273Y3821D01*
X156278Y3859D01*
Y1940D01*
D02*
G37*
G36*
X141827Y2056D02*
X139294D01*
Y4852D01*
X141827D01*
Y2056D01*
D02*
G37*
G36*
X147444Y7450D02*
X147582Y7432D01*
X147712Y7404D01*
X147832Y7372D01*
X147948Y7330D01*
X148054Y7284D01*
X148151Y7233D01*
X148239Y7187D01*
X148317Y7136D01*
X148387Y7085D01*
X148442Y7039D01*
X148493Y6997D01*
X148530Y6965D01*
X148558Y6937D01*
X148576Y6919D01*
X148581Y6914D01*
X148669Y6808D01*
X148743Y6688D01*
X148807Y6563D01*
X148863Y6429D01*
X148909Y6295D01*
X148946Y6156D01*
X148978Y6022D01*
X149006Y5893D01*
X149025Y5768D01*
X149038Y5652D01*
X149052Y5546D01*
X149057Y5453D01*
X149062Y5412D01*
Y5379D01*
X149066Y5347D01*
Y5319D01*
Y5301D01*
Y5287D01*
Y5278D01*
Y5273D01*
X149062Y5070D01*
X149043Y4880D01*
X149020Y4705D01*
X148988Y4543D01*
X148951Y4395D01*
X148909Y4256D01*
X148863Y4131D01*
X148817Y4020D01*
X148770Y3923D01*
X148724Y3840D01*
X148682Y3766D01*
X148645Y3711D01*
X148613Y3664D01*
X148590Y3632D01*
X148572Y3609D01*
X148567Y3604D01*
X148470Y3507D01*
X148368Y3419D01*
X148266Y3345D01*
X148160Y3285D01*
X148054Y3230D01*
X147948Y3184D01*
X147846Y3147D01*
X147744Y3119D01*
X147652Y3096D01*
X147568Y3077D01*
X147490Y3068D01*
X147425Y3059D01*
X147370Y3054D01*
X147328Y3049D01*
X147296D01*
X147152Y3054D01*
X147018Y3073D01*
X146894Y3100D01*
X146769Y3137D01*
X146658Y3179D01*
X146551Y3225D01*
X146454Y3276D01*
X146367Y3331D01*
X146288Y3382D01*
X146219Y3433D01*
X146159Y3479D01*
X146112Y3521D01*
X146071Y3558D01*
X146043Y3586D01*
X146024Y3604D01*
X146020Y3609D01*
X145932Y3720D01*
X145853Y3840D01*
X145789Y3969D01*
X145733Y4103D01*
X145682Y4238D01*
X145641Y4376D01*
X145608Y4510D01*
X145585Y4640D01*
X145562Y4765D01*
X145548Y4880D01*
X145534Y4987D01*
X145530Y5074D01*
X145525Y5153D01*
X145520Y5181D01*
Y5208D01*
Y5227D01*
Y5241D01*
Y5250D01*
Y5255D01*
X145525Y5453D01*
X145544Y5643D01*
X145567Y5819D01*
X145595Y5980D01*
X145632Y6128D01*
X145673Y6262D01*
X145719Y6382D01*
X145765Y6493D01*
X145807Y6591D01*
X145853Y6674D01*
X145895Y6743D01*
X145932Y6803D01*
X145960Y6849D01*
X145987Y6877D01*
X146001Y6900D01*
X146006Y6905D01*
X146103Y7002D01*
X146200Y7085D01*
X146306Y7159D01*
X146413Y7224D01*
X146524Y7275D01*
X146630Y7321D01*
X146736Y7358D01*
X146833Y7386D01*
X146931Y7409D01*
X147018Y7427D01*
X147097Y7437D01*
X147162Y7446D01*
X147217Y7450D01*
X147259Y7455D01*
X147296D01*
X147444Y7450D01*
D02*
G37*
%LPC*%
G36*
X298308Y208839D02*
Y206648D01*
X298303Y206750D01*
X298299Y206852D01*
X298271Y207041D01*
X298229Y207221D01*
X298174Y207388D01*
X298114Y207540D01*
X298040Y207684D01*
X297966Y207813D01*
X297882Y207929D01*
X297804Y208030D01*
X297730Y208123D01*
X297656Y208201D01*
X297596Y208261D01*
X297540Y208312D01*
X297499Y208349D01*
X297471Y208368D01*
X297462Y208377D01*
X297342Y208460D01*
X297222Y208530D01*
X297101Y208590D01*
X296981Y208645D01*
X296861Y208691D01*
X296745Y208728D01*
X296630Y208756D01*
X296523Y208784D01*
X296426Y208802D01*
X296334Y208816D01*
X296255Y208825D01*
X296186Y208830D01*
X296131Y208835D01*
X296089Y208839D01*
X296052D01*
X295876Y208835D01*
X295714Y208816D01*
X295557Y208788D01*
X295409Y208751D01*
X295275Y208710D01*
X295146Y208659D01*
X295030Y208608D01*
X294924Y208557D01*
X294832Y208502D01*
X294748Y208451D01*
X294674Y208405D01*
X294614Y208358D01*
X294568Y208321D01*
X294536Y208294D01*
X294513Y208275D01*
X294508Y208271D01*
X294401Y208160D01*
X294309Y208049D01*
X294230Y207933D01*
X294161Y207813D01*
X294106Y207698D01*
X294055Y207582D01*
X294018Y207471D01*
X293986Y207365D01*
X293962Y207267D01*
X293944Y207175D01*
X293930Y207097D01*
X293921Y207022D01*
X293916Y206967D01*
X293911Y206925D01*
Y206810D01*
X293921Y206731D01*
X293944Y206574D01*
X293976Y206435D01*
X293995Y206366D01*
X294013Y206306D01*
X294036Y206250D01*
X294055Y206200D01*
X294073Y206158D01*
X294087Y206117D01*
X294101Y206089D01*
X294110Y206066D01*
X294115Y206052D01*
X294120Y206047D01*
X293029Y206246D01*
Y208557D01*
X291882D01*
Y205317D01*
X295210Y204688D01*
X295354Y205677D01*
X295271Y205756D01*
X295201Y205839D01*
X295137Y205922D01*
X295086Y206001D01*
X295040Y206084D01*
X295002Y206163D01*
X294970Y206237D01*
X294947Y206311D01*
X294924Y206375D01*
X294910Y206435D01*
X294901Y206491D01*
X294896Y206537D01*
X294892Y206574D01*
X294887Y206602D01*
Y206625D01*
X294892Y206703D01*
X294901Y206777D01*
X294915Y206842D01*
X294933Y206912D01*
X294979Y207027D01*
X295007Y207078D01*
X295035Y207124D01*
X295063Y207166D01*
X295090Y207203D01*
X295114Y207235D01*
X295137Y207263D01*
X295155Y207281D01*
X295169Y207295D01*
X295178Y207304D01*
X295183Y207309D01*
X295243Y207355D01*
X295308Y207397D01*
X295372Y207434D01*
X295446Y207466D01*
X295520Y207489D01*
X295594Y207512D01*
X295737Y207545D01*
X295807Y207554D01*
X295867Y207563D01*
X295922Y207568D01*
X295973Y207573D01*
X296015Y207577D01*
X296043D01*
X296066D01*
X296070D01*
X296186Y207573D01*
X296292Y207568D01*
X296394Y207554D01*
X296486Y207536D01*
X296570Y207517D01*
X296648Y207494D01*
X296718Y207466D01*
X296782Y207443D01*
X296838Y207420D01*
X296884Y207392D01*
X296926Y207369D01*
X296958Y207351D01*
X296986Y207332D01*
X297004Y207323D01*
X297013Y207314D01*
X297018Y207309D01*
X297073Y207258D01*
X297120Y207207D01*
X297161Y207152D01*
X297198Y207097D01*
X297226Y207041D01*
X297254Y206990D01*
X297291Y206889D01*
X297309Y206796D01*
X297318Y206759D01*
X297323Y206727D01*
X297328Y206699D01*
Y206662D01*
X297323Y206602D01*
X297318Y206542D01*
X297291Y206426D01*
X297254Y206325D01*
X297208Y206237D01*
X297161Y206167D01*
X297143Y206135D01*
X297124Y206112D01*
X297111Y206093D01*
X297097Y206080D01*
X297092Y206070D01*
X297087Y206066D01*
X297041Y206019D01*
X296990Y205978D01*
X296884Y205913D01*
X296773Y205858D01*
X296667Y205816D01*
X296574Y205788D01*
X296533Y205779D01*
X296500Y205774D01*
X296473Y205765D01*
X296449D01*
X296436Y205760D01*
X296431D01*
X296560Y204540D01*
D01*
X296708Y204563D01*
X296842Y204600D01*
X296976Y204642D01*
X297097Y204688D01*
X297212Y204743D01*
X297314Y204799D01*
X297411Y204854D01*
X297499Y204914D01*
X297577Y204970D01*
X297642Y205026D01*
X297702Y205072D01*
X297749Y205118D01*
X297785Y205155D01*
X297813Y205183D01*
X297832Y205201D01*
X297836Y205206D01*
X297920Y205312D01*
X297994Y205428D01*
X298054Y205548D01*
X298109Y205668D01*
X298155Y205788D01*
X298192Y205908D01*
X298225Y206024D01*
X298248Y206135D01*
X298266Y206241D01*
X298285Y206338D01*
X298294Y206426D01*
X298299Y206500D01*
X298303Y206565D01*
X298308Y206611D01*
Y205908D01*
Y208839D01*
D02*
G37*
G36*
X298197Y203458D02*
X291799D01*
Y202169D01*
X294318D01*
Y199635D01*
X291799D01*
Y198346D01*
X298197D01*
Y203458D01*
D02*
G37*
G36*
X296246Y197231D02*
X296241D01*
X295844Y195979D01*
X295973Y195946D01*
X296094Y195909D01*
X296200Y195868D01*
X296306Y195826D01*
X296399Y195784D01*
X296482Y195738D01*
X296560Y195692D01*
X296625Y195650D01*
X296685Y195609D01*
X296736Y195572D01*
X296782Y195535D01*
X296815Y195502D01*
X296842Y195479D01*
X296866Y195461D01*
X296875Y195447D01*
X296879Y195442D01*
X296935Y195373D01*
X296986Y195299D01*
X297027Y195225D01*
X297064Y195147D01*
X297097Y195073D01*
X297124Y194999D01*
X297148Y194929D01*
X297161Y194865D01*
X297175Y194800D01*
X297185Y194740D01*
X297194Y194689D01*
X297198Y194647D01*
X297203Y194610D01*
Y194559D01*
X297198Y194430D01*
X297180Y194310D01*
X297157Y194194D01*
X297124Y194088D01*
X297083Y193986D01*
X297041Y193894D01*
X296995Y193811D01*
X296944Y193732D01*
X296898Y193663D01*
X296852Y193603D01*
X296810Y193547D01*
X296768Y193505D01*
X296736Y193473D01*
X296713Y193445D01*
X296695Y193431D01*
X296690Y193427D01*
X296583Y193348D01*
X296468Y193284D01*
X296339Y193223D01*
X296204Y193177D01*
X296061Y193136D01*
X295918Y193099D01*
X295774Y193071D01*
X295636Y193048D01*
X295502Y193029D01*
X295377Y193015D01*
X295261Y193006D01*
X295164Y193002D01*
X295118Y192997D01*
X295081D01*
X295049Y192992D01*
X295016D01*
X294998D01*
X294979D01*
X294970D01*
X294965D01*
X294757Y192997D01*
X294563Y193011D01*
X294388Y193034D01*
X294221Y193062D01*
X294073Y193094D01*
X293939Y193131D01*
X293814Y193173D01*
X293708Y193214D01*
X293611Y193251D01*
X293533Y193293D01*
X293463Y193330D01*
X293408Y193362D01*
X293366Y193390D01*
X293334Y193413D01*
X293315Y193427D01*
X293311Y193431D01*
X293218Y193519D01*
X293139Y193607D01*
X293075Y193704D01*
X293015Y193797D01*
X292964Y193894D01*
X292922Y193991D01*
X292890Y194083D01*
X292862Y194176D01*
X292839Y194259D01*
X292825Y194338D01*
X292811Y194407D01*
X292807Y194467D01*
X292802Y194513D01*
X292797Y194550D01*
Y194583D01*
X292802Y194680D01*
X292811Y194767D01*
X292825Y194855D01*
X292844Y194939D01*
X292867Y195012D01*
X292890Y195086D01*
X292918Y195151D01*
X292941Y195216D01*
X292969Y195267D01*
X292996Y195318D01*
X293019Y195359D01*
X293042Y195392D01*
X293061Y195419D01*
X293075Y195442D01*
X293084Y195452D01*
X293089Y195456D01*
X293144Y195521D01*
X293204Y195581D01*
X293269Y195637D01*
X293334Y195683D01*
X293398Y195724D01*
X293463Y195766D01*
X293588Y195831D01*
X293643Y195854D01*
X293699Y195877D01*
X293745Y195895D01*
X293787Y195909D01*
X293824Y195919D01*
X293847Y195928D01*
X293865Y195932D01*
X293870D01*
X293565Y197213D01*
X293426Y197171D01*
X293292Y197120D01*
X293172Y197070D01*
X293056Y197019D01*
X292955Y196963D01*
X292857Y196908D01*
X292770Y196852D01*
X292691Y196801D01*
X292622Y196751D01*
X292562Y196704D01*
X292506Y196663D01*
X292465Y196626D01*
X292432Y196598D01*
X292409Y196575D01*
X292395Y196561D01*
X292391Y196556D01*
X292266Y196413D01*
X292160Y196265D01*
X292067Y196108D01*
X291988Y195951D01*
X291919Y195789D01*
X291864Y195632D01*
X291817Y195475D01*
X291780Y195327D01*
X291753Y195188D01*
X291730Y195059D01*
X291716Y194948D01*
X291702Y194846D01*
Y194804D01*
X291697Y194763D01*
Y194730D01*
X291693Y194703D01*
Y194652D01*
X291697Y194527D01*
X291702Y194407D01*
X291730Y194171D01*
X291776Y193954D01*
X291831Y193746D01*
X291896Y193552D01*
X291975Y193376D01*
X292053Y193210D01*
X292136Y193062D01*
X292220Y192932D01*
X292298Y192817D01*
X292372Y192715D01*
X292442Y192632D01*
X292497Y192567D01*
X292543Y192521D01*
X292557Y192507D01*
X292571Y192493D01*
X292575Y192488D01*
X292580Y192484D01*
X292663Y192410D01*
X292751Y192341D01*
X292941Y192211D01*
X293135Y192105D01*
X293338Y192008D01*
X293546Y191929D01*
X293750Y191860D01*
X293953Y191809D01*
X294152Y191763D01*
X294337Y191730D01*
X294508Y191703D01*
X294587Y191693D01*
X294660Y191684D01*
X294730Y191679D01*
X294795Y191675D01*
X294855Y191670D01*
X294905Y191666D01*
X294952D01*
X294989Y191661D01*
X295058D01*
X295197Y191666D01*
X295335Y191670D01*
X295594Y191698D01*
X295839Y191735D01*
X296066Y191790D01*
X296278Y191850D01*
X296477Y191920D01*
X296653Y191994D01*
X296815Y192072D01*
X296958Y192146D01*
X297083Y192220D01*
X297138Y192257D01*
X297189Y192290D01*
X297235Y192322D01*
X297277Y192350D01*
X297314Y192377D01*
X297346Y192405D01*
X297374Y192424D01*
X297397Y192442D01*
X297416Y192461D01*
X297430Y192470D01*
X297434Y192479D01*
X297439D01*
X297517Y192558D01*
X297591Y192636D01*
X297661Y192720D01*
X297725Y192803D01*
X297841Y192978D01*
X297943Y193150D01*
X298026Y193330D01*
X298095Y193501D01*
X298155Y193672D01*
X298197Y193834D01*
X298234Y193986D01*
X298262Y194125D01*
X298280Y194254D01*
X298289Y194310D01*
X298294Y194361D01*
X298299Y194407D01*
X298303Y194449D01*
Y194485D01*
X298308Y194518D01*
Y194573D01*
X298303Y194763D01*
X298285Y194943D01*
X298262Y195114D01*
X298229Y195271D01*
X298188Y195424D01*
X298146Y195563D01*
X298100Y195692D01*
X298054Y195808D01*
X298007Y195914D01*
X297961Y196006D01*
X297915Y196085D01*
X297878Y196150D01*
X297845Y196201D01*
X297822Y196238D01*
X297804Y196261D01*
X297799Y196270D01*
X297698Y196390D01*
X297587Y196506D01*
X297467Y196607D01*
X297342Y196704D01*
X297212Y196792D01*
X297083Y196871D01*
X296953Y196940D01*
X296828Y197000D01*
X296713Y197056D01*
X296602Y197102D01*
X296500Y197144D01*
X296413Y197176D01*
X296343Y197199D01*
X296311Y197208D01*
X296288Y197218D01*
X296269Y197222D01*
X296255Y197227D01*
X296246Y197231D01*
D02*
G37*
%LPD*%
G36*
X298197Y199635D02*
X295400D01*
Y202169D01*
X298197D01*
Y199635D01*
D02*
G37*
%LPC*%
G36*
X8308Y208250D02*
D01*
Y205259D01*
X8303Y205384D01*
X8298Y205504D01*
X8271Y205740D01*
X8224Y205957D01*
X8169Y206165D01*
X8104Y206359D01*
X8026Y206535D01*
X7947Y206701D01*
X7864Y206849D01*
X7781Y206979D01*
X7702Y207094D01*
X7628Y207196D01*
X7559Y207279D01*
X7503Y207344D01*
X7457Y207390D01*
X7443Y207404D01*
X7429Y207418D01*
X7425Y207422D01*
X7420Y207427D01*
X7337Y207501D01*
X7249Y207570D01*
X7059Y207700D01*
X6865Y207806D01*
X6662Y207903D01*
X6454Y207982D01*
X6250Y208051D01*
X6047Y208102D01*
X5848Y208148D01*
X5663Y208181D01*
X5492Y208208D01*
X5414Y208218D01*
X5340Y208227D01*
X5270Y208231D01*
X5206Y208236D01*
X5146Y208241D01*
X5095Y208245D01*
X5048D01*
X5012Y208250D01*
X8308D01*
X4942D01*
X4803Y208245D01*
X4665Y208241D01*
X4406Y208213D01*
X4161Y208176D01*
X3934Y208120D01*
X3722Y208060D01*
X3523Y207991D01*
X3347Y207917D01*
X3185Y207838D01*
X3042Y207764D01*
X2917Y207691D01*
X2862Y207654D01*
X2811Y207621D01*
X2765Y207589D01*
X2723Y207561D01*
X2686Y207533D01*
X2654Y207506D01*
X2626Y207487D01*
X2603Y207469D01*
X2585Y207450D01*
X2571Y207441D01*
X2566Y207432D01*
X2561D01*
X2483Y207353D01*
X2409Y207274D01*
X2340Y207191D01*
X2275Y207108D01*
X2159Y206932D01*
X2058Y206761D01*
X1974Y206581D01*
X1905Y206410D01*
X1845Y206239D01*
X1803Y206077D01*
X1766Y205925D01*
X1739Y205786D01*
X1720Y205657D01*
X1711Y205601D01*
X1706Y205550D01*
X1702Y205504D01*
X1697Y205462D01*
Y205425D01*
X1692Y205393D01*
Y205338D01*
X1697Y205148D01*
X1716Y204968D01*
X1739Y204797D01*
X1771Y204639D01*
X1813Y204487D01*
X1854Y204348D01*
X1900Y204219D01*
X1947Y204103D01*
X1993Y203997D01*
X2039Y203904D01*
X2085Y203826D01*
X2122Y203761D01*
X2155Y203710D01*
X2178Y203673D01*
X2196Y203650D01*
X2201Y203641D01*
X2303Y203521D01*
X2413Y203405D01*
X2534Y203304D01*
X2659Y203206D01*
X2788Y203119D01*
X2917Y203040D01*
X3047Y202971D01*
X3172Y202910D01*
X3287Y202855D01*
X3398Y202809D01*
X3500Y202767D01*
X3588Y202735D01*
X3657Y202712D01*
X3689Y202703D01*
X3713Y202693D01*
X3731Y202689D01*
X3745Y202684D01*
X3754Y202679D01*
X3759D01*
X4156Y203932D01*
X4027Y203965D01*
X3907Y204002D01*
X3800Y204043D01*
X3694Y204085D01*
X3602Y204126D01*
X3518Y204173D01*
X3440Y204219D01*
X3375Y204260D01*
X3315Y204302D01*
X3264Y204339D01*
X3218Y204376D01*
X3185Y204408D01*
X3158Y204431D01*
X3135Y204450D01*
X3125Y204464D01*
X3121Y204468D01*
X3065Y204538D01*
X3015Y204612D01*
X2973Y204686D01*
X2936Y204764D01*
X2903Y204838D01*
X2876Y204912D01*
X2853Y204982D01*
X2839Y205046D01*
X2825Y205111D01*
X2816Y205171D01*
X2806Y205222D01*
X2802Y205264D01*
X2797Y205301D01*
Y205351D01*
X2802Y205481D01*
X2820Y205601D01*
X2843Y205717D01*
X2876Y205823D01*
X2917Y205925D01*
X2959Y206017D01*
X3005Y206100D01*
X3056Y206179D01*
X3102Y206248D01*
X3149Y206308D01*
X3190Y206364D01*
X3232Y206405D01*
X3264Y206438D01*
X3287Y206465D01*
X3306Y206479D01*
X3310Y206484D01*
X3417Y206563D01*
X3532Y206627D01*
X3662Y206687D01*
X3796Y206734D01*
X3939Y206775D01*
X4082Y206812D01*
X4226Y206840D01*
X4364Y206863D01*
X4498Y206882D01*
X4623Y206895D01*
X4739Y206905D01*
X4836Y206909D01*
X4882Y206914D01*
X4919D01*
X4951Y206919D01*
X4984D01*
X5002D01*
X5021D01*
X5030D01*
X5035D01*
X5243Y206914D01*
X5437Y206900D01*
X5612Y206877D01*
X5779Y206849D01*
X5927Y206817D01*
X6061Y206780D01*
X6186Y206738D01*
X6292Y206697D01*
X6389Y206660D01*
X6468Y206618D01*
X6537Y206581D01*
X6593Y206549D01*
X6634Y206521D01*
X6666Y206498D01*
X6685Y206484D01*
X6690Y206479D01*
X6782Y206392D01*
X6861Y206304D01*
X6925Y206207D01*
X6985Y206114D01*
X7036Y206017D01*
X7078Y205920D01*
X7110Y205828D01*
X7138Y205735D01*
X7161Y205652D01*
X7175Y205573D01*
X7189Y205504D01*
X7193Y205444D01*
X7198Y205398D01*
X7203Y205361D01*
Y205328D01*
X7198Y205231D01*
X7189Y205143D01*
X7175Y205056D01*
X7157Y204972D01*
X7133Y204898D01*
X7110Y204824D01*
X7082Y204760D01*
X7059Y204695D01*
X7032Y204644D01*
X7004Y204593D01*
X6981Y204552D01*
X6958Y204519D01*
X6939Y204492D01*
X6925Y204468D01*
X6916Y204459D01*
X6912Y204455D01*
X6856Y204390D01*
X6796Y204330D01*
X6731Y204274D01*
X6666Y204228D01*
X6602Y204186D01*
X6537Y204145D01*
X6412Y204080D01*
X6357Y204057D01*
X6301Y204034D01*
X6255Y204015D01*
X6213Y204002D01*
X6176Y203992D01*
X6153Y203983D01*
X6135Y203978D01*
X6130D01*
X6435Y202698D01*
X6574Y202740D01*
X6708Y202790D01*
X6828Y202841D01*
X6944Y202892D01*
X7046Y202948D01*
X7143Y203003D01*
X7230Y203058D01*
X7309Y203109D01*
X7378Y203160D01*
X7438Y203206D01*
X7494Y203248D01*
X7536Y203285D01*
X7568Y203313D01*
X7591Y203336D01*
X7605Y203350D01*
X7610Y203354D01*
X7734Y203498D01*
X7841Y203646D01*
X7933Y203803D01*
X8012Y203960D01*
X8081Y204122D01*
X8137Y204279D01*
X8183Y204436D01*
X8220Y204584D01*
X8248Y204723D01*
X8271Y204852D01*
X8285Y204963D01*
X8298Y205065D01*
Y205106D01*
X8303Y205148D01*
Y205180D01*
X8308Y205208D01*
Y202679D01*
D01*
Y208250D01*
D02*
G37*
G36*
X8201Y201565D02*
X1803D01*
Y200275D01*
X4600D01*
Y197742D01*
X1803D01*
Y196453D01*
X8201D01*
Y201565D01*
D02*
G37*
G36*
X8224Y195061D02*
D01*
Y193249D01*
X8118Y193291D01*
X8012Y193341D01*
X7910Y193397D01*
X7818Y193457D01*
X7725Y193522D01*
X7642Y193586D01*
X7563Y193651D01*
X7489Y193711D01*
X7425Y193776D01*
X7369Y193831D01*
X7318Y193882D01*
X7277Y193928D01*
X7244Y193965D01*
X7217Y193998D01*
X7203Y194016D01*
X7198Y194021D01*
X7120Y194127D01*
X7046Y194229D01*
X6981Y194326D01*
X6921Y194423D01*
X6865Y194511D01*
X6819Y194599D01*
X6777Y194677D01*
X6736Y194751D01*
X6704Y194821D01*
X6676Y194881D01*
X6657Y194932D01*
X6639Y194978D01*
X6625Y195015D01*
X6616Y195038D01*
X6606Y195056D01*
Y195061D01*
X1803D01*
X5492D01*
X5552Y194895D01*
X5617Y194733D01*
X5691Y194576D01*
X5765Y194428D01*
X5839Y194289D01*
X5918Y194160D01*
X5996Y194039D01*
X6070Y193928D01*
X6140Y193827D01*
X6209Y193739D01*
X6269Y193660D01*
X6320Y193596D01*
X6361Y193545D01*
X6394Y193508D01*
X6412Y193485D01*
X6421Y193475D01*
X1803D01*
Y192250D01*
X8224D01*
Y195061D01*
D02*
G37*
%LPD*%
G36*
X8201Y197742D02*
X5682D01*
Y200275D01*
X8201D01*
Y197742D01*
D02*
G37*
%LPC*%
G36*
X238359Y298447D02*
X237171D01*
Y297162D01*
X236376D01*
Y298447D01*
D01*
Y292026D01*
D01*
Y296089D01*
X237171D01*
Y292026D01*
X236376D01*
X238202D01*
X240976Y296094D01*
Y297162D01*
X238359D01*
Y298447D01*
D02*
G37*
G36*
X246939D02*
X245650D01*
Y295650D01*
X243116D01*
Y298447D01*
X241826D01*
Y292049D01*
X246939D01*
Y298447D01*
D02*
G37*
G36*
X253624Y298558D02*
X248053D01*
Y291943D01*
D01*
Y296491D01*
X249306Y296094D01*
X249338Y296223D01*
X249375Y296343D01*
X249417Y296450D01*
X249459Y296556D01*
X249500Y296649D01*
X249547Y296732D01*
X249593Y296810D01*
X249634Y296875D01*
X249676Y296935D01*
X249713Y296986D01*
X249750Y297032D01*
X249782Y297065D01*
X249805Y297092D01*
X249824Y297115D01*
X249838Y297125D01*
X249842Y297129D01*
X249912Y297185D01*
X249986Y297236D01*
X250060Y297277D01*
X250138Y297314D01*
X250212Y297347D01*
X250286Y297374D01*
X250355Y297397D01*
X250420Y297411D01*
X250485Y297425D01*
X250545Y297434D01*
X250596Y297444D01*
X250637Y297448D01*
X250674Y297453D01*
X250725D01*
X250855Y297448D01*
X250975Y297430D01*
X251091Y297407D01*
X251197Y297374D01*
X251299Y297333D01*
X251391Y297291D01*
X251474Y297245D01*
X251553Y297194D01*
X251622Y297148D01*
X251682Y297102D01*
X251738Y297060D01*
X251779Y297018D01*
X251812Y296986D01*
X251840Y296963D01*
X251853Y296944D01*
X251858Y296940D01*
X251936Y296833D01*
X252001Y296718D01*
X252061Y296588D01*
X252108Y296454D01*
X252149Y296311D01*
X252186Y296168D01*
X252214Y296024D01*
X252237Y295886D01*
X252255Y295752D01*
X252269Y295627D01*
X252279Y295511D01*
X252283Y295414D01*
X252288Y295368D01*
Y295331D01*
X252292Y295299D01*
Y295266D01*
Y295248D01*
Y295229D01*
Y295220D01*
Y295215D01*
X252288Y295007D01*
X252274Y294813D01*
X252251Y294638D01*
X252223Y294471D01*
X252191Y294323D01*
X252154Y294189D01*
X252112Y294064D01*
X252071Y293958D01*
X252034Y293861D01*
X251992Y293782D01*
X251955Y293713D01*
X251923Y293658D01*
X251895Y293616D01*
X251872Y293584D01*
X251858Y293565D01*
X251853Y293561D01*
X251765Y293468D01*
X251678Y293389D01*
X251581Y293325D01*
X251488Y293265D01*
X251391Y293214D01*
X251294Y293172D01*
X251201Y293140D01*
X251109Y293112D01*
X251026Y293089D01*
X250947Y293075D01*
X250878Y293061D01*
X250818Y293057D01*
X250772Y293052D01*
X250735Y293047D01*
X250702D01*
X250605Y293052D01*
X250517Y293061D01*
X250429Y293075D01*
X250346Y293094D01*
X250272Y293117D01*
X250198Y293140D01*
X250134Y293168D01*
X250069Y293191D01*
X250018Y293218D01*
X249967Y293246D01*
X249926Y293269D01*
X249893Y293292D01*
X249865Y293311D01*
X249842Y293325D01*
X249833Y293334D01*
X249828Y293339D01*
X249764Y293394D01*
X249704Y293454D01*
X249648Y293519D01*
X249602Y293584D01*
X249560Y293648D01*
X249519Y293713D01*
X249454Y293838D01*
X249431Y293893D01*
X249408Y293949D01*
X249389Y293995D01*
X249375Y294037D01*
X249366Y294074D01*
X249357Y294097D01*
X249352Y294115D01*
Y294120D01*
X248072Y293815D01*
X248113Y293676D01*
X248164Y293542D01*
X248215Y293422D01*
X248266Y293306D01*
X248321Y293204D01*
X248377Y293107D01*
X248432Y293020D01*
X248483Y292941D01*
X248534Y292872D01*
X248580Y292812D01*
X248622Y292756D01*
X248659Y292715D01*
X248687Y292682D01*
X248710Y292659D01*
X248724Y292645D01*
X248728Y292641D01*
X248872Y292516D01*
X249020Y292409D01*
X249177Y292317D01*
X249334Y292238D01*
X249496Y292169D01*
X249653Y292114D01*
X249810Y292067D01*
X249958Y292030D01*
X250097Y292003D01*
X250226Y291980D01*
X250337Y291966D01*
X250439Y291952D01*
X250480D01*
X250522Y291947D01*
X250554D01*
X250582Y291943D01*
X250633D01*
X253624D01*
X250633D01*
X250758Y291947D01*
X250878Y291952D01*
X251114Y291980D01*
X251331Y292026D01*
X251539Y292081D01*
X251733Y292146D01*
X251909Y292225D01*
X252075Y292303D01*
X252223Y292386D01*
X252353Y292470D01*
X252468Y292548D01*
X252570Y292622D01*
X252653Y292691D01*
X252718Y292747D01*
X252764Y292793D01*
X252778Y292807D01*
X252792Y292821D01*
X252796Y292826D01*
X252801Y292830D01*
X252875Y292913D01*
X252944Y293001D01*
X253074Y293191D01*
X253180Y293385D01*
X253277Y293588D01*
X253356Y293796D01*
X253425Y294000D01*
X253476Y294203D01*
X253522Y294402D01*
X253554Y294587D01*
X253582Y294758D01*
X253591Y294836D01*
X253601Y294910D01*
X253605Y294980D01*
X253610Y295044D01*
X253615Y295105D01*
X253619Y295155D01*
Y295202D01*
X253624Y295239D01*
Y295308D01*
X253619Y295447D01*
X253615Y295585D01*
X253587Y295844D01*
X253550Y296089D01*
X253494Y296316D01*
X253434Y296528D01*
X253365Y296727D01*
X253291Y296903D01*
X253212Y297065D01*
X253139Y297208D01*
X253064Y297333D01*
X253027Y297388D01*
X252995Y297439D01*
X252963Y297485D01*
X252935Y297527D01*
X252907Y297564D01*
X252880Y297596D01*
X252861Y297624D01*
X252843Y297647D01*
X252824Y297666D01*
X252815Y297679D01*
X252806Y297684D01*
Y297689D01*
X252727Y297767D01*
X252648Y297841D01*
X252565Y297911D01*
X252482Y297975D01*
X252306Y298091D01*
X252135Y298193D01*
X251955Y298276D01*
X251784Y298345D01*
X251613Y298405D01*
X251451Y298447D01*
X251299Y298484D01*
X251160Y298512D01*
X251031Y298530D01*
X250975Y298539D01*
X250924Y298544D01*
X250878Y298549D01*
X250836Y298553D01*
X250799D01*
X250767Y298558D01*
X253624D01*
D02*
G37*
%LPD*%
G36*
X250633Y291943D02*
D01*
D01*
D01*
D02*
G37*
G36*
X238359Y293907D02*
Y296089D01*
X239829D01*
X238359Y293907D01*
D02*
G37*
G36*
X245650Y292049D02*
X243116D01*
Y294568D01*
X245650D01*
Y292049D01*
D02*
G37*
G36*
X250522Y298553D02*
X250342Y298535D01*
X250171Y298512D01*
X250013Y298479D01*
X249861Y298438D01*
X249722Y298396D01*
X249593Y298350D01*
X249477Y298304D01*
X249371Y298257D01*
X249278Y298211D01*
X249200Y298165D01*
X249135Y298128D01*
X249084Y298095D01*
X249047Y298072D01*
X249024Y298054D01*
X249015Y298049D01*
X248895Y297948D01*
X248779Y297837D01*
X248678Y297716D01*
X248580Y297592D01*
X248493Y297462D01*
X248414Y297333D01*
X248345Y297203D01*
X248284Y297078D01*
X248229Y296963D01*
X248183Y296852D01*
X248141Y296750D01*
X248109Y296662D01*
X248086Y296593D01*
X248076Y296561D01*
X248067Y296538D01*
X248063Y296519D01*
X248058Y296505D01*
X248053Y296496D01*
Y298558D01*
X250711D01*
X250522Y298553D01*
D02*
G37*
%LPC*%
G36*
X63501Y294402D02*
Y294337D01*
D01*
Y294402D01*
D02*
G37*
G36*
Y294041D02*
Y294037D01*
D01*
Y294041D01*
D02*
G37*
G36*
X50798Y298447D02*
X46499D01*
Y294628D01*
Y297310D01*
X48939D01*
X48903Y297250D01*
X48861Y297189D01*
X48819Y297129D01*
X48778Y297078D01*
X48745Y297037D01*
X48713Y297000D01*
X48695Y296981D01*
X48690Y296972D01*
X48657Y296935D01*
X48611Y296889D01*
X48565Y296843D01*
X48510Y296787D01*
X48385Y296672D01*
X48260Y296551D01*
X48200Y296496D01*
X48144Y296441D01*
X48089Y296394D01*
X48043Y296353D01*
X48006Y296316D01*
X47973Y296288D01*
X47955Y296269D01*
X47950Y296265D01*
X47844Y296168D01*
X47747Y296075D01*
X47659Y295992D01*
X47580Y295914D01*
X47506Y295840D01*
X47442Y295770D01*
X47382Y295710D01*
X47331Y295655D01*
X47285Y295608D01*
X47248Y295567D01*
X47215Y295530D01*
X47188Y295497D01*
X47169Y295474D01*
X47155Y295460D01*
X47151Y295451D01*
X47146Y295447D01*
X47030Y295289D01*
X46929Y295142D01*
X46845Y295003D01*
X46808Y294938D01*
X46776Y294878D01*
X46748Y294827D01*
X46725Y294776D01*
X46702Y294735D01*
X46684Y294702D01*
X46674Y294670D01*
X46665Y294652D01*
X46656Y294638D01*
Y294633D01*
X46605Y294485D01*
X46563Y294337D01*
X46536Y294198D01*
X46517Y294074D01*
X46513Y294018D01*
X46508Y293967D01*
X46503Y293921D01*
X46499Y293884D01*
Y293893D01*
Y293810D01*
X46503Y293671D01*
X46522Y293537D01*
X46550Y293408D01*
X46582Y293288D01*
X46624Y293177D01*
X46670Y293071D01*
X46721Y292978D01*
X46771Y292890D01*
X46822Y292812D01*
X46873Y292738D01*
X46919Y292682D01*
X46961Y292631D01*
X46993Y292590D01*
X47021Y292562D01*
X47040Y292544D01*
X47044Y292539D01*
X47151Y292446D01*
X47261Y292368D01*
X47382Y292303D01*
X47506Y292243D01*
X47627Y292192D01*
X47751Y292150D01*
X47876Y292118D01*
X47992Y292090D01*
X48103Y292067D01*
X48204Y292054D01*
X48297Y292040D01*
X48376Y292035D01*
X48440Y292030D01*
X48491Y292026D01*
X48533D01*
X48690Y292030D01*
X48842Y292044D01*
X48986Y292067D01*
X49124Y292095D01*
X49249Y292127D01*
X49369Y292164D01*
X49480Y292206D01*
X49577Y292248D01*
X49665Y292289D01*
X49749Y292331D01*
X49813Y292368D01*
X49873Y292400D01*
X49915Y292428D01*
X49947Y292451D01*
X49970Y292465D01*
X49975Y292470D01*
X50077Y292557D01*
X50169Y292659D01*
X50252Y292765D01*
X50322Y292881D01*
X50387Y293001D01*
X50442Y293121D01*
X50488Y293242D01*
X50530Y293362D01*
X50562Y293473D01*
X50590Y293579D01*
X50613Y293671D01*
X50627Y293755D01*
X50641Y293824D01*
X50645Y293852D01*
X50650Y293875D01*
Y293893D01*
X50655Y293907D01*
Y293916D01*
Y293921D01*
X49434Y294041D01*
X49425Y293944D01*
X49416Y293856D01*
X49397Y293773D01*
X49379Y293695D01*
X49360Y293625D01*
X49337Y293561D01*
X49314Y293505D01*
X49291Y293454D01*
X49268Y293413D01*
X49249Y293376D01*
X49231Y293343D01*
X49212Y293320D01*
X49198Y293297D01*
X49184Y293283D01*
X49180Y293279D01*
X49175Y293274D01*
X49129Y293232D01*
X49083Y293195D01*
X49032Y293168D01*
X48986Y293140D01*
X48879Y293098D01*
X48782Y293071D01*
X48695Y293057D01*
X48657Y293047D01*
X48625D01*
X48597Y293043D01*
X48561D01*
X48491Y293047D01*
X48422Y293052D01*
X48302Y293075D01*
X48195Y293112D01*
X48107Y293154D01*
X48075Y293172D01*
X48043Y293195D01*
X48015Y293214D01*
X47992Y293228D01*
X47973Y293246D01*
X47959Y293255D01*
X47955Y293260D01*
X47950Y293265D01*
X47913Y293306D01*
X47876Y293357D01*
X47821Y293454D01*
X47784Y293561D01*
X47756Y293662D01*
X47738Y293755D01*
X47733Y293792D01*
Y293824D01*
X47728Y293856D01*
Y293875D01*
Y293889D01*
Y293893D01*
X47733Y293963D01*
X47738Y294032D01*
X47770Y294171D01*
X47807Y294296D01*
X47853Y294411D01*
X47881Y294462D01*
X47904Y294508D01*
X47923Y294545D01*
X47941Y294582D01*
X47959Y294610D01*
X47973Y294628D01*
X47978Y294642D01*
X47983Y294647D01*
X48024Y294702D01*
X48080Y294772D01*
X48144Y294846D01*
X48223Y294924D01*
X48302Y295012D01*
X48389Y295095D01*
X48561Y295271D01*
X48648Y295354D01*
X48727Y295433D01*
X48801Y295502D01*
X48866Y295567D01*
X48921Y295618D01*
X48963Y295659D01*
X48990Y295682D01*
X48995Y295687D01*
X49000Y295692D01*
X49184Y295867D01*
X49356Y296034D01*
X49508Y296186D01*
X49651Y296334D01*
X49776Y296473D01*
X49892Y296598D01*
X49989Y296713D01*
X50077Y296820D01*
X50151Y296912D01*
X50215Y296995D01*
X50271Y297065D01*
X50312Y297120D01*
X50340Y297166D01*
X50363Y297199D01*
X50377Y297222D01*
X50382Y297226D01*
X50442Y297337D01*
X50497Y297444D01*
X50548Y297555D01*
X50595Y297661D01*
X50631Y297767D01*
X50664Y297864D01*
X50696Y297961D01*
X50719Y298054D01*
X50742Y298137D01*
X50756Y298211D01*
X50770Y298280D01*
X50779Y298336D01*
X50789Y298382D01*
X50793Y298419D01*
X50798Y298438D01*
Y298447D01*
D02*
G37*
G36*
X63501Y293713D02*
Y293695D01*
D01*
Y293713D01*
D02*
G37*
G36*
Y293505D02*
Y293473D01*
D01*
Y293505D01*
D02*
G37*
G36*
Y293061D02*
Y293057D01*
D01*
Y293061D01*
D02*
G37*
G36*
Y298558D02*
X57931D01*
X60589D01*
X60399Y298553D01*
X60219Y298535D01*
X60048Y298512D01*
X59891Y298479D01*
X59738Y298438D01*
X59600Y298396D01*
X59470Y298350D01*
X59355Y298304D01*
X59248Y298257D01*
X59156Y298211D01*
X59077Y298165D01*
X59013Y298128D01*
X58962Y298095D01*
X58925Y298072D01*
X58902Y298054D01*
X58892Y298049D01*
X58772Y297948D01*
X58657Y297837D01*
X58555Y297716D01*
X58458Y297592D01*
X58370Y297462D01*
X58292Y297333D01*
X58222Y297203D01*
X58162Y297078D01*
X58106Y296963D01*
X58060Y296852D01*
X58019Y296750D01*
X57986Y296662D01*
X57963Y296593D01*
X57954Y296561D01*
X57945Y296538D01*
X57940Y296519D01*
X57936Y296505D01*
X57931Y296496D01*
Y296491D01*
X59184Y296094D01*
X59216Y296223D01*
X59253Y296343D01*
X59295Y296450D01*
X59336Y296556D01*
X59378Y296649D01*
X59424Y296732D01*
X59470Y296810D01*
X59512Y296875D01*
X59553Y296935D01*
X59591Y296986D01*
X59627Y297032D01*
X59660Y297065D01*
X59683Y297092D01*
X59701Y297115D01*
X59715Y297125D01*
X59720Y297129D01*
X59789Y297185D01*
X59863Y297236D01*
X59937Y297277D01*
X60016Y297314D01*
X60090Y297347D01*
X60164Y297374D01*
X60233Y297397D01*
X60298Y297411D01*
X60363Y297425D01*
X60423Y297434D01*
X60473Y297444D01*
X60515Y297448D01*
X60552Y297453D01*
X60603D01*
X60732Y297448D01*
X60852Y297430D01*
X60968Y297407D01*
X61074Y297374D01*
X61176Y297333D01*
X61269Y297291D01*
X61352Y297245D01*
X61430Y297194D01*
X61500Y297148D01*
X61560Y297102D01*
X61615Y297060D01*
X61657Y297018D01*
X61689Y296986D01*
X61717Y296963D01*
X61731Y296944D01*
X61735Y296940D01*
X61814Y296833D01*
X61879Y296718D01*
X61939Y296588D01*
X61985Y296454D01*
X62027Y296311D01*
X62064Y296168D01*
X62091Y296024D01*
X62115Y295886D01*
X62133Y295752D01*
X62147Y295627D01*
X62156Y295511D01*
X62161Y295414D01*
X62165Y295368D01*
Y295331D01*
X62170Y295299D01*
Y295266D01*
Y295248D01*
Y295229D01*
Y295220D01*
Y295215D01*
X62165Y295007D01*
X62151Y294813D01*
X62128Y294638D01*
X62101Y294471D01*
X62068Y294323D01*
X62031Y294189D01*
X61990Y294064D01*
X61948Y293958D01*
X61911Y293861D01*
X61870Y293782D01*
X61832Y293713D01*
X61800Y293658D01*
X61772Y293616D01*
X61749Y293584D01*
X61735Y293565D01*
X61731Y293561D01*
X61643Y293468D01*
X61555Y293389D01*
X61458Y293325D01*
X61366Y293265D01*
X61269Y293214D01*
X61171Y293172D01*
X61079Y293140D01*
X60986Y293112D01*
X60903Y293089D01*
X60825Y293075D01*
X60755Y293061D01*
X60695Y293057D01*
X60649Y293052D01*
X60612Y293047D01*
X60580D01*
X60483Y293052D01*
X60395Y293061D01*
X60307Y293075D01*
X60224Y293094D01*
X60150Y293117D01*
X60076Y293140D01*
X60011Y293168D01*
X59946Y293191D01*
X59896Y293218D01*
X59845Y293246D01*
X59803Y293269D01*
X59771Y293292D01*
X59743Y293311D01*
X59720Y293325D01*
X59711Y293334D01*
X59706Y293339D01*
X59641Y293394D01*
X59581Y293454D01*
X59526Y293519D01*
X59479Y293584D01*
X59438Y293648D01*
X59396Y293713D01*
X59332Y293838D01*
X59309Y293893D01*
X59285Y293949D01*
X59267Y293995D01*
X59253Y294037D01*
X59244Y294074D01*
X59234Y294097D01*
X59230Y294115D01*
Y294120D01*
X57949Y293815D01*
X57991Y293676D01*
X58042Y293542D01*
X58093Y293422D01*
X58144Y293306D01*
X58199Y293204D01*
X58254Y293107D01*
X58310Y293020D01*
X58361Y292941D01*
X58412Y292872D01*
X58458Y292812D01*
X58499Y292756D01*
X58537Y292715D01*
X58564Y292682D01*
X58587Y292659D01*
X58601Y292645D01*
X58606Y292641D01*
X58749Y292516D01*
X58897Y292409D01*
X59054Y292317D01*
X59211Y292238D01*
X59373Y292169D01*
X59530Y292114D01*
X59688Y292067D01*
X59836Y292030D01*
X59974Y292003D01*
X60104Y291980D01*
X60215Y291966D01*
X60316Y291952D01*
X60358D01*
X60399Y291947D01*
X60432D01*
X60459Y291943D01*
X60510D01*
X63501D01*
X60510D01*
X60635Y291947D01*
X60755Y291952D01*
X60991Y291980D01*
X61208Y292026D01*
X61417Y292081D01*
X61611Y292146D01*
X61786Y292225D01*
X61953Y292303D01*
X62101Y292386D01*
X62230Y292470D01*
X62346Y292548D01*
X62447Y292622D01*
X62531Y292691D01*
X62595Y292747D01*
X62642Y292793D01*
X62655Y292807D01*
X62669Y292821D01*
X62674Y292826D01*
X62678Y292830D01*
X62752Y292913D01*
X62822Y293001D01*
X62951Y293191D01*
X63058Y293385D01*
X63155Y293588D01*
X63233Y293796D01*
X63303Y294000D01*
X63353Y294203D01*
X63400Y294402D01*
X63432Y294587D01*
X63460Y294758D01*
X63469Y294836D01*
X63478Y294910D01*
X63483Y294980D01*
X63488Y295044D01*
X63492Y295105D01*
X63497Y295155D01*
Y295202D01*
X63501Y295239D01*
Y295331D01*
Y295308D01*
X63497Y295447D01*
X63492Y295585D01*
X63464Y295844D01*
X63427Y296089D01*
X63372Y296316D01*
X63312Y296528D01*
X63243Y296727D01*
X63169Y296903D01*
X63090Y297065D01*
X63016Y297208D01*
X62942Y297333D01*
X62905Y297388D01*
X62873Y297439D01*
X62840Y297485D01*
X62812Y297527D01*
X62785Y297564D01*
X62757Y297596D01*
X62739Y297624D01*
X62720Y297647D01*
X62702Y297666D01*
X62692Y297679D01*
X62683Y297684D01*
Y297689D01*
X62604Y297767D01*
X62526Y297841D01*
X62443Y297911D01*
X62359Y297975D01*
X62184Y298091D01*
X62013Y298193D01*
X61832Y298276D01*
X61662Y298345D01*
X61490Y298405D01*
X61329Y298447D01*
X61176Y298484D01*
X61037Y298512D01*
X60908Y298530D01*
X60852Y298539D01*
X60802Y298544D01*
X60755Y298549D01*
X60714Y298553D01*
X60677D01*
X60644Y298558D01*
X63501D01*
D02*
G37*
G36*
X56817Y298447D02*
X51704D01*
Y292049D01*
X52994D01*
Y294568D01*
X55527D01*
Y292049D01*
X56817D01*
Y298447D01*
D02*
G37*
%LPD*%
G36*
X60510Y291943D02*
D01*
D01*
D01*
D02*
G37*
G36*
X55527Y295650D02*
X52994D01*
Y298447D01*
X55527D01*
Y295650D01*
D02*
G37*
D10*
X38200Y127800D02*
G03*
X38200Y127800I-500J0D01*
G01*
Y57800D02*
G03*
X38200Y57800I-500J0D01*
G01*
X230500Y70000D02*
G03*
X230500Y70000I-500J0D01*
G01*
X54500Y16500D02*
G03*
X54500Y16500I-500J0D01*
G01*
X102500Y10500D02*
G03*
X102500Y10500I-500J0D01*
G01*
X217500D02*
G03*
X217500Y10500I-500J0D01*
G01*
X41000Y233000D02*
G03*
X41000Y233000I-500J0D01*
G01*
X293500Y89500D02*
G03*
X293500Y89500I-500J0D01*
G01*
X251159Y76717D02*
G03*
X270741Y76717I9791J-36717D01*
G01*
X96500Y53500D02*
G03*
X96500Y53500I-500J0D01*
G01*
X284000Y144000D02*
G03*
X284000Y144000I-500J0D01*
G01*
X206500Y283500D02*
G03*
X206500Y283500I-500J0D01*
G01*
X111500D02*
G03*
X111500Y283500I-500J0D01*
G01*
X17000Y256000D02*
G03*
X17000Y256000I-500J0D01*
G01*
X284000Y239000D02*
G03*
X284000Y239000I-500J0D01*
G01*
X270950Y76500D02*
Y96500D01*
X250950Y76500D02*
Y96500D01*
D11*
X21336Y78208D02*
Y76708D01*
X22336D01*
X23835D02*
X22836D01*
X23835Y77708D01*
Y77958D01*
X23585Y78208D01*
X23085D01*
X22836Y77958D01*
X21590Y148312D02*
Y146812D01*
X22590D01*
X23089D02*
X23589D01*
X23339D01*
Y148312D01*
X23089Y148062D01*
X272567Y242570D02*
X273816D01*
X274066Y242820D01*
Y243320D01*
X273816Y243570D01*
X272567D01*
X273816Y244069D02*
X274066Y244319D01*
Y244819D01*
X273816Y245069D01*
X272816D01*
X272567Y244819D01*
Y244319D01*
X272816Y244069D01*
X273066D01*
X273316Y244319D01*
Y245069D01*
X274316Y245569D02*
Y246569D01*
X272816Y248068D02*
X272567Y247818D01*
Y247318D01*
X272816Y247069D01*
X273816D01*
X274066Y247318D01*
Y247818D01*
X273816Y248068D01*
X272567Y248568D02*
X274066D01*
X273316D01*
Y249568D01*
X272567D01*
X274066D01*
Y250817D02*
X272567D01*
X273316Y250068D01*
Y251067D01*
X25679Y244348D02*
X26928D01*
X27178Y244598D01*
Y245098D01*
X26928Y245348D01*
X25679D01*
X26928Y245847D02*
X27178Y246097D01*
Y246597D01*
X26928Y246847D01*
X25928D01*
X25679Y246597D01*
Y246097D01*
X25928Y245847D01*
X26178D01*
X26428Y246097D01*
Y246847D01*
X27428Y247347D02*
Y248347D01*
X25928Y249846D02*
X25679Y249596D01*
Y249097D01*
X25928Y248846D01*
X26928D01*
X27178Y249097D01*
Y249596D01*
X26928Y249846D01*
X25679Y250346D02*
X27178D01*
X26428D01*
Y251346D01*
X25679D01*
X27178D01*
Y251846D02*
Y252345D01*
Y252096D01*
X25679D01*
X25928Y251846D01*
X6334Y248138D02*
X6084Y248388D01*
X5584D01*
X5334Y248138D01*
Y247138D01*
X5584Y246888D01*
X6084D01*
X6334Y247138D01*
X7833Y246888D02*
X6834D01*
X7833Y247888D01*
Y248138D01*
X7583Y248388D01*
X7083D01*
X6834Y248138D01*
X9083Y246888D02*
Y248388D01*
X8333Y247638D01*
X9333D01*
X9833Y246638D02*
X10832D01*
X12332Y248138D02*
X12082Y248388D01*
X11582D01*
X11332Y248138D01*
Y247138D01*
X11582Y246888D01*
X12082D01*
X12332Y247138D01*
X12832Y248388D02*
Y246888D01*
Y247638D01*
X13831D01*
Y248388D01*
Y246888D01*
X14331D02*
X14831D01*
X14581D01*
Y248388D01*
X14331Y248138D01*
X99060Y274296D02*
Y273046D01*
X99310Y272796D01*
X99810D01*
X100060Y273046D01*
Y274296D01*
X100560Y273046D02*
X100809Y272796D01*
X101309D01*
X101559Y273046D01*
Y274046D01*
X101309Y274296D01*
X100809D01*
X100560Y274046D01*
Y273796D01*
X100809Y273546D01*
X101559D01*
X102059Y272546D02*
X103059D01*
X104558Y274046D02*
X104308Y274296D01*
X103808D01*
X103559Y274046D01*
Y273046D01*
X103808Y272796D01*
X104308D01*
X104558Y273046D01*
X105058Y274296D02*
Y272796D01*
Y273546D01*
X106058D01*
Y274296D01*
Y272796D01*
X107557D02*
X106558D01*
X107557Y273796D01*
Y274046D01*
X107307Y274296D01*
X106807D01*
X106558Y274046D01*
X101874Y285988D02*
X101624Y285738D01*
Y285238D01*
X101874Y284988D01*
X102874D01*
X103124Y285238D01*
Y285738D01*
X102874Y285988D01*
X103124Y287487D02*
Y286488D01*
X102124Y287487D01*
X101874D01*
X101624Y287237D01*
Y286737D01*
X101874Y286488D01*
X103124Y288737D02*
X101624D01*
X102374Y287987D01*
Y288987D01*
X103374Y289487D02*
Y290486D01*
X101874Y291986D02*
X101624Y291736D01*
Y291236D01*
X101874Y290986D01*
X102874D01*
X103124Y291236D01*
Y291736D01*
X102874Y291986D01*
X101624Y292486D02*
X103124D01*
X102374D01*
Y293485D01*
X101624D01*
X103124D01*
Y294985D02*
Y293985D01*
X102124Y294985D01*
X101874D01*
X101624Y294735D01*
Y294235D01*
X101874Y293985D01*
X194056Y274296D02*
Y273046D01*
X194306Y272796D01*
X194806D01*
X195056Y273046D01*
Y274296D01*
X195555Y273046D02*
X195805Y272796D01*
X196305D01*
X196555Y273046D01*
Y274046D01*
X196305Y274296D01*
X195805D01*
X195555Y274046D01*
Y273796D01*
X195805Y273546D01*
X196555D01*
X197055Y272546D02*
X198055D01*
X199554Y274046D02*
X199304Y274296D01*
X198804D01*
X198554Y274046D01*
Y273046D01*
X198804Y272796D01*
X199304D01*
X199554Y273046D01*
X200054Y274296D02*
Y272796D01*
Y273546D01*
X201054D01*
Y274296D01*
Y272796D01*
X201554Y274046D02*
X201803Y274296D01*
X202303D01*
X202553Y274046D01*
Y273796D01*
X202303Y273546D01*
X202053D01*
X202303D01*
X202553Y273296D01*
Y273046D01*
X202303Y272796D01*
X201803D01*
X201554Y273046D01*
X196870Y285988D02*
X196621Y285738D01*
Y285238D01*
X196870Y284988D01*
X197870D01*
X198120Y285238D01*
Y285738D01*
X197870Y285988D01*
X198120Y287487D02*
Y286488D01*
X197120Y287487D01*
X196870D01*
X196621Y287237D01*
Y286737D01*
X196870Y286488D01*
X198120Y288737D02*
X196621D01*
X197370Y287987D01*
Y288987D01*
X198370Y289487D02*
Y290486D01*
X196870Y291986D02*
X196621Y291736D01*
Y291236D01*
X196870Y290986D01*
X197870D01*
X198120Y291236D01*
Y291736D01*
X197870Y291986D01*
X196621Y292486D02*
X198120D01*
X197370D01*
Y293485D01*
X196621D01*
X198120D01*
X196870Y293985D02*
X196621Y294235D01*
Y294735D01*
X196870Y294985D01*
X197120D01*
X197370Y294735D01*
Y294485D01*
Y294735D01*
X197620Y294985D01*
X197870D01*
X198120Y294735D01*
Y294235D01*
X197870Y293985D01*
X272567Y147574D02*
X273816D01*
X274066Y147824D01*
Y148324D01*
X273816Y148574D01*
X272567D01*
X273816Y149073D02*
X274066Y149323D01*
Y149823D01*
X273816Y150073D01*
X272816D01*
X272567Y149823D01*
Y149323D01*
X272816Y149073D01*
X273066D01*
X273316Y149323D01*
Y150073D01*
X274316Y150573D02*
Y151573D01*
X272816Y153072D02*
X272567Y152822D01*
Y152323D01*
X272816Y152072D01*
X273816D01*
X274066Y152323D01*
Y152822D01*
X273816Y153072D01*
X272567Y153572D02*
X274066D01*
X273316D01*
Y154572D01*
X272567D01*
X274066D01*
X272567Y156071D02*
Y155072D01*
X273316D01*
X273066Y155571D01*
Y155821D01*
X273316Y156071D01*
X273816D01*
X274066Y155821D01*
Y155322D01*
X273816Y155072D01*
X88214Y43232D02*
Y41982D01*
X88464Y41732D01*
X88964D01*
X89214Y41982D01*
Y43232D01*
X89713D02*
X90713D01*
Y42982D01*
X89713Y41982D01*
Y41732D01*
X285988Y248138D02*
X285738Y248388D01*
X285238D01*
X284988Y248138D01*
Y247138D01*
X285238Y246888D01*
X285738D01*
X285988Y247138D01*
X287487Y246888D02*
X286488D01*
X287487Y247888D01*
Y248138D01*
X287237Y248388D01*
X286737D01*
X286488Y248138D01*
X288737Y246888D02*
Y248388D01*
X287987Y247638D01*
X288987D01*
X289487Y246638D02*
X290486D01*
X291986Y248138D02*
X291736Y248388D01*
X291236D01*
X290986Y248138D01*
Y247138D01*
X291236Y246888D01*
X291736D01*
X291986Y247138D01*
X292486Y248388D02*
Y246888D01*
Y247638D01*
X293485D01*
Y248388D01*
Y246888D01*
X294735D02*
Y248388D01*
X293985Y247638D01*
X294985D01*
X285988Y153142D02*
X285738Y153392D01*
X285238D01*
X284988Y153142D01*
Y152142D01*
X285238Y151892D01*
X285738D01*
X285988Y152142D01*
X287487Y151892D02*
X286488D01*
X287487Y152892D01*
Y153142D01*
X287237Y153392D01*
X286737D01*
X286488Y153142D01*
X288737Y151892D02*
Y153392D01*
X287987Y152642D01*
X288987D01*
X289487Y151642D02*
X290486D01*
X291986Y153142D02*
X291736Y153392D01*
X291236D01*
X290986Y153142D01*
Y152142D01*
X291236Y151892D01*
X291736D01*
X291986Y152142D01*
X292486Y153392D02*
Y151892D01*
Y152642D01*
X293485D01*
Y153392D01*
Y151892D01*
X294985Y153392D02*
X293985D01*
Y152642D01*
X294485Y152892D01*
X294735D01*
X294985Y152642D01*
Y152142D01*
X294735Y151892D01*
X294235D01*
X293985Y152142D01*
X46304Y224358D02*
Y225858D01*
X47054D01*
X47304Y225608D01*
Y225108D01*
X47054Y224858D01*
X46304D01*
X46804D02*
X47304Y224358D01*
X47804Y225608D02*
X48053Y225858D01*
X48553D01*
X48803Y225608D01*
Y225358D01*
X48553Y225108D01*
X48303D01*
X48553D01*
X48803Y224858D01*
Y224608D01*
X48553Y224358D01*
X48053D01*
X47804Y224608D01*
X217442Y17927D02*
Y16677D01*
X217692Y16427D01*
X218192D01*
X218442Y16677D01*
Y17927D01*
X219942D02*
X219442Y17677D01*
X218942Y17177D01*
Y16677D01*
X219192Y16427D01*
X219692D01*
X219942Y16677D01*
Y16927D01*
X219692Y17177D01*
X218942D01*
X102381Y17927D02*
Y16677D01*
X102630Y16427D01*
X103130D01*
X103380Y16677D01*
Y17927D01*
X104880D02*
X103880D01*
Y17177D01*
X104380Y17427D01*
X104630D01*
X104880Y17177D01*
Y16677D01*
X104630Y16427D01*
X104130D01*
X103880Y16677D01*
X285826Y133680D02*
X284326D01*
Y134430D01*
X284576Y134680D01*
X285076D01*
X285326Y134430D01*
Y133680D01*
Y134180D02*
X285826Y134680D01*
X284326Y135180D02*
Y136179D01*
X284576D01*
X285576Y135180D01*
X285826D01*
X207106Y34096D02*
X206856Y33846D01*
Y33346D01*
X207106Y33096D01*
X208106D01*
X208356Y33346D01*
Y33846D01*
X208106Y34096D01*
X208356Y35595D02*
Y34595D01*
X207356Y35595D01*
X207106D01*
X206856Y35345D01*
Y34845D01*
X207106Y34595D01*
Y36095D02*
X206856Y36345D01*
Y36845D01*
X207106Y37095D01*
X208106D01*
X208356Y36845D01*
Y36345D01*
X208106Y36095D01*
X207106D01*
X292750Y98750D02*
Y97500D01*
X293000Y97250D01*
X293500D01*
X293750Y97500D01*
Y98750D01*
X294250Y98500D02*
X294500Y98750D01*
X295000D01*
X295250Y98500D01*
Y98250D01*
X295000Y98000D01*
X295250Y97750D01*
Y97500D01*
X295000Y97250D01*
X294500D01*
X294250Y97500D01*
Y97750D01*
X294500Y98000D01*
X294250Y98250D01*
Y98500D01*
X294500Y98000D02*
X295000D01*
X285826Y123774D02*
X284326D01*
Y124524D01*
X284576Y124774D01*
X285076D01*
X285326Y124524D01*
Y123774D01*
Y124274D02*
X285826Y124774D01*
X284326Y126273D02*
X284576Y125773D01*
X285076Y125274D01*
X285576D01*
X285826Y125523D01*
Y126023D01*
X285576Y126273D01*
X285326D01*
X285076Y126023D01*
Y125274D01*
X284576Y81848D02*
X284326Y81598D01*
Y81098D01*
X284576Y80848D01*
X285576D01*
X285826Y81098D01*
Y81598D01*
X285576Y81848D01*
X285826Y83347D02*
Y82347D01*
X284826Y83347D01*
X284576D01*
X284326Y83097D01*
Y82597D01*
X284576Y82347D01*
X285826Y83847D02*
Y84347D01*
Y84097D01*
X284326D01*
X284576Y83847D01*
X284576Y114106D02*
X284326Y113856D01*
Y113356D01*
X284576Y113106D01*
X285576D01*
X285826Y113356D01*
Y113856D01*
X285576Y114106D01*
X285826Y115605D02*
Y114606D01*
X284826Y115605D01*
X284576D01*
X284326Y115355D01*
Y114855D01*
X284576Y114606D01*
X285826Y117105D02*
Y116105D01*
X284826Y117105D01*
X284576D01*
X284326Y116855D01*
Y116355D01*
X284576Y116105D01*
X101660Y42982D02*
X101410Y43232D01*
X100910D01*
X100660Y42982D01*
Y41982D01*
X100910Y41732D01*
X101410D01*
X101660Y41982D01*
X102160Y41732D02*
X102659D01*
X102409D01*
Y43232D01*
X102160Y42982D01*
X103409Y41982D02*
X103659Y41732D01*
X104159D01*
X104409Y41982D01*
Y42982D01*
X104159Y43232D01*
X103659D01*
X103409Y42982D01*
Y42732D01*
X103659Y42482D01*
X104409D01*
X63830Y35865D02*
Y34616D01*
X64080Y34366D01*
X64580D01*
X64830Y34616D01*
Y35865D01*
X66079Y34366D02*
Y35865D01*
X65329Y35116D01*
X66329D01*
X75692Y8636D02*
X74193D01*
Y9386D01*
X74442Y9636D01*
X74942D01*
X75192Y9386D01*
Y8636D01*
Y9136D02*
X75692Y9636D01*
X74193Y11135D02*
Y10136D01*
X74942D01*
X74692Y10635D01*
Y10885D01*
X74942Y11135D01*
X75442D01*
X75692Y10885D01*
Y10385D01*
X75442Y10136D01*
X58166Y8636D02*
X56666D01*
Y9386D01*
X56916Y9636D01*
X57416D01*
X57666Y9386D01*
Y8636D01*
Y9136D02*
X58166Y9636D01*
Y10885D02*
X56666D01*
X57416Y10136D01*
Y11135D01*
X62072Y59242D02*
X61823Y58992D01*
Y58492D01*
X62072Y58242D01*
X63072D01*
X63322Y58492D01*
Y58992D01*
X63072Y59242D01*
X63322Y59742D02*
Y60241D01*
Y59991D01*
X61823D01*
X62072Y59742D01*
Y60991D02*
X61823Y61241D01*
Y61741D01*
X62072Y61991D01*
X62322D01*
X62572Y61741D01*
X62822Y61991D01*
X63072D01*
X63322Y61741D01*
Y61241D01*
X63072Y60991D01*
X62822D01*
X62572Y61241D01*
X62322Y60991D01*
X62072D01*
X62572Y61241D02*
Y61741D01*
X248396Y223246D02*
X248146Y223496D01*
X247646D01*
X247396Y223246D01*
Y222246D01*
X247646Y221996D01*
X248146D01*
X248396Y222246D01*
X249895Y221996D02*
X248895D01*
X249895Y222996D01*
Y223246D01*
X249645Y223496D01*
X249145D01*
X248895Y223246D01*
X250395D02*
X250645Y223496D01*
X251145D01*
X251395Y223246D01*
Y222996D01*
X251145Y222746D01*
X250895D01*
X251145D01*
X251395Y222496D01*
Y222246D01*
X251145Y221996D01*
X250645D01*
X250395Y222246D01*
X251894Y221746D02*
X252894D01*
X254394Y223246D02*
X254144Y223496D01*
X253644D01*
X253394Y223246D01*
Y222246D01*
X253644Y221996D01*
X254144D01*
X254394Y222246D01*
X254894Y223496D02*
Y221996D01*
Y222746D01*
X255893D01*
Y223496D01*
Y221996D01*
X257393Y223496D02*
X256393D01*
Y222746D01*
X256893Y222996D01*
X257143D01*
X257393Y222746D01*
Y222246D01*
X257143Y221996D01*
X256643D01*
X256393Y222246D01*
X216936Y248396D02*
X216686Y248146D01*
Y247646D01*
X216936Y247396D01*
X217936D01*
X218186Y247646D01*
Y248146D01*
X217936Y248396D01*
X218186Y249895D02*
Y248895D01*
X217186Y249895D01*
X216936D01*
X216686Y249645D01*
Y249145D01*
X216936Y248895D01*
Y250395D02*
X216686Y250645D01*
Y251145D01*
X216936Y251395D01*
X217186D01*
X217436Y251145D01*
Y250895D01*
Y251145D01*
X217686Y251395D01*
X217936D01*
X218186Y251145D01*
Y250645D01*
X217936Y250395D01*
X218436Y251894D02*
Y252894D01*
X216936Y254394D02*
X216686Y254144D01*
Y253644D01*
X216936Y253394D01*
X217936D01*
X218186Y253644D01*
Y254144D01*
X217936Y254394D01*
X216686Y254894D02*
X218186D01*
X217436D01*
Y255893D01*
X216686D01*
X218186D01*
Y257143D02*
X216686D01*
X217436Y256393D01*
Y257393D01*
X129306Y248396D02*
X129057Y248146D01*
Y247646D01*
X129306Y247396D01*
X130306D01*
X130556Y247646D01*
Y248146D01*
X130306Y248396D01*
X130556Y249895D02*
Y248895D01*
X129556Y249895D01*
X129306D01*
X129057Y249645D01*
Y249145D01*
X129306Y248895D01*
Y250395D02*
X129057Y250645D01*
Y251145D01*
X129306Y251395D01*
X129556D01*
X129806Y251145D01*
Y250895D01*
Y251145D01*
X130056Y251395D01*
X130306D01*
X130556Y251145D01*
Y250645D01*
X130306Y250395D01*
X130806Y251894D02*
Y252894D01*
X129306Y254394D02*
X129057Y254144D01*
Y253644D01*
X129306Y253394D01*
X130306D01*
X130556Y253644D01*
Y254144D01*
X130306Y254394D01*
X129057Y254894D02*
X130556D01*
X129806D01*
Y255893D01*
X129057D01*
X130556D01*
X129306Y256393D02*
X129057Y256643D01*
Y257143D01*
X129306Y257393D01*
X129556D01*
X129806Y257143D01*
Y256893D01*
Y257143D01*
X130056Y257393D01*
X130306D01*
X130556Y257143D01*
Y256643D01*
X130306Y256393D01*
X6080Y265664D02*
X5830Y265914D01*
X5330D01*
X5080Y265664D01*
Y264664D01*
X5330Y264414D01*
X5830D01*
X6080Y264664D01*
X7579Y264414D02*
X6579D01*
X7579Y265414D01*
Y265664D01*
X7329Y265914D01*
X6829D01*
X6579Y265664D01*
X8079D02*
X8329Y265914D01*
X8829D01*
X9079Y265664D01*
Y265414D01*
X8829Y265164D01*
X8579D01*
X8829D01*
X9079Y264914D01*
Y264664D01*
X8829Y264414D01*
X8329D01*
X8079Y264664D01*
X9578Y264164D02*
X10578D01*
X12078Y265664D02*
X11828Y265914D01*
X11328D01*
X11078Y265664D01*
Y264664D01*
X11328Y264414D01*
X11828D01*
X12078Y264664D01*
X12578Y265914D02*
Y264414D01*
Y265164D01*
X13577D01*
Y265914D01*
Y264414D01*
X15077D02*
X14077D01*
X15077Y265414D01*
Y265664D01*
X14827Y265914D01*
X14327D01*
X14077Y265664D01*
X43672Y173208D02*
X43422Y173458D01*
X42922D01*
X42672Y173208D01*
Y172208D01*
X42922Y171958D01*
X43422D01*
X43672Y172208D01*
X45171Y171958D02*
X44172D01*
X45171Y172958D01*
Y173208D01*
X44921Y173458D01*
X44421D01*
X44172Y173208D01*
X45671D02*
X45921Y173458D01*
X46421D01*
X46671Y173208D01*
Y172958D01*
X46421Y172708D01*
X46171D01*
X46421D01*
X46671Y172458D01*
Y172208D01*
X46421Y171958D01*
X45921D01*
X45671Y172208D01*
X47171Y171708D02*
X48170D01*
X49670Y173208D02*
X49420Y173458D01*
X48920D01*
X48670Y173208D01*
Y172208D01*
X48920Y171958D01*
X49420D01*
X49670Y172208D01*
X50170Y173458D02*
Y171958D01*
Y172708D01*
X51169D01*
Y173458D01*
Y171958D01*
X51669D02*
X52169D01*
X51919D01*
Y173458D01*
X51669Y173208D01*
X248158Y169418D02*
Y170917D01*
X248908D01*
X249158Y170668D01*
Y170168D01*
X248908Y169918D01*
X248158D01*
X248658D02*
X249158Y169418D01*
X249657Y169668D02*
X249907Y169418D01*
X250407D01*
X250657Y169668D01*
Y170668D01*
X250407Y170917D01*
X249907D01*
X249657Y170668D01*
Y170418D01*
X249907Y170168D01*
X250657D01*
X251157Y169168D02*
X252157D01*
X253656Y170668D02*
X253406Y170917D01*
X252906D01*
X252656Y170668D01*
Y169668D01*
X252906Y169418D01*
X253406D01*
X253656Y169668D01*
X254156Y170917D02*
Y169418D01*
Y170168D01*
X255156D01*
Y170917D01*
Y169418D01*
X256655Y170917D02*
X255656D01*
Y170168D01*
X256155Y170418D01*
X256405D01*
X256655Y170168D01*
Y169668D01*
X256405Y169418D01*
X255905D01*
X255656Y169668D01*
X253238Y248158D02*
X251738D01*
Y248908D01*
X251988Y249158D01*
X252488D01*
X252738Y248908D01*
Y248158D01*
Y248658D02*
X253238Y249158D01*
X252988Y249657D02*
X253238Y249907D01*
Y250407D01*
X252988Y250657D01*
X251988D01*
X251738Y250407D01*
Y249907D01*
X251988Y249657D01*
X252238D01*
X252488Y249907D01*
Y250657D01*
X253488Y251157D02*
Y252157D01*
X251988Y253656D02*
X251738Y253406D01*
Y252906D01*
X251988Y252656D01*
X252988D01*
X253238Y252906D01*
Y253406D01*
X252988Y253656D01*
X251738Y254156D02*
X253238D01*
X252488D01*
Y255156D01*
X251738D01*
X253238D01*
Y256405D02*
X251738D01*
X252488Y255656D01*
Y256655D01*
X183134Y248158D02*
X181635D01*
Y248908D01*
X181884Y249158D01*
X182384D01*
X182634Y248908D01*
Y248158D01*
Y248658D02*
X183134Y249158D01*
X182884Y249657D02*
X183134Y249907D01*
Y250407D01*
X182884Y250657D01*
X181884D01*
X181635Y250407D01*
Y249907D01*
X181884Y249657D01*
X182134D01*
X182384Y249907D01*
Y250657D01*
X183384Y251157D02*
Y252157D01*
X181884Y253656D02*
X181635Y253406D01*
Y252906D01*
X181884Y252656D01*
X182884D01*
X183134Y252906D01*
Y253406D01*
X182884Y253656D01*
X181635Y254156D02*
X183134D01*
X182384D01*
Y255156D01*
X181635D01*
X183134D01*
X181884Y255656D02*
X181635Y255905D01*
Y256405D01*
X181884Y256655D01*
X182134D01*
X182384Y256405D01*
Y256155D01*
Y256405D01*
X182634Y256655D01*
X182884D01*
X183134Y256405D01*
Y255905D01*
X182884Y255656D01*
X95504Y248158D02*
X94004D01*
Y248908D01*
X94254Y249158D01*
X94754D01*
X95004Y248908D01*
Y248158D01*
Y248658D02*
X95504Y249158D01*
X95254Y249657D02*
X95504Y249907D01*
Y250407D01*
X95254Y250657D01*
X94254D01*
X94004Y250407D01*
Y249907D01*
X94254Y249657D01*
X94504D01*
X94754Y249907D01*
Y250657D01*
X95754Y251157D02*
Y252157D01*
X94254Y253656D02*
X94004Y253406D01*
Y252906D01*
X94254Y252656D01*
X95254D01*
X95504Y252906D01*
Y253406D01*
X95254Y253656D01*
X94004Y254156D02*
X95504D01*
X94754D01*
Y255156D01*
X94004D01*
X95504D01*
Y256655D02*
Y255656D01*
X94504Y256655D01*
X94254D01*
X94004Y256405D01*
Y255905D01*
X94254Y255656D01*
X43434Y206502D02*
Y208001D01*
X44184D01*
X44434Y207752D01*
Y207252D01*
X44184Y207002D01*
X43434D01*
X43934D02*
X44434Y206502D01*
X44934Y206752D02*
X45183Y206502D01*
X45683D01*
X45933Y206752D01*
Y207752D01*
X45683Y208001D01*
X45183D01*
X44934Y207752D01*
Y207502D01*
X45183Y207252D01*
X45933D01*
X46433Y206252D02*
X47433D01*
X48932Y207752D02*
X48682Y208001D01*
X48183D01*
X47933Y207752D01*
Y206752D01*
X48183Y206502D01*
X48682D01*
X48932Y206752D01*
X49432Y208001D02*
Y206502D01*
Y207252D01*
X50432D01*
Y208001D01*
Y206502D01*
X50932D02*
X51431D01*
X51182D01*
Y208001D01*
X50932Y207752D01*
X248158Y186944D02*
Y188444D01*
X248908D01*
X249158Y188194D01*
Y187694D01*
X248908Y187444D01*
X248158D01*
X248658D02*
X249158Y186944D01*
X249657Y188194D02*
X249907Y188444D01*
X250407D01*
X250657Y188194D01*
Y187944D01*
X250407Y187694D01*
X250657Y187444D01*
Y187194D01*
X250407Y186944D01*
X249907D01*
X249657Y187194D01*
Y187444D01*
X249907Y187694D01*
X249657Y187944D01*
Y188194D01*
X249907Y187694D02*
X250407D01*
X251157Y186694D02*
X252157D01*
X253656Y188194D02*
X253406Y188444D01*
X252906D01*
X252656Y188194D01*
Y187194D01*
X252906Y186944D01*
X253406D01*
X253656Y187194D01*
X254156Y188444D02*
Y186944D01*
Y187694D01*
X255156D01*
Y188444D01*
Y186944D01*
X256655Y188444D02*
X255656D01*
Y187694D01*
X256155Y187944D01*
X256405D01*
X256655Y187694D01*
Y187194D01*
X256405Y186944D01*
X255905D01*
X255656Y187194D01*
X235712Y248158D02*
X234212D01*
Y248908D01*
X234462Y249158D01*
X234962D01*
X235212Y248908D01*
Y248158D01*
Y248658D02*
X235712Y249158D01*
X234462Y249657D02*
X234212Y249907D01*
Y250407D01*
X234462Y250657D01*
X234712D01*
X234962Y250407D01*
X235212Y250657D01*
X235462D01*
X235712Y250407D01*
Y249907D01*
X235462Y249657D01*
X235212D01*
X234962Y249907D01*
X234712Y249657D01*
X234462D01*
X234962Y249907D02*
Y250407D01*
X235962Y251157D02*
Y252157D01*
X234462Y253656D02*
X234212Y253406D01*
Y252906D01*
X234462Y252656D01*
X235462D01*
X235712Y252906D01*
Y253406D01*
X235462Y253656D01*
X234212Y254156D02*
X235712D01*
X234962D01*
Y255156D01*
X234212D01*
X235712D01*
Y256405D02*
X234212D01*
X234962Y255656D01*
Y256655D01*
X165608Y248158D02*
X164109D01*
Y248908D01*
X164358Y249158D01*
X164858D01*
X165108Y248908D01*
Y248158D01*
Y248658D02*
X165608Y249158D01*
X164358Y249657D02*
X164109Y249907D01*
Y250407D01*
X164358Y250657D01*
X164608D01*
X164858Y250407D01*
X165108Y250657D01*
X165358D01*
X165608Y250407D01*
Y249907D01*
X165358Y249657D01*
X165108D01*
X164858Y249907D01*
X164608Y249657D01*
X164358D01*
X164858Y249907D02*
Y250407D01*
X165858Y251157D02*
Y252157D01*
X164358Y253656D02*
X164109Y253406D01*
Y252906D01*
X164358Y252656D01*
X165358D01*
X165608Y252906D01*
Y253406D01*
X165358Y253656D01*
X164109Y254156D02*
X165608D01*
X164858D01*
Y255156D01*
X164109D01*
X165608D01*
X164358Y255656D02*
X164109Y255905D01*
Y256405D01*
X164358Y256655D01*
X164608D01*
X164858Y256405D01*
Y256155D01*
Y256405D01*
X165108Y256655D01*
X165358D01*
X165608Y256405D01*
Y255905D01*
X165358Y255656D01*
X78232Y248158D02*
X76733D01*
Y248908D01*
X76982Y249158D01*
X77482D01*
X77732Y248908D01*
Y248158D01*
Y248658D02*
X78232Y249158D01*
X76982Y249657D02*
X76733Y249907D01*
Y250407D01*
X76982Y250657D01*
X77232D01*
X77482Y250407D01*
X77732Y250657D01*
X77982D01*
X78232Y250407D01*
Y249907D01*
X77982Y249657D01*
X77732D01*
X77482Y249907D01*
X77232Y249657D01*
X76982D01*
X77482Y249907D02*
Y250407D01*
X78482Y251157D02*
Y252157D01*
X76982Y253656D02*
X76733Y253406D01*
Y252906D01*
X76982Y252656D01*
X77982D01*
X78232Y252906D01*
Y253406D01*
X77982Y253656D01*
X76733Y254156D02*
X78232D01*
X77482D01*
Y255156D01*
X76733D01*
X78232D01*
Y256655D02*
Y255656D01*
X77232Y256655D01*
X76982D01*
X76733Y256405D01*
Y255905D01*
X76982Y255656D01*
X43434Y189484D02*
Y190984D01*
X44184D01*
X44434Y190734D01*
Y190234D01*
X44184Y189984D01*
X43434D01*
X43934D02*
X44434Y189484D01*
X44934Y190734D02*
X45183Y190984D01*
X45683D01*
X45933Y190734D01*
Y190484D01*
X45683Y190234D01*
X45933Y189984D01*
Y189734D01*
X45683Y189484D01*
X45183D01*
X44934Y189734D01*
Y189984D01*
X45183Y190234D01*
X44934Y190484D01*
Y190734D01*
X45183Y190234D02*
X45683D01*
X46433Y189234D02*
X47433D01*
X48932Y190734D02*
X48682Y190984D01*
X48183D01*
X47933Y190734D01*
Y189734D01*
X48183Y189484D01*
X48682D01*
X48932Y189734D01*
X49432Y190984D02*
Y189484D01*
Y190234D01*
X50432D01*
Y190984D01*
Y189484D01*
X50932D02*
X51431D01*
X51182D01*
Y190984D01*
X50932Y190734D01*
X274090Y196834D02*
Y196334D01*
Y196584D01*
X275340D01*
X275590Y196334D01*
Y196084D01*
X275340Y195834D01*
X275590Y198333D02*
Y197334D01*
X274590Y198333D01*
X274340D01*
X274090Y198083D01*
Y197583D01*
X274340Y197334D01*
X275840Y198833D02*
Y199833D01*
X274340Y201332D02*
X274090Y201082D01*
Y200583D01*
X274340Y200333D01*
X275340D01*
X275590Y200583D01*
Y201082D01*
X275340Y201332D01*
X274090Y201832D02*
X275590D01*
X274840D01*
Y202832D01*
X274090D01*
X275590D01*
X274090Y204331D02*
Y203332D01*
X274840D01*
X274590Y203831D01*
Y204081D01*
X274840Y204331D01*
X275340D01*
X275590Y204081D01*
Y203582D01*
X275340Y203332D01*
X241792Y275819D02*
X241292D01*
X241542D01*
Y274570D01*
X241292Y274320D01*
X241042D01*
X240792Y274570D01*
X243291Y274320D02*
X242292D01*
X243291Y275320D01*
Y275570D01*
X243041Y275819D01*
X242541D01*
X242292Y275570D01*
X243791Y274070D02*
X244791D01*
X246290Y275570D02*
X246040Y275819D01*
X245541D01*
X245291Y275570D01*
Y274570D01*
X245541Y274320D01*
X246040D01*
X246290Y274570D01*
X246790Y275819D02*
Y274320D01*
Y275070D01*
X247790D01*
Y275819D01*
Y274320D01*
X249039D02*
Y275819D01*
X248290Y275070D01*
X249289D01*
X146796Y275819D02*
X146296D01*
X146546D01*
Y274570D01*
X146296Y274320D01*
X146046D01*
X145796Y274570D01*
X148295Y274320D02*
X147296D01*
X148295Y275320D01*
Y275570D01*
X148045Y275819D01*
X147545D01*
X147296Y275570D01*
X148795Y274070D02*
X149795D01*
X151294Y275570D02*
X151044Y275819D01*
X150545D01*
X150295Y275570D01*
Y274570D01*
X150545Y274320D01*
X151044D01*
X151294Y274570D01*
X151794Y275819D02*
Y274320D01*
Y275070D01*
X152794D01*
Y275819D01*
Y274320D01*
X153294Y275570D02*
X153544Y275819D01*
X154043D01*
X154293Y275570D01*
Y275320D01*
X154043Y275070D01*
X153793D01*
X154043D01*
X154293Y274820D01*
Y274570D01*
X154043Y274320D01*
X153544D01*
X153294Y274570D01*
X51800Y275819D02*
X51300D01*
X51550D01*
Y274570D01*
X51300Y274320D01*
X51050D01*
X50800Y274570D01*
X53299Y274320D02*
X52299D01*
X53299Y275320D01*
Y275570D01*
X53049Y275819D01*
X52549D01*
X52299Y275570D01*
X53799Y274070D02*
X54799D01*
X56298Y275570D02*
X56048Y275819D01*
X55549D01*
X55299Y275570D01*
Y274570D01*
X55549Y274320D01*
X56048D01*
X56298Y274570D01*
X56798Y275819D02*
Y274320D01*
Y275070D01*
X57798D01*
Y275819D01*
Y274320D01*
X59297D02*
X58298D01*
X59297Y275320D01*
Y275570D01*
X59047Y275819D01*
X58548D01*
X58298Y275570D01*
X6750Y36750D02*
Y35500D01*
X7000Y35250D01*
X7500D01*
X7750Y35500D01*
Y36750D01*
X8250Y36500D02*
X8500Y36750D01*
X9000D01*
X9250Y36500D01*
Y36250D01*
X9000Y36000D01*
X8750D01*
X9000D01*
X9250Y35750D01*
Y35500D01*
X9000Y35250D01*
X8500D01*
X8250Y35500D01*
X26654Y15474D02*
X26404Y15724D01*
X25904D01*
X25654Y15474D01*
Y14474D01*
X25904Y14224D01*
X26404D01*
X26654Y14474D01*
X27153Y14224D02*
X27653D01*
X27403D01*
Y15724D01*
X27153Y15474D01*
X28403Y15724D02*
X29403D01*
Y15474D01*
X28403Y14474D01*
Y14224D01*
X46720Y65512D02*
X46470Y65761D01*
X45970D01*
X45720Y65512D01*
Y64512D01*
X45970Y64262D01*
X46470D01*
X46720Y64512D01*
X47220Y64262D02*
X47719D01*
X47469D01*
Y65761D01*
X47220Y65512D01*
X49469Y65761D02*
X48969Y65512D01*
X48469Y65012D01*
Y64512D01*
X48719Y64262D01*
X49219D01*
X49469Y64512D01*
Y64762D01*
X49219Y65012D01*
X48469D01*
X46720Y47986D02*
X46470Y48236D01*
X45970D01*
X45720Y47986D01*
Y46986D01*
X45970Y46736D01*
X46470D01*
X46720Y46986D01*
X47220Y46736D02*
X47719D01*
X47469D01*
Y48236D01*
X47220Y47986D01*
X49469Y48236D02*
X48469D01*
Y47486D01*
X48969Y47736D01*
X49219D01*
X49469Y47486D01*
Y46986D01*
X49219Y46736D01*
X48719D01*
X48469Y46986D01*
X46720Y30460D02*
X46470Y30710D01*
X45970D01*
X45720Y30460D01*
Y29460D01*
X45970Y29210D01*
X46470D01*
X46720Y29460D01*
X47220Y29210D02*
X47719D01*
X47469D01*
Y30710D01*
X47220Y30460D01*
X49219Y29210D02*
Y30710D01*
X48469Y29960D01*
X49469D01*
X37830Y15474D02*
X37580Y15724D01*
X37080D01*
X36830Y15474D01*
Y14474D01*
X37080Y14224D01*
X37580D01*
X37830Y14474D01*
X38330Y14224D02*
X38829D01*
X38579D01*
Y15724D01*
X38330Y15474D01*
X39579D02*
X39829Y15724D01*
X40329D01*
X40579Y15474D01*
Y15224D01*
X40329Y14974D01*
X40079D01*
X40329D01*
X40579Y14724D01*
Y14474D01*
X40329Y14224D01*
X39829D01*
X39579Y14474D01*
X6750Y106750D02*
Y105500D01*
X7000Y105250D01*
X7500D01*
X7750Y105500D01*
Y106750D01*
X9250Y105250D02*
X8250D01*
X9250Y106250D01*
Y106500D01*
X9000Y106750D01*
X8500D01*
X8250Y106500D01*
X46720Y100564D02*
X46470Y100814D01*
X45970D01*
X45720Y100564D01*
Y99564D01*
X45970Y99314D01*
X46470D01*
X46720Y99564D01*
X47220Y99314D02*
X47719D01*
X47469D01*
Y100814D01*
X47220Y100564D01*
X49469Y99314D02*
X48469D01*
X49469Y100314D01*
Y100564D01*
X49219Y100814D01*
X48719D01*
X48469Y100564D01*
X46974Y118090D02*
X46724Y118340D01*
X46224D01*
X45974Y118090D01*
Y117090D01*
X46224Y116840D01*
X46724D01*
X46974Y117090D01*
X47474Y116840D02*
X47973D01*
X47723D01*
Y118340D01*
X47474Y118090D01*
X48723Y116840D02*
X49223D01*
X48973D01*
Y118340D01*
X48723Y118090D01*
X46720Y135616D02*
X46470Y135865D01*
X45970D01*
X45720Y135616D01*
Y134616D01*
X45970Y134366D01*
X46470D01*
X46720Y134616D01*
X47220Y134366D02*
X47719D01*
X47469D01*
Y135865D01*
X47220Y135616D01*
X48469D02*
X48719Y135865D01*
X49219D01*
X49469Y135616D01*
Y134616D01*
X49219Y134366D01*
X48719D01*
X48469Y134616D01*
Y135616D01*
X112034Y252206D02*
X111784Y251956D01*
Y251456D01*
X112034Y251206D01*
X113034D01*
X113284Y251456D01*
Y251956D01*
X113034Y252206D01*
Y252705D02*
X113284Y252955D01*
Y253455D01*
X113034Y253705D01*
X112034D01*
X111784Y253455D01*
Y252955D01*
X112034Y252705D01*
X112284D01*
X112534Y252955D01*
Y253705D01*
X47228Y155428D02*
X46978Y155677D01*
X46478D01*
X46228Y155428D01*
Y154428D01*
X46478Y154178D01*
X46978D01*
X47228Y154428D01*
X47727Y155428D02*
X47977Y155677D01*
X48477D01*
X48727Y155428D01*
Y155178D01*
X48477Y154928D01*
X48727Y154678D01*
Y154428D01*
X48477Y154178D01*
X47977D01*
X47727Y154428D01*
Y154678D01*
X47977Y154928D01*
X47727Y155178D01*
Y155428D01*
X47977Y154928D02*
X48477D01*
X147086Y252206D02*
X146837Y251956D01*
Y251456D01*
X147086Y251206D01*
X148086D01*
X148336Y251456D01*
Y251956D01*
X148086Y252206D01*
X146837Y252705D02*
Y253705D01*
X147086D01*
X148086Y252705D01*
X148336D01*
X199410Y252206D02*
X199160Y251956D01*
Y251456D01*
X199410Y251206D01*
X200410D01*
X200660Y251456D01*
Y251956D01*
X200410Y252206D01*
X199160Y253705D02*
X199410Y253205D01*
X199910Y252705D01*
X200410D01*
X200660Y252955D01*
Y253455D01*
X200410Y253705D01*
X200160D01*
X199910Y253455D01*
Y252705D01*
X47228Y83038D02*
X46978Y83287D01*
X46478D01*
X46228Y83038D01*
Y82038D01*
X46478Y81788D01*
X46978D01*
X47228Y82038D01*
X48727Y83287D02*
X47727D01*
Y82538D01*
X48227Y82788D01*
X48477D01*
X48727Y82538D01*
Y82038D01*
X48477Y81788D01*
X47977D01*
X47727Y82038D01*
X252206Y205466D02*
X251956Y205716D01*
X251456D01*
X251206Y205466D01*
Y204466D01*
X251456Y204216D01*
X251956D01*
X252206Y204466D01*
X253455Y204216D02*
Y205716D01*
X252705Y204966D01*
X253705D01*
X134386Y47228D02*
X134136Y46978D01*
Y46478D01*
X134386Y46228D01*
X135386D01*
X135636Y46478D01*
Y46978D01*
X135386Y47228D01*
X134386Y47727D02*
X134136Y47977D01*
Y48477D01*
X134386Y48727D01*
X134636D01*
X134886Y48477D01*
Y48227D01*
Y48477D01*
X135136Y48727D01*
X135386D01*
X135636Y48477D01*
Y47977D01*
X135386Y47727D01*
X252206Y152888D02*
X251956Y153138D01*
X251456D01*
X251206Y152888D01*
Y151888D01*
X251456Y151638D01*
X251956D01*
X252206Y151888D01*
X253705Y151638D02*
X252705D01*
X253705Y152638D01*
Y152888D01*
X253455Y153138D01*
X252955D01*
X252705Y152888D01*
X189504Y47482D02*
X189254Y47232D01*
Y46732D01*
X189504Y46482D01*
X190504D01*
X190754Y46732D01*
Y47232D01*
X190504Y47482D01*
X190754Y47982D02*
Y48481D01*
Y48231D01*
X189254D01*
X189504Y47982D01*
X52400Y243892D02*
Y243642D01*
X52900Y243142D01*
X53400Y243642D01*
Y243892D01*
X52900Y243142D02*
Y242392D01*
X53899D02*
X54399D01*
X54149D01*
Y243892D01*
X53899Y243642D01*
X24155Y197088D02*
Y196588D01*
Y196838D01*
X25404D01*
X25654Y196588D01*
Y196338D01*
X25404Y196088D01*
X25654Y198587D02*
Y197588D01*
X24654Y198587D01*
X24404D01*
X24155Y198337D01*
Y197837D01*
X24404Y197588D01*
X25904Y199087D02*
Y200087D01*
X24404Y201586D02*
X24155Y201336D01*
Y200837D01*
X24404Y200586D01*
X25404D01*
X25654Y200837D01*
Y201336D01*
X25404Y201586D01*
X24155Y202086D02*
X25654D01*
X24904D01*
Y203086D01*
X24155D01*
X25654D01*
Y203586D02*
Y204085D01*
Y203836D01*
X24155D01*
X24404Y203586D01*
X149098Y150851D02*
Y149602D01*
X149348Y149352D01*
X149848D01*
X150098Y149602D01*
Y150851D01*
X150597Y149352D02*
X151097D01*
X150847D01*
Y150851D01*
X150597Y150602D01*
X118186Y46304D02*
X116686D01*
Y47054D01*
X116936Y47304D01*
X117436D01*
X117686Y47054D01*
Y46304D01*
Y46804D02*
X118186Y47304D01*
Y48803D02*
Y47804D01*
X117186Y48803D01*
X116936D01*
X116686Y48553D01*
Y48053D01*
X116936Y47804D01*
X208356Y46558D02*
X206856D01*
Y47308D01*
X207106Y47558D01*
X207606D01*
X207856Y47308D01*
Y46558D01*
Y47058D02*
X208356Y47558D01*
Y48057D02*
Y48557D01*
Y48307D01*
X206856D01*
X207106Y48057D01*
X259918Y70434D02*
Y71933D01*
X260418Y71434D01*
X260918Y71933D01*
Y70434D01*
X261418D02*
X261917D01*
X261667D01*
Y71933D01*
X261418Y71684D01*
X149920Y25705D02*
X149420D01*
X149670D01*
Y24456D01*
X149420Y24206D01*
X149170D01*
X148920Y24456D01*
X150420Y24206D02*
X150919D01*
X150669D01*
Y25705D01*
X150420Y25456D01*
M02*
