G04*
G04 #@! TF.GenerationSoftware,Altium Limited,Altium Designer,25.8.1 (18)*
G04*
G04 Layer_Physical_Order=2*
G04 Layer_Color=32768*
%FSLAX44Y44*%
%MOMM*%
G71*
G04*
G04 #@! TF.SameCoordinates,89BD97E8-7FFC-4123-A3EE-04367D590976*
G04*
G04*
G04 #@! TF.FilePolarity,Negative*
G04*
G01*
G75*
%ADD58C,1.0160*%
%ADD59C,0.6000*%
%ADD60C,0.5500*%
D58*
X-0Y40000D02*
G03*
X40000Y0I40000J0D01*
G01*
X260000Y-0D02*
G03*
X300000Y40000I0J40000D01*
G01*
Y260000D02*
G03*
X260000Y300000I-40000J0D01*
G01*
X40000Y300000D02*
G03*
X-0Y260000I0J-40000D01*
G01*
X40000Y0D02*
X260000Y-0D01*
X300000Y40000D02*
Y260000D01*
X40000Y300000D02*
X260000Y300000D01*
X-0Y40000D02*
X0Y260000D01*
D59*
X46250Y20000D02*
D03*
X47500Y10000D02*
D03*
X40000Y25000D02*
D03*
X51250Y20000D02*
D03*
X10000Y237500D02*
D03*
X92500Y290000D02*
D03*
X187500D02*
D03*
X290000Y162500D02*
D03*
X279000Y257500D02*
D03*
X272500Y252500D02*
D03*
X290000Y257500D02*
D03*
X21000Y237500D02*
D03*
X27500Y242500D02*
D03*
X92500Y279000D02*
D03*
X97500Y272500D02*
D03*
X187500Y279000D02*
D03*
X192500Y272500D02*
D03*
X279000Y162500D02*
D03*
X272500Y157500D02*
D03*
X82500Y42500D02*
D03*
X267500Y194000D02*
D03*
X173750Y252500D02*
D03*
X57500Y44000D02*
D03*
X67500D02*
D03*
X72500Y41000D02*
D03*
X267500Y218000D02*
D03*
X251000Y268000D02*
D03*
X172000Y269000D02*
D03*
Y262880D02*
D03*
X263000Y222500D02*
D03*
X227000Y268000D02*
D03*
X231000Y271000D02*
D03*
X235000Y268000D02*
D03*
X243000D02*
D03*
X239000Y271000D02*
D03*
X223000Y140000D02*
D03*
X227000Y136000D02*
D03*
Y100000D02*
D03*
Y168000D02*
D03*
X267500Y202000D02*
D03*
Y210000D02*
D03*
X223000Y132000D02*
D03*
Y180000D02*
D03*
X247000Y271000D02*
D03*
X255000D02*
D03*
X281000Y204000D02*
D03*
Y198000D02*
D03*
X247000Y281000D02*
D03*
X241000D02*
D03*
X253000D02*
D03*
X263000Y271000D02*
D03*
X259000Y268000D02*
D03*
X61000Y267500D02*
D03*
X45000D02*
D03*
X51000Y281000D02*
D03*
X37000Y267500D02*
D03*
X148000Y268000D02*
D03*
X156000D02*
D03*
X144000Y271000D02*
D03*
X152000D02*
D03*
X188000Y227000D02*
D03*
X196000Y227000D02*
D03*
X212000Y227000D02*
D03*
X72000Y33000D02*
D03*
X227000Y192000D02*
D03*
X219000D02*
D03*
X57000Y281000D02*
D03*
X152000D02*
D03*
X63000D02*
D03*
X146000D02*
D03*
X41000Y271000D02*
D03*
X49000D02*
D03*
X271000Y214000D02*
D03*
Y206000D02*
D03*
Y198000D02*
D03*
Y190000D02*
D03*
X53000Y267500D02*
D03*
X57000Y271000D02*
D03*
X65000D02*
D03*
X112000Y227000D02*
D03*
X77000Y262880D02*
D03*
X112000Y219000D02*
D03*
X227000Y152000D02*
D03*
X223000Y148000D02*
D03*
X86250Y252500D02*
D03*
X77000Y269000D02*
D03*
X158000Y281000D02*
D03*
X186000Y215000D02*
D03*
X114000Y211000D02*
D03*
X103000Y24750D02*
D03*
X217500D02*
D03*
X212250Y10000D02*
D03*
X192000Y77000D02*
D03*
X172000Y223000D02*
D03*
X176000Y227000D02*
D03*
X168000D02*
D03*
X164000Y223000D02*
D03*
X144000Y227000D02*
D03*
X124000Y223000D02*
D03*
X132000D02*
D03*
X128000Y227000D02*
D03*
X148000Y223000D02*
D03*
X156000D02*
D03*
X160000Y227000D02*
D03*
X136000D02*
D03*
X32500Y260000D02*
D03*
X243750Y252500D02*
D03*
X204000Y227000D02*
D03*
X192000Y223000D02*
D03*
Y217000D02*
D03*
X73000Y124000D02*
D03*
X227000Y208000D02*
D03*
Y200000D02*
D03*
X73000Y164000D02*
D03*
Y148000D02*
D03*
X19000Y208000D02*
D03*
X29000Y194000D02*
D03*
Y218000D02*
D03*
X32500Y214000D02*
D03*
Y198000D02*
D03*
Y190000D02*
D03*
Y182000D02*
D03*
X29000Y186000D02*
D03*
X73000Y172000D02*
D03*
Y180000D02*
D03*
X42500Y145000D02*
D03*
X47500D02*
D03*
X77000Y128000D02*
D03*
Y136000D02*
D03*
Y152000D02*
D03*
Y160000D02*
D03*
Y168000D02*
D03*
Y176000D02*
D03*
X29000Y210000D02*
D03*
X19000Y202000D02*
D03*
Y196000D02*
D03*
X73000Y96000D02*
D03*
X77000Y120000D02*
D03*
X73000Y116000D02*
D03*
Y108000D02*
D03*
X52500Y145000D02*
D03*
X73000Y132000D02*
D03*
X77000Y144000D02*
D03*
X73000Y140000D02*
D03*
X160000Y271000D02*
D03*
X281000Y192000D02*
D03*
X252500Y178750D02*
D03*
X136000Y271000D02*
D03*
X140000Y268000D02*
D03*
X132000D02*
D03*
X127500Y263000D02*
D03*
X37000Y177500D02*
D03*
X88000Y227000D02*
D03*
Y219000D02*
D03*
X77000Y112000D02*
D03*
X82500Y24750D02*
D03*
X29000Y202000D02*
D03*
X32500Y206000D02*
D03*
X47500Y198500D02*
D03*
X73000Y216000D02*
D03*
X81000Y108000D02*
D03*
X211000Y205000D02*
D03*
X223000Y172000D02*
D03*
Y188000D02*
D03*
X227000Y184000D02*
D03*
X223000Y164000D02*
D03*
X92000Y223000D02*
D03*
Y215000D02*
D03*
Y209000D02*
D03*
X271000Y182000D02*
D03*
X267500Y186000D02*
D03*
X73000Y196000D02*
D03*
X77000Y192000D02*
D03*
Y184000D02*
D03*
X73000Y188000D02*
D03*
X179000Y215000D02*
D03*
X217500Y47500D02*
D03*
X174000D02*
D03*
X166000D02*
D03*
X115000Y79000D02*
D03*
X109000Y79000D02*
D03*
X132000Y73000D02*
D03*
X144000Y77000D02*
D03*
X166000Y75000D02*
D03*
X170000Y79000D02*
D03*
X123000D02*
D03*
X129000D02*
D03*
X131000Y93000D02*
D03*
X222100Y266050D02*
D03*
X294000Y135000D02*
D03*
Y125000D02*
D03*
X227000Y128000D02*
D03*
X247000Y125000D02*
D03*
Y119000D02*
D03*
X267000Y76000D02*
D03*
X268000Y115000D02*
D03*
X47000Y245000D02*
D03*
X135000Y31000D02*
D03*
X129000D02*
D03*
X122000Y37120D02*
D03*
X146000Y19000D02*
D03*
X170000Y43000D02*
D03*
X162000D02*
D03*
X138000Y19000D02*
D03*
X142000Y23000D02*
D03*
X141000Y31000D02*
D03*
X150000D02*
D03*
X157000Y29000D02*
D03*
X162000D02*
D03*
X167000D02*
D03*
X207000Y196000D02*
D03*
D60*
X66250Y10000D02*
D03*
X79500Y16000D02*
D03*
M02*
