G04*
G04 #@! TF.GenerationSoftware,Altium Limited,Altium Designer,25.3.3 (18)*
G04*
G04 Layer_Physical_Order=4*
G04 Layer_Color=16711680*
%FSLAX44Y44*%
%MOMM*%
G71*
G04*
G04 #@! TF.SameCoordinates,3D6F95C3-3EEA-4EE9-ABCE-244942E3EF3B*
G04*
G04*
G04 #@! TF.FilePolarity,Positive*
G04*
G01*
G75*
%ADD10C,0.1000*%
%ADD56C,0.3500*%
%ADD57C,0.4000*%
D10*
X51000Y10000D02*
X67500Y26500D01*
X47500Y10000D02*
X51000D01*
X77500Y18000D02*
X79500Y16000D01*
X77500Y18000D02*
Y36000D01*
X66250Y10000D02*
X72000Y15750D01*
Y33000D01*
X67500Y26500D02*
Y44000D01*
X67500Y44000D02*
X67500Y44000D01*
X82500Y42500D02*
Y72500D01*
X10000Y145000D02*
X82500Y72500D01*
X10000Y145000D02*
Y226500D01*
X172000Y269000D02*
X182000Y259000D01*
X172000Y262880D02*
X180000Y254880D01*
X253000Y218000D02*
X267500D01*
X227000Y168000D02*
X257000Y198000D01*
X253000Y210000D02*
X267500D01*
X228000Y188000D02*
X254000Y214000D01*
X251000Y251000D02*
Y268000D01*
X280000Y198000D02*
X281000D01*
X275000Y198000D02*
X281000Y204000D01*
X247000Y281000D02*
X251000Y277000D01*
X263000D01*
X267000Y273000D01*
X262000Y281000D02*
X269000Y274000D01*
Y242000D02*
Y274000D01*
X253000Y281000D02*
X262000D01*
X279000Y257500D02*
Y269000D01*
X263000Y285000D02*
X279000Y269000D01*
X85500Y286000D02*
X92500Y279000D01*
X72500Y41000D02*
X77500Y36000D01*
X227000Y192000D02*
X253000Y218000D01*
X57000Y281000D02*
X61000Y277000D01*
X257000Y198000D02*
X271000D01*
X254000Y214000D02*
X271000D01*
X279000Y162500D02*
X285000Y168500D01*
X223000Y140000D02*
X228000D01*
Y132000D02*
X275000Y179000D01*
Y198000D01*
X223000Y132000D02*
X228000D01*
X237000Y277000D02*
X241000Y281000D01*
X21000Y263000D02*
X44000Y286000D01*
X21000Y237500D02*
Y263000D01*
X10000Y226500D02*
X21000Y237500D01*
X51000Y281000D02*
X57000Y275000D01*
X67000D01*
X44000Y286000D02*
X85500D01*
X108000Y223000D02*
X112000Y219000D01*
X61000Y277000D02*
X74000D01*
X106000Y245000D01*
X73000Y281000D02*
X108000Y246000D01*
X63000Y281000D02*
X73000D01*
X108000Y223000D02*
Y246000D01*
X181500Y285000D02*
X187500Y279000D01*
X186000Y215000D02*
X186086D01*
X188086Y213000D01*
X106000Y219000D02*
X114000Y211000D01*
X106000Y219000D02*
Y245000D01*
X97250Y10000D02*
X212250D01*
X172000Y223000D02*
X172000Y223000D01*
X144000Y271000D02*
X144000Y271000D01*
Y227000D02*
Y271000D01*
X144000Y227000D02*
X144000Y227000D01*
X148000Y236000D02*
X156000Y228000D01*
X148000Y236000D02*
Y268000D01*
X156000Y222500D02*
Y228000D01*
X152000Y235000D02*
Y271000D01*
Y235000D02*
X160000Y227000D01*
X156000Y236000D02*
X164000Y228000D01*
X156000Y236000D02*
Y268000D01*
X164000Y222500D02*
Y228000D01*
X160000Y235000D02*
X168000Y227000D01*
X164000Y236000D02*
X172000Y228000D01*
Y223000D02*
Y228000D01*
X167000Y236000D02*
X176000Y227000D01*
Y227000D02*
Y227000D01*
X136000Y227000D02*
X140000Y231000D01*
X132000Y223000D02*
Y228000D01*
X136000Y232000D01*
X128000Y227000D02*
X132000Y231000D01*
X61000Y246000D02*
Y267500D01*
X65000Y245050D02*
Y271000D01*
X57000Y247000D02*
Y271000D01*
X53000Y248000D02*
Y267500D01*
X226525Y267525D02*
X227000Y268000D01*
X188000Y227000D02*
X226525Y265525D01*
Y267525D01*
X231000Y267000D02*
Y271000D01*
X192000Y228000D02*
X231000Y267000D01*
X196000Y227000D02*
X196475Y227475D01*
Y229475D02*
X235000Y268000D01*
X196475Y227475D02*
Y229475D01*
X210009Y213000D02*
X247900Y250891D01*
X211000Y217000D02*
X240000Y246000D01*
X239000Y266743D02*
Y271000D01*
X212000Y239743D02*
X239000Y266743D01*
X212000Y227000D02*
Y239743D01*
X240000Y246000D02*
Y255000D01*
X243000Y258000D01*
Y268000D01*
X247000Y257000D02*
X247900Y256100D01*
X247000Y257000D02*
Y271000D01*
X247900Y250891D02*
Y256100D01*
X73500Y246500D02*
Y265500D01*
X77000Y269000D01*
Y245828D02*
Y262880D01*
X188086Y213000D02*
X210009D01*
X192000Y217000D02*
X211000D01*
X192000Y223000D02*
Y228000D01*
X227000Y200000D02*
X269000Y242000D01*
X36000Y199450D02*
X65000Y170450D01*
X36000Y199450D02*
Y199450D01*
X33450Y202000D02*
X36000Y199450D01*
X32500Y198000D02*
X32828D01*
X69000Y168000D02*
X73000Y164000D01*
X65000Y148000D02*
Y170450D01*
X67000Y149000D02*
Y171500D01*
Y149000D02*
X72000Y144000D01*
X73000Y172000D02*
X78000D01*
X77000Y269000D02*
X77828D01*
X73000Y180000D02*
X78000D01*
X77000Y176000D02*
X87000Y186000D01*
X78000Y180000D02*
X85000Y187000D01*
X19000Y196000D02*
X23000Y192000D01*
X15000Y204000D02*
X19000Y208000D01*
Y202000D02*
X25000Y196000D01*
X73000Y116000D02*
X78000D01*
X32828Y198000D02*
X63000Y167828D01*
X73000Y132000D02*
X106000D01*
X34000Y194000D02*
X61000Y167000D01*
Y136000D02*
X73000Y124000D01*
X61000Y136000D02*
Y167000D01*
X32500Y190000D02*
X59000Y163500D01*
X29000Y194000D02*
X34000D01*
X59000Y125000D02*
Y163500D01*
X106000Y132000D02*
X106000Y132000D01*
X59000Y125000D02*
X72000Y112000D01*
X72000Y144000D02*
X77000D01*
X65000Y148000D02*
X73000Y140000D01*
X63000Y145000D02*
X72000Y136000D01*
X77000D01*
X63000Y145000D02*
Y167828D01*
X67000Y275000D02*
X70000Y272000D01*
Y245000D02*
Y272000D01*
X164000Y236000D02*
Y272172D01*
X158000Y281000D02*
X167000Y272000D01*
Y236000D02*
Y272000D01*
X160000Y235000D02*
Y271000D01*
X142000Y277000D02*
X146000Y281000D01*
X156000Y277000D02*
X159172D01*
X164000Y272172D01*
X152000Y281000D02*
X156000Y277000D01*
X277000Y178000D02*
Y195000D01*
X280000Y198000D01*
X140000Y268000D02*
X140000Y268000D01*
X136000Y232000D02*
Y271000D01*
X140000Y231000D02*
Y268000D01*
X132000Y268000D02*
X132000Y268000D01*
Y231000D02*
Y268000D01*
X136000Y277000D02*
X142000D01*
X124000Y223000D02*
Y265000D01*
X136000Y277000D01*
X53000Y248000D02*
X82000Y219000D01*
X57000Y247000D02*
X84000Y220000D01*
X70000Y245000D02*
X88000Y227000D01*
X61000Y246000D02*
X88000Y219000D01*
X72000Y112000D02*
X77000D01*
Y120000D02*
X87000Y110000D01*
X82000Y100000D02*
X87000Y105000D01*
Y110000D01*
X82500Y24750D02*
X97250Y10000D01*
X98000Y189000D02*
Y224828D01*
X77000Y245828D02*
X98000Y224828D01*
X77000Y168000D02*
X98000Y189000D01*
X84000Y217000D02*
Y220000D01*
Y217000D02*
X86000Y215000D01*
X225000Y285000D02*
X263000D01*
X219000Y279000D02*
X225000Y285000D01*
X187500Y279000D02*
X219000D01*
X135000Y285000D02*
X181500D01*
X92500Y279000D02*
X129000D01*
X135000Y285000D01*
X81000Y191000D02*
Y194000D01*
X83000Y190000D02*
Y195000D01*
X85000Y187000D02*
Y196000D01*
X87000Y186000D02*
Y197000D01*
X29000Y202000D02*
X33450D01*
X32500Y206000D02*
X67000Y171500D01*
X69000Y168000D02*
Y182000D01*
X29000Y210000D02*
X41000D01*
X69000Y182000D01*
X32500Y214000D02*
X40000D01*
X62000Y192000D01*
X39000Y218000D02*
X61000Y196000D01*
X29000Y218000D02*
X39000D01*
X82000Y216000D02*
Y219000D01*
X77000Y104000D02*
X81000Y108000D01*
Y102000D02*
X85000Y106000D01*
Y109000D01*
X78000Y116000D02*
X85000Y109000D01*
X255000Y252000D02*
Y271000D01*
X267000Y255000D02*
Y273000D01*
X259000Y253000D02*
Y268000D01*
X263000Y254000D02*
Y271000D01*
X219000Y192000D02*
Y207000D01*
X217000Y208000D02*
X263000Y254000D01*
X219000Y207000D02*
X267000Y255000D01*
X210914Y207914D02*
X255000Y252000D01*
X215000Y209000D02*
X259000Y253000D01*
X210914Y205086D02*
X211000Y205000D01*
X210914Y205086D02*
Y207914D01*
X207000Y207000D02*
X251000Y251000D01*
X223000Y188000D02*
X228000D01*
X227000Y184000D02*
X253000Y210000D01*
Y202000D02*
X267500D01*
X223000Y172000D02*
X253000Y202000D01*
X223000Y180000D02*
X228000D01*
X254000Y206000D02*
X271000D01*
X228000Y180000D02*
X254000Y206000D01*
X228000Y164000D02*
X258000Y194000D01*
X267500D01*
X223000Y164000D02*
X228000D01*
X257000Y190000D02*
X271000D01*
X227000Y160000D02*
X257000Y190000D01*
X227000Y152000D02*
Y160000D01*
X89000Y209000D02*
X92000D01*
X73500Y246500D02*
X96000Y224000D01*
X78000Y172000D02*
X96000Y190000D01*
X65000Y245050D02*
X87000Y223050D01*
X96000Y190000D02*
Y224000D01*
X86000Y215000D02*
X92000D01*
X87000Y223000D02*
X92000D01*
X82000Y216000D02*
X89000Y209000D01*
X87000Y223000D02*
Y223050D01*
X228000Y140000D02*
X267500Y179500D01*
Y186000D01*
X227000Y136000D02*
X271000Y180000D01*
Y182000D01*
X78000Y188000D02*
X81000Y191000D01*
X61000Y196000D02*
X73000D01*
X62000Y192000D02*
X77000D01*
X73000Y188000D02*
X78000D01*
X77000Y184000D02*
X83000Y190000D01*
X179000Y215000D02*
X184000Y220000D01*
X106000Y148000D02*
X182000Y224000D01*
X107000Y152000D02*
X180000Y225000D01*
Y254880D01*
X77000Y152000D02*
X107000D01*
X182000Y224000D02*
Y259000D01*
X73000Y148000D02*
X106000D01*
X174000Y47500D02*
X217500D01*
X32500Y148500D02*
Y182000D01*
Y148500D02*
X73000Y108000D01*
X29000Y138000D02*
Y186000D01*
Y138000D02*
X63000Y104000D01*
X77000D01*
X25000Y139000D02*
X62000Y102000D01*
X25000Y139000D02*
Y196000D01*
X62000Y102000D02*
X81000D01*
X61000Y100000D02*
X82000D01*
X23000Y138000D02*
Y192000D01*
Y138000D02*
X61000Y100000D01*
X62000Y96000D02*
X73000D01*
X15000Y143000D02*
X62000Y96000D01*
X15000Y143000D02*
Y204000D01*
X166000Y47500D02*
Y75000D01*
X123000Y78914D02*
X125000Y76914D01*
X123000Y78914D02*
Y79000D01*
X129000Y78914D02*
Y79000D01*
X127000Y76914D02*
X129000Y78914D01*
X119000Y81000D02*
X131000Y93000D01*
X184000Y236000D02*
X225000Y277000D01*
X237000D01*
X184000Y220000D02*
Y236000D01*
X227000Y128000D02*
X277000Y178000D01*
X227000Y100000D02*
Y123000D01*
X281000Y177000D01*
Y192000D01*
X247000Y125000D02*
X257000Y135000D01*
X294000D01*
X247000Y119000D02*
X253000Y125000D01*
X294000D01*
X66500Y214500D02*
X85000Y196000D01*
X43000Y235000D02*
X53000Y225000D01*
X59000D02*
X87000Y197000D01*
X53000Y225000D02*
X59000D01*
X52000Y223000D02*
X57828D01*
X66414Y214414D01*
X41000Y234000D02*
X52000Y223000D01*
X57000Y221000D02*
X83000Y195000D01*
X51000Y221000D02*
X57000D01*
X39000Y233000D02*
X51000Y221000D01*
X37000Y232000D02*
Y267500D01*
X50000Y219000D02*
X56000D01*
X37000Y232000D02*
X50000Y219000D01*
X56000D02*
X81000Y194000D01*
X41000Y261000D02*
Y271000D01*
X39000Y233000D02*
Y259000D01*
X41000Y261000D01*
Y234000D02*
Y258000D01*
X45000Y262000D02*
Y267500D01*
X45000Y267500D01*
X41000Y258000D02*
X45000Y262000D01*
X49000D02*
Y271000D01*
X43000Y235000D02*
Y256000D01*
X49000Y262000D01*
X285000Y168500D02*
Y215000D01*
X279000Y221000D02*
X285000Y215000D01*
X279000Y221000D02*
Y257500D01*
X135000Y31000D02*
Y31086D01*
X119000Y40120D02*
Y81000D01*
X129000Y31000D02*
Y31086D01*
X119000Y40120D02*
X122000Y37120D01*
X133000Y33086D02*
X135000Y31086D01*
X129000Y31086D02*
X131000Y33086D01*
X131000Y51172D02*
X131000D01*
X131828Y53172D02*
X133000Y52000D01*
X127000Y58000D02*
Y76914D01*
X125000Y57172D02*
X131000Y51172D01*
X131000Y33086D02*
Y51172D01*
X127000Y58000D02*
X131828Y53172D01*
X125000Y57172D02*
Y76914D01*
X131828Y53172D02*
X131828D01*
X133000Y33086D02*
Y52000D01*
X170000Y43000D02*
Y79000D01*
X144000Y61000D02*
Y77000D01*
Y61000D02*
X162000Y43000D01*
X115000Y37000D02*
X125000Y27000D01*
X115000Y37000D02*
Y79000D01*
X109000Y40000D02*
Y79000D01*
Y40000D02*
X124000Y25000D01*
X138000D02*
X140000Y27000D01*
X137000D02*
X141000Y31000D01*
X124000Y25000D02*
X138000D01*
X125000Y27000D02*
X137000D01*
X146000D02*
X150000Y31000D01*
X140000Y27000D02*
X146000D01*
X207000Y196000D02*
Y207000D01*
X215000Y198000D02*
Y209000D01*
X106000Y132000D02*
X149000D01*
X215000Y198000D01*
X77000Y128000D02*
X148000D01*
X217000Y197000D02*
Y208000D01*
X148000Y128000D02*
X217000Y197000D01*
D56*
X40000Y97500D02*
D03*
X66250Y10000D02*
D03*
X79500Y16000D02*
D03*
X53750Y69500D02*
D03*
X47500Y38750D02*
D03*
D57*
Y126250D02*
D03*
X46250Y20000D02*
D03*
X47500Y10000D02*
D03*
X40000Y25000D02*
D03*
X51250Y20000D02*
D03*
X30000Y117500D02*
D03*
X15000D02*
D03*
Y107500D02*
D03*
X30000D02*
D03*
X22500Y112500D02*
D03*
X30000Y47500D02*
D03*
X15000D02*
D03*
X30000Y37500D02*
D03*
X15000D02*
D03*
X22500Y42500D02*
D03*
X252500Y232500D02*
D03*
X10000Y237500D02*
D03*
X92500Y290000D02*
D03*
X187500D02*
D03*
X290000Y162500D02*
D03*
X279000Y257500D02*
D03*
X272500Y245000D02*
D03*
Y252500D02*
D03*
X290000Y257500D02*
D03*
Y237500D02*
D03*
X207500Y290000D02*
D03*
X112500Y290000D02*
D03*
X10000Y256250D02*
D03*
X290000Y142500D02*
D03*
X21000Y237500D02*
D03*
X27500Y250000D02*
D03*
Y242500D02*
D03*
X92500Y279000D02*
D03*
X105000Y272500D02*
D03*
X97500D02*
D03*
X187500Y279000D02*
D03*
X200000Y272500D02*
D03*
X192500D02*
D03*
X279000Y162500D02*
D03*
X272500Y150000D02*
D03*
Y157500D02*
D03*
X82500Y42500D02*
D03*
X267500Y194000D02*
D03*
X275500Y97500D02*
D03*
X173750Y252500D02*
D03*
X90000Y42500D02*
D03*
X197500Y15250D02*
D03*
Y35000D02*
D03*
X102500Y52500D02*
D03*
X57500Y44000D02*
D03*
X62500Y41000D02*
D03*
X67500Y44000D02*
D03*
X72500Y41000D02*
D03*
X63000Y76000D02*
D03*
X267500Y218000D02*
D03*
X251000Y268000D02*
D03*
X172000Y269000D02*
D03*
Y262880D02*
D03*
X263000Y222500D02*
D03*
X227000Y268000D02*
D03*
X231000Y271000D02*
D03*
X235000Y268000D02*
D03*
X243000D02*
D03*
X239000Y271000D02*
D03*
X223000Y140000D02*
D03*
X227000Y136000D02*
D03*
Y100000D02*
D03*
Y168000D02*
D03*
X267500Y202000D02*
D03*
Y210000D02*
D03*
X223000Y132000D02*
D03*
Y180000D02*
D03*
X247000Y271000D02*
D03*
X255000D02*
D03*
X213000Y260000D02*
D03*
X281000Y204000D02*
D03*
Y198000D02*
D03*
X247000Y281000D02*
D03*
X241000D02*
D03*
X253000D02*
D03*
X263000Y271000D02*
D03*
X259000Y268000D02*
D03*
X61000Y267500D02*
D03*
X45000D02*
D03*
X51000Y281000D02*
D03*
X37000Y267500D02*
D03*
X148000Y268000D02*
D03*
X156000D02*
D03*
X144000Y271000D02*
D03*
X152000D02*
D03*
X188000Y227000D02*
D03*
X196000Y227000D02*
D03*
X212000Y227000D02*
D03*
X72000Y33000D02*
D03*
X227000Y192000D02*
D03*
X219000D02*
D03*
X57000Y281000D02*
D03*
X152000D02*
D03*
X63000D02*
D03*
X146000D02*
D03*
X41000Y271000D02*
D03*
X49000D02*
D03*
X271000Y214000D02*
D03*
Y206000D02*
D03*
Y198000D02*
D03*
Y190000D02*
D03*
X235000Y281000D02*
D03*
X45000D02*
D03*
X53000Y267500D02*
D03*
X57000Y271000D02*
D03*
X65000D02*
D03*
X112000Y227000D02*
D03*
X77000Y262880D02*
D03*
X112000Y219000D02*
D03*
X116000Y223000D02*
D03*
X227000Y152000D02*
D03*
Y144000D02*
D03*
X223000Y148000D02*
D03*
X86250Y252500D02*
D03*
X77000Y269000D02*
D03*
X158000Y281000D02*
D03*
X186000Y215000D02*
D03*
X114000Y211000D02*
D03*
X103000Y24750D02*
D03*
X217500D02*
D03*
X212250Y10000D02*
D03*
X87750D02*
D03*
X188000Y73000D02*
D03*
X192000Y77000D02*
D03*
X172000Y223000D02*
D03*
X176000Y227000D02*
D03*
X168000D02*
D03*
X164000Y223000D02*
D03*
X144000Y227000D02*
D03*
X124000Y223000D02*
D03*
X132000D02*
D03*
X128000Y227000D02*
D03*
X148000Y223000D02*
D03*
X152000Y227000D02*
D03*
X156000Y223000D02*
D03*
X160000Y227000D02*
D03*
X136000D02*
D03*
X32500Y260000D02*
D03*
X243750Y252500D02*
D03*
X204000Y227000D02*
D03*
X200000Y223000D02*
D03*
X192000D02*
D03*
Y217000D02*
D03*
X73000Y156000D02*
D03*
Y124000D02*
D03*
X227000Y208000D02*
D03*
Y200000D02*
D03*
X73000Y164000D02*
D03*
Y148000D02*
D03*
X19000Y208000D02*
D03*
X29000Y194000D02*
D03*
Y218000D02*
D03*
X32500Y214000D02*
D03*
Y198000D02*
D03*
Y190000D02*
D03*
Y182000D02*
D03*
X29000Y186000D02*
D03*
X73000Y172000D02*
D03*
Y180000D02*
D03*
X42500Y145000D02*
D03*
X47500D02*
D03*
X77000Y128000D02*
D03*
Y136000D02*
D03*
Y152000D02*
D03*
Y160000D02*
D03*
Y168000D02*
D03*
Y176000D02*
D03*
X29000Y210000D02*
D03*
X19000Y202000D02*
D03*
Y196000D02*
D03*
Y190000D02*
D03*
X73000Y96000D02*
D03*
X77000Y120000D02*
D03*
X73000Y116000D02*
D03*
Y108000D02*
D03*
X52500Y145000D02*
D03*
X73000Y132000D02*
D03*
X77000Y144000D02*
D03*
X73000Y140000D02*
D03*
X160000Y271000D02*
D03*
X140000Y281000D02*
D03*
X281000Y192000D02*
D03*
X252500Y178750D02*
D03*
X136000Y271000D02*
D03*
X140000Y268000D02*
D03*
X132000D02*
D03*
X127500Y263000D02*
D03*
X118000Y260000D02*
D03*
X37000Y177500D02*
D03*
X40000Y168000D02*
D03*
X88000Y227000D02*
D03*
Y219000D02*
D03*
X77000Y112000D02*
D03*
X82500Y24750D02*
D03*
X281000Y210000D02*
D03*
X63436Y231786D02*
D03*
X29000Y202000D02*
D03*
X32500Y206000D02*
D03*
X47500Y198500D02*
D03*
X73000Y216000D02*
D03*
X77000Y212000D02*
D03*
X81000Y108000D02*
D03*
X223000Y204000D02*
D03*
X211000Y205000D02*
D03*
X223000Y172000D02*
D03*
Y188000D02*
D03*
X227000Y184000D02*
D03*
X223000Y164000D02*
D03*
X92000Y223000D02*
D03*
Y215000D02*
D03*
Y209000D02*
D03*
X271000Y182000D02*
D03*
X267500Y186000D02*
D03*
X73000Y196000D02*
D03*
X77000Y192000D02*
D03*
Y184000D02*
D03*
X73000Y188000D02*
D03*
X179000Y215000D02*
D03*
X217500Y47500D02*
D03*
X174000D02*
D03*
X166000D02*
D03*
X115000Y79000D02*
D03*
X109000Y79000D02*
D03*
X132000Y73000D02*
D03*
X136000Y77000D02*
D03*
X144000D02*
D03*
X166000Y75000D02*
D03*
X170000Y79000D02*
D03*
X123000D02*
D03*
X129000D02*
D03*
X131000Y93000D02*
D03*
X222100Y266050D02*
D03*
X275000Y82500D02*
D03*
X294000Y100000D02*
D03*
Y135000D02*
D03*
Y125000D02*
D03*
X227000Y128000D02*
D03*
X247000Y125000D02*
D03*
Y119000D02*
D03*
X267000Y76000D02*
D03*
X268000Y115000D02*
D03*
X47000Y245000D02*
D03*
X54000Y229500D02*
D03*
X62500Y27500D02*
D03*
X164000Y20000D02*
D03*
X169000D02*
D03*
X174000D02*
D03*
X179000D02*
D03*
X135000Y31000D02*
D03*
X129000D02*
D03*
X122000Y37120D02*
D03*
X146000Y19000D02*
D03*
X170000Y43000D02*
D03*
X162000D02*
D03*
X138000Y19000D02*
D03*
X142000Y23000D02*
D03*
X141000Y31000D02*
D03*
X150000D02*
D03*
X157000Y29000D02*
D03*
X162000D02*
D03*
X167000D02*
D03*
X289500Y109000D02*
D03*
X207000Y196000D02*
D03*
M02*
