G04*
G04 #@! TF.GenerationSoftware,Altium Limited,Altium Designer,25.3.3 (18)*
G04*
G04 Layer_Color=8421504*
%FSLAX44Y44*%
%MOMM*%
G71*
G04*
G04 #@! TF.SameCoordinates,3D6F95C3-3EEA-4EE9-ABCE-244942E3EF3B*
G04*
G04*
G04 #@! TF.FilePolarity,Positive*
G04*
G01*
G75*
%ADD12R,0.5000X0.2500*%
%ADD13R,2.4000X1.6500*%
%ADD14R,0.2400X0.6000*%
%ADD15R,0.7000X0.4000*%
%ADD16R,0.4000X0.7000*%
%ADD17R,1.0000X2.7000*%
%ADD18R,0.3200X0.6500*%
%ADD19R,0.2200X0.4750*%
%ADD20R,0.4750X0.2200*%
%ADD21R,0.6500X0.3200*%
%ADD22R,1.4500X0.2000*%
%ADD23R,0.2000X1.4500*%
%ADD24R,0.3000X0.4500*%
%ADD25R,0.5500X0.5500*%
%ADD26R,0.7800X0.6800*%
%ADD27C,0.2500*%
%ADD28R,0.8000X1.3000*%
%ADD29R,0.3000X0.5000*%
%ADD30R,0.5000X0.3000*%
D12*
X8000Y110000D02*
D03*
Y115000D02*
D03*
X37000Y110000D02*
D03*
Y115000D02*
D03*
Y45000D02*
D03*
Y40000D02*
D03*
X8000Y45000D02*
D03*
Y40000D02*
D03*
D13*
X22500Y112500D02*
D03*
Y42500D02*
D03*
D14*
X32500Y98500D02*
D03*
X27500D02*
D03*
X22500D02*
D03*
X17500D02*
D03*
X12500D02*
D03*
Y126500D02*
D03*
X17500D02*
D03*
X22500D02*
D03*
X27500D02*
D03*
X32500D02*
D03*
Y56500D02*
D03*
X27500D02*
D03*
X22500D02*
D03*
X17500D02*
D03*
X12500D02*
D03*
Y28500D02*
D03*
X17500D02*
D03*
X22500D02*
D03*
X27500D02*
D03*
X32500D02*
D03*
D15*
X47500Y104500D02*
D03*
Y95500D02*
D03*
Y113000D02*
D03*
Y122000D02*
D03*
X27500Y10500D02*
D03*
Y19500D02*
D03*
X38750D02*
D03*
Y10500D02*
D03*
X47500Y25500D02*
D03*
Y34500D02*
D03*
X252500Y157000D02*
D03*
Y148000D02*
D03*
Y209500D02*
D03*
Y200500D02*
D03*
X47500Y87000D02*
D03*
Y78000D02*
D03*
Y159500D02*
D03*
Y150500D02*
D03*
Y130500D02*
D03*
Y139500D02*
D03*
Y43000D02*
D03*
Y52000D02*
D03*
Y69500D02*
D03*
Y60500D02*
D03*
Y168000D02*
D03*
Y177000D02*
D03*
X10000Y260500D02*
D03*
Y269500D02*
D03*
X252500Y227000D02*
D03*
Y218000D02*
D03*
X102500Y47000D02*
D03*
Y38000D02*
D03*
X290000Y148000D02*
D03*
Y157000D02*
D03*
Y243000D02*
D03*
Y252000D02*
D03*
X10000Y252000D02*
D03*
Y243000D02*
D03*
X47500Y185500D02*
D03*
Y194500D02*
D03*
X252500Y192000D02*
D03*
Y183000D02*
D03*
X47500Y211500D02*
D03*
Y202500D02*
D03*
X252500Y165500D02*
D03*
Y174500D02*
D03*
X47500Y229500D02*
D03*
Y220500D02*
D03*
D16*
X70500Y10000D02*
D03*
X79500D02*
D03*
X62000D02*
D03*
X53000D02*
D03*
X185500Y47500D02*
D03*
X194500D02*
D03*
X130500D02*
D03*
X139500D02*
D03*
X195500Y252500D02*
D03*
X204500D02*
D03*
X143000D02*
D03*
X152000D02*
D03*
X108000D02*
D03*
X117000D02*
D03*
X125500D02*
D03*
X134500D02*
D03*
X213000D02*
D03*
X222000D02*
D03*
X67000Y60000D02*
D03*
X58000D02*
D03*
X289500Y115000D02*
D03*
X280500D02*
D03*
Y82500D02*
D03*
X289500D02*
D03*
X203000Y35000D02*
D03*
X212000D02*
D03*
X202000Y290000D02*
D03*
X193000D02*
D03*
X107000D02*
D03*
X98000D02*
D03*
X212000Y47500D02*
D03*
X203000D02*
D03*
X122000D02*
D03*
X113000D02*
D03*
X73000Y252500D02*
D03*
X82000D02*
D03*
X160500D02*
D03*
X169500D02*
D03*
X230500D02*
D03*
X239500D02*
D03*
X99500D02*
D03*
X90500D02*
D03*
X187000D02*
D03*
X178000D02*
D03*
X257000D02*
D03*
X248000D02*
D03*
X289500Y125000D02*
D03*
X280500D02*
D03*
X289500Y135000D02*
D03*
X280500D02*
D03*
D17*
X11500Y147500D02*
D03*
X33500D02*
D03*
Y77500D02*
D03*
X11500D02*
D03*
D18*
X116500Y14150D02*
D03*
X183500D02*
D03*
Y35850D02*
D03*
X116500D02*
D03*
X82500Y285850D02*
D03*
X27500D02*
D03*
Y264150D02*
D03*
X82500D02*
D03*
X177500Y285850D02*
D03*
X122500D02*
D03*
Y264150D02*
D03*
X177500D02*
D03*
X272500Y285850D02*
D03*
X217500D02*
D03*
Y264150D02*
D03*
X272500D02*
D03*
D19*
X174000Y37120D02*
D03*
X170000D02*
D03*
X166000D02*
D03*
X162000D02*
D03*
X158000D02*
D03*
X154000D02*
D03*
X150000D02*
D03*
X146000D02*
D03*
X142000D02*
D03*
X138000D02*
D03*
X134000D02*
D03*
X130000D02*
D03*
X126000D02*
D03*
X174000Y12875D02*
D03*
X170000D02*
D03*
X166000D02*
D03*
X162000D02*
D03*
X158000D02*
D03*
X154000D02*
D03*
X150000D02*
D03*
X146000D02*
D03*
X142000D02*
D03*
X138000D02*
D03*
X134000D02*
D03*
X130000D02*
D03*
X126000D02*
D03*
X57000Y287120D02*
D03*
X53000D02*
D03*
X61000D02*
D03*
X49000D02*
D03*
X73000D02*
D03*
X69000D02*
D03*
X65000D02*
D03*
X37000Y262880D02*
D03*
X41000D02*
D03*
X45000D02*
D03*
X49000D02*
D03*
X53000D02*
D03*
X57000D02*
D03*
X61000D02*
D03*
X65000D02*
D03*
X69000D02*
D03*
X73000D02*
D03*
X37000Y287120D02*
D03*
X41000D02*
D03*
X45000D02*
D03*
X152000D02*
D03*
X148000D02*
D03*
X156000D02*
D03*
X144000D02*
D03*
X168000D02*
D03*
X164000D02*
D03*
X160000D02*
D03*
X132000Y262880D02*
D03*
X136000D02*
D03*
X140000D02*
D03*
X144000D02*
D03*
X148000D02*
D03*
X152000D02*
D03*
X156000D02*
D03*
X160000D02*
D03*
X164000D02*
D03*
X168000D02*
D03*
X132000Y287120D02*
D03*
X136000D02*
D03*
X140000D02*
D03*
X247000D02*
D03*
X243000D02*
D03*
X251000D02*
D03*
X239000D02*
D03*
X263000D02*
D03*
X259000D02*
D03*
X255000D02*
D03*
X227000Y262880D02*
D03*
X231000D02*
D03*
X235000D02*
D03*
X239000D02*
D03*
X243000D02*
D03*
X247000D02*
D03*
X251000D02*
D03*
X255000D02*
D03*
X259000D02*
D03*
X263000D02*
D03*
X227000Y287120D02*
D03*
X231000D02*
D03*
X235000D02*
D03*
D20*
X12880Y202000D02*
D03*
Y198000D02*
D03*
Y206000D02*
D03*
Y194000D02*
D03*
Y218000D02*
D03*
Y214000D02*
D03*
Y210000D02*
D03*
X37120Y182000D02*
D03*
Y186000D02*
D03*
Y190000D02*
D03*
Y194000D02*
D03*
Y198000D02*
D03*
Y202000D02*
D03*
Y206000D02*
D03*
Y210000D02*
D03*
Y214000D02*
D03*
Y218000D02*
D03*
X12880Y182000D02*
D03*
Y186000D02*
D03*
Y190000D02*
D03*
X287120Y198000D02*
D03*
Y202000D02*
D03*
Y194000D02*
D03*
Y206000D02*
D03*
Y182000D02*
D03*
Y186000D02*
D03*
Y190000D02*
D03*
X262880Y218000D02*
D03*
Y214000D02*
D03*
Y210000D02*
D03*
Y206000D02*
D03*
Y202000D02*
D03*
Y198000D02*
D03*
Y194000D02*
D03*
Y190000D02*
D03*
Y186000D02*
D03*
Y182000D02*
D03*
X287120Y218000D02*
D03*
Y214000D02*
D03*
Y210000D02*
D03*
D21*
X14150Y227500D02*
D03*
Y172500D02*
D03*
X35850D02*
D03*
Y227500D02*
D03*
X285850Y172500D02*
D03*
Y227500D02*
D03*
X264150D02*
D03*
Y172500D02*
D03*
D22*
X237000Y108000D02*
D03*
Y100000D02*
D03*
Y96000D02*
D03*
Y88000D02*
D03*
Y80000D02*
D03*
Y84000D02*
D03*
Y104000D02*
D03*
Y92000D02*
D03*
Y180000D02*
D03*
Y176000D02*
D03*
Y160000D02*
D03*
Y172000D02*
D03*
Y184000D02*
D03*
Y164000D02*
D03*
Y152000D02*
D03*
Y168000D02*
D03*
Y156000D02*
D03*
Y112000D02*
D03*
Y132000D02*
D03*
Y128000D02*
D03*
Y136000D02*
D03*
Y140000D02*
D03*
Y144000D02*
D03*
Y148000D02*
D03*
Y120000D02*
D03*
Y124000D02*
D03*
Y116000D02*
D03*
Y196000D02*
D03*
Y216000D02*
D03*
Y204000D02*
D03*
Y212000D02*
D03*
Y208000D02*
D03*
Y188000D02*
D03*
Y200000D02*
D03*
Y220000D02*
D03*
Y192000D02*
D03*
X63000Y80000D02*
D03*
Y84000D02*
D03*
Y88000D02*
D03*
Y92000D02*
D03*
Y96000D02*
D03*
Y100000D02*
D03*
Y104000D02*
D03*
Y108000D02*
D03*
Y112000D02*
D03*
Y116000D02*
D03*
Y120000D02*
D03*
Y124000D02*
D03*
Y128000D02*
D03*
Y132000D02*
D03*
Y136000D02*
D03*
Y140000D02*
D03*
Y144000D02*
D03*
Y148000D02*
D03*
Y152000D02*
D03*
Y156000D02*
D03*
Y160000D02*
D03*
Y164000D02*
D03*
Y168000D02*
D03*
Y172000D02*
D03*
Y176000D02*
D03*
Y180000D02*
D03*
Y184000D02*
D03*
Y188000D02*
D03*
Y192000D02*
D03*
Y196000D02*
D03*
Y200000D02*
D03*
Y204000D02*
D03*
Y208000D02*
D03*
Y212000D02*
D03*
Y216000D02*
D03*
Y220000D02*
D03*
D23*
X80000Y63000D02*
D03*
X116000D02*
D03*
X128000D02*
D03*
X120000D02*
D03*
X124000D02*
D03*
X132000D02*
D03*
X136000D02*
D03*
X140000D02*
D03*
X144000D02*
D03*
X148000D02*
D03*
X152000D02*
D03*
X156000D02*
D03*
X92000D02*
D03*
X220000D02*
D03*
X196000D02*
D03*
X200000D02*
D03*
X180000D02*
D03*
X216000D02*
D03*
X212000D02*
D03*
X208000D02*
D03*
X184000D02*
D03*
X188000D02*
D03*
X192000D02*
D03*
X204000D02*
D03*
X172000D02*
D03*
X176000D02*
D03*
X168000D02*
D03*
X164000D02*
D03*
X84000D02*
D03*
X88000D02*
D03*
X160000D02*
D03*
X96000D02*
D03*
X100000D02*
D03*
X104000D02*
D03*
X108000D02*
D03*
X112000D02*
D03*
X80000Y237000D02*
D03*
X84000D02*
D03*
X88000D02*
D03*
X92000D02*
D03*
X96000D02*
D03*
X100000D02*
D03*
X104000D02*
D03*
X108000D02*
D03*
X112000D02*
D03*
X116000D02*
D03*
X120000D02*
D03*
X124000D02*
D03*
X128000D02*
D03*
X132000D02*
D03*
X136000D02*
D03*
X140000D02*
D03*
X144000D02*
D03*
X148000D02*
D03*
X152000D02*
D03*
X156000D02*
D03*
X160000D02*
D03*
X164000D02*
D03*
X168000D02*
D03*
X172000D02*
D03*
X176000D02*
D03*
X180000D02*
D03*
X184000D02*
D03*
X188000D02*
D03*
X192000D02*
D03*
X196000D02*
D03*
X200000D02*
D03*
X204000D02*
D03*
X208000D02*
D03*
X212000D02*
D03*
X216000D02*
D03*
X220000D02*
D03*
D24*
X72500Y49250D02*
D03*
Y20750D02*
D03*
X57500Y49250D02*
D03*
X62500D02*
D03*
X67500D02*
D03*
Y20750D02*
D03*
X62500D02*
D03*
X57500D02*
D03*
D25*
X87750Y15250D02*
D03*
Y24750D02*
D03*
X97250D02*
D03*
Y15250D02*
D03*
X202750D02*
D03*
Y24750D02*
D03*
X212250D02*
D03*
Y15250D02*
D03*
D26*
X63650Y251650D02*
D03*
Y238350D02*
D03*
X46350D02*
D03*
Y251650D02*
D03*
D27*
X285000Y97500D02*
D03*
X280000D02*
D03*
Y102500D02*
D03*
X285000D02*
D03*
X290000D02*
D03*
Y97500D02*
D03*
Y92500D02*
D03*
X285000D02*
D03*
X280000D02*
D03*
D28*
X254400Y135000D02*
D03*
X267500D02*
D03*
D29*
X82500Y36000D02*
D03*
Y49000D02*
D03*
X87500D02*
D03*
X92500D02*
D03*
X87500Y36000D02*
D03*
X92500D02*
D03*
X192500Y266000D02*
D03*
Y279000D02*
D03*
X197500D02*
D03*
X202500D02*
D03*
X197500Y266000D02*
D03*
X202500D02*
D03*
X97500D02*
D03*
Y279000D02*
D03*
X102500D02*
D03*
X107500D02*
D03*
X102500Y266000D02*
D03*
X107500D02*
D03*
D30*
X266000Y157500D02*
D03*
X279000D02*
D03*
Y152500D02*
D03*
Y147500D02*
D03*
X266000Y152500D02*
D03*
Y147500D02*
D03*
X34000Y242500D02*
D03*
X21000D02*
D03*
Y247500D02*
D03*
Y252500D02*
D03*
X34000Y247500D02*
D03*
Y252500D02*
D03*
X266000D02*
D03*
X279000D02*
D03*
Y247500D02*
D03*
Y242500D02*
D03*
X266000Y247500D02*
D03*
Y242500D02*
D03*
M02*
