G04*
G04 #@! TF.GenerationSoftware,Altium Limited,Altium Designer,25.2.1 (25)*
G04*
G04 Layer_Color=32896*
%FSLAX44Y44*%
%MOMM*%
G71*
G04*
G04 #@! TF.SameCoordinates,736B08D8-8F56-46E9-9F88-ED0F67830A5D*
G04*
G04*
G04 #@! TF.FilePolarity,Positive*
G04*
G01*
G75*
G36*
X255686Y45722D02*
X253849D01*
Y47428D01*
X255686D01*
Y45722D01*
D02*
G37*
G36*
X239290D02*
X237453D01*
Y47428D01*
X239290D01*
Y45722D01*
D02*
G37*
G36*
X233273Y44929D02*
X233492Y44904D01*
X233698Y44854D01*
X233898Y44798D01*
X234079Y44729D01*
X234254Y44647D01*
X234410Y44566D01*
X234554Y44479D01*
X234685Y44391D01*
X234804Y44310D01*
X234904Y44229D01*
X234985Y44160D01*
X235048Y44104D01*
X235098Y44054D01*
X235123Y44029D01*
X235135Y44016D01*
X235285Y43835D01*
X235410Y43635D01*
X235523Y43429D01*
X235616Y43210D01*
X235698Y42986D01*
X235766Y42767D01*
X235823Y42542D01*
X235866Y42336D01*
X235904Y42129D01*
X235929Y41942D01*
X235947Y41773D01*
X235954Y41698D01*
X235960Y41630D01*
X235966Y41567D01*
Y41511D01*
Y41461D01*
X235972Y41417D01*
Y41386D01*
Y41361D01*
Y41348D01*
Y41342D01*
X235966Y41086D01*
X235947Y40842D01*
X235916Y40605D01*
X235872Y40386D01*
X235823Y40180D01*
X235773Y39986D01*
X235710Y39811D01*
X235654Y39649D01*
X235591Y39505D01*
X235535Y39374D01*
X235485Y39268D01*
X235435Y39174D01*
X235391Y39099D01*
X235360Y39049D01*
X235341Y39018D01*
X235335Y39005D01*
X235254Y38899D01*
X235173Y38799D01*
X235091Y38705D01*
X235004Y38618D01*
X234823Y38455D01*
X234642Y38324D01*
X234454Y38205D01*
X234273Y38112D01*
X234092Y38037D01*
X233917Y37974D01*
X233748Y37924D01*
X233598Y37887D01*
X233461Y37862D01*
X233342Y37843D01*
X233248Y37831D01*
X233204D01*
X233173Y37824D01*
X233111D01*
X232992Y37831D01*
X232880Y37837D01*
X232661Y37874D01*
X232455Y37931D01*
X232255Y37999D01*
X232073Y38087D01*
X231898Y38180D01*
X231742Y38280D01*
X231599Y38387D01*
X231467Y38493D01*
X231355Y38593D01*
X231261Y38687D01*
X231180Y38774D01*
X231111Y38843D01*
X231068Y38899D01*
X231042Y38937D01*
X231030Y38949D01*
Y37931D01*
Y37824D01*
X231036Y37718D01*
Y37631D01*
X231042Y37543D01*
X231049Y37468D01*
X231055Y37399D01*
X231061Y37337D01*
X231068Y37287D01*
X231080Y37237D01*
X231086Y37199D01*
X231092Y37168D01*
X231099Y37137D01*
X231105Y37118D01*
Y37106D01*
X231111Y37093D01*
X231161Y36981D01*
X231224Y36887D01*
X231280Y36806D01*
X231342Y36743D01*
X231399Y36693D01*
X231442Y36656D01*
X231467Y36637D01*
X231480Y36631D01*
X231549Y36593D01*
X231630Y36556D01*
X231799Y36506D01*
X231980Y36468D01*
X232155Y36437D01*
X232236Y36431D01*
X232317Y36425D01*
X232386Y36418D01*
X232442D01*
X232492Y36412D01*
X232661D01*
X232755Y36418D01*
X232848Y36431D01*
X232929Y36443D01*
X232998Y36456D01*
X233067Y36475D01*
X233130Y36493D01*
X233186Y36512D01*
X233230Y36525D01*
X233273Y36543D01*
X233304Y36562D01*
X233336Y36575D01*
X233354Y36587D01*
X233373Y36600D01*
X233379Y36606D01*
X233386D01*
X233454Y36668D01*
X233504Y36743D01*
X233548Y36825D01*
X233579Y36912D01*
X233604Y36987D01*
X233617Y37050D01*
X233623Y37074D01*
X233629Y37093D01*
Y37106D01*
Y37112D01*
X235735Y37368D01*
X235741Y37281D01*
Y37206D01*
Y37181D01*
Y37162D01*
Y37150D01*
Y37143D01*
X235735Y36974D01*
X235710Y36812D01*
X235673Y36656D01*
X235629Y36512D01*
X235573Y36375D01*
X235510Y36250D01*
X235441Y36131D01*
X235373Y36025D01*
X235304Y35931D01*
X235235Y35850D01*
X235173Y35775D01*
X235117Y35719D01*
X235073Y35669D01*
X235035Y35631D01*
X235010Y35612D01*
X235004Y35606D01*
X234854Y35500D01*
X234679Y35406D01*
X234498Y35325D01*
X234298Y35256D01*
X234092Y35200D01*
X233879Y35150D01*
X233673Y35106D01*
X233467Y35075D01*
X233267Y35050D01*
X233086Y35031D01*
X232917Y35019D01*
X232842Y35013D01*
X232773D01*
X232711Y35006D01*
X232655D01*
X232605Y35000D01*
X232311D01*
X232148Y35006D01*
X231992Y35019D01*
X231849Y35031D01*
X231711Y35044D01*
X231586Y35062D01*
X231467Y35081D01*
X231361Y35100D01*
X231261Y35119D01*
X231180Y35138D01*
X231105Y35156D01*
X231049Y35169D01*
X230999Y35181D01*
X230961Y35194D01*
X230942Y35200D01*
X230936D01*
X230718Y35281D01*
X230618Y35325D01*
X230524Y35369D01*
X230436Y35412D01*
X230361Y35456D01*
X230287Y35500D01*
X230218Y35544D01*
X230161Y35587D01*
X230105Y35625D01*
X230061Y35656D01*
X230030Y35687D01*
X229999Y35712D01*
X229980Y35731D01*
X229968Y35737D01*
X229961Y35744D01*
X229830Y35887D01*
X229718Y36044D01*
X229618Y36200D01*
X229537Y36356D01*
X229505Y36425D01*
X229474Y36493D01*
X229449Y36556D01*
X229430Y36606D01*
X229412Y36650D01*
X229399Y36681D01*
X229393Y36700D01*
Y36706D01*
X229355Y36825D01*
X229324Y36956D01*
X229299Y37099D01*
X229274Y37249D01*
X229237Y37549D01*
X229224Y37699D01*
X229212Y37849D01*
X229205Y37987D01*
X229199Y38118D01*
X229193Y38237D01*
X229187Y38337D01*
Y38418D01*
Y38480D01*
Y38505D01*
Y38524D01*
Y38530D01*
Y38537D01*
Y44779D01*
X230911D01*
Y43804D01*
X230993Y43910D01*
X231074Y44004D01*
X231155Y44098D01*
X231243Y44179D01*
X231417Y44329D01*
X231599Y44460D01*
X231774Y44573D01*
X231955Y44666D01*
X232124Y44741D01*
X232292Y44798D01*
X232448Y44847D01*
X232586Y44879D01*
X232717Y44904D01*
X232830Y44922D01*
X232917Y44935D01*
X232955D01*
X232986Y44941D01*
X233042D01*
X233273Y44929D01*
D02*
G37*
G36*
X211466Y44935D02*
X211698Y44922D01*
X211916Y44897D01*
X212116Y44866D01*
X212297Y44829D01*
X212466Y44785D01*
X212616Y44741D01*
X212753Y44697D01*
X212872Y44654D01*
X212978Y44610D01*
X213066Y44566D01*
X213135Y44529D01*
X213191Y44498D01*
X213235Y44473D01*
X213260Y44460D01*
X213266Y44454D01*
X213391Y44354D01*
X213503Y44248D01*
X213610Y44135D01*
X213710Y44016D01*
X213797Y43892D01*
X213878Y43766D01*
X213947Y43642D01*
X214009Y43523D01*
X214066Y43410D01*
X214116Y43304D01*
X214153Y43210D01*
X214184Y43123D01*
X214209Y43054D01*
X214228Y43004D01*
X214234Y42973D01*
X214241Y42961D01*
X212566Y42660D01*
X212535Y42748D01*
X212497Y42829D01*
X212460Y42904D01*
X212422Y42967D01*
X212354Y43085D01*
X212279Y43179D01*
X212216Y43248D01*
X212166Y43298D01*
X212135Y43329D01*
X212122Y43335D01*
X212010Y43398D01*
X211885Y43448D01*
X211760Y43479D01*
X211635Y43504D01*
X211523Y43517D01*
X211479Y43523D01*
X211435Y43529D01*
X211223D01*
X211104Y43517D01*
X210991Y43510D01*
X210891Y43492D01*
X210804Y43479D01*
X210723Y43460D01*
X210654Y43435D01*
X210585Y43417D01*
X210535Y43398D01*
X210485Y43373D01*
X210448Y43354D01*
X210417Y43342D01*
X210398Y43323D01*
X210379Y43317D01*
X210367Y43304D01*
X210323Y43260D01*
X210279Y43204D01*
X210217Y43092D01*
X210167Y42967D01*
X210135Y42842D01*
X210117Y42729D01*
X210110Y42679D01*
Y42636D01*
X210104Y42598D01*
Y42573D01*
Y42554D01*
Y42548D01*
Y42361D01*
X210204Y42323D01*
X210323Y42279D01*
X210454Y42242D01*
X210592Y42204D01*
X210735Y42167D01*
X210885Y42129D01*
X211185Y42061D01*
X211323Y42030D01*
X211454Y41998D01*
X211579Y41973D01*
X211679Y41954D01*
X211766Y41936D01*
X211835Y41923D01*
X211860Y41917D01*
X211879Y41911D01*
X211891D01*
X212066Y41873D01*
X212229Y41842D01*
X212379Y41804D01*
X212522Y41767D01*
X212654Y41729D01*
X212778Y41692D01*
X212885Y41661D01*
X212985Y41630D01*
X213072Y41598D01*
X213147Y41567D01*
X213210Y41542D01*
X213266Y41523D01*
X213303Y41505D01*
X213335Y41492D01*
X213353Y41480D01*
X213360D01*
X213541Y41380D01*
X213697Y41267D01*
X213828Y41148D01*
X213941Y41036D01*
X214028Y40936D01*
X214066Y40886D01*
X214097Y40848D01*
X214116Y40817D01*
X214134Y40792D01*
X214141Y40780D01*
X214147Y40774D01*
X214197Y40686D01*
X214241Y40599D01*
X214309Y40417D01*
X214359Y40236D01*
X214391Y40074D01*
X214403Y39999D01*
X214415Y39936D01*
X214422Y39874D01*
Y39824D01*
X214428Y39780D01*
Y39749D01*
Y39730D01*
Y39724D01*
X214422Y39561D01*
X214403Y39405D01*
X214372Y39255D01*
X214328Y39118D01*
X214284Y38986D01*
X214234Y38868D01*
X214178Y38755D01*
X214116Y38649D01*
X214059Y38562D01*
X214003Y38480D01*
X213953Y38412D01*
X213903Y38355D01*
X213866Y38312D01*
X213834Y38274D01*
X213816Y38255D01*
X213809Y38249D01*
X213691Y38149D01*
X213559Y38056D01*
X213422Y37980D01*
X213285Y37912D01*
X213141Y37856D01*
X213003Y37812D01*
X212866Y37774D01*
X212729Y37743D01*
X212603Y37718D01*
X212491Y37699D01*
X212385Y37687D01*
X212291Y37674D01*
X212216D01*
X212166Y37668D01*
X212116D01*
X211891Y37681D01*
X211679Y37706D01*
X211485Y37737D01*
X211391Y37762D01*
X211310Y37780D01*
X211235Y37799D01*
X211166Y37824D01*
X211110Y37843D01*
X211060Y37856D01*
X211023Y37874D01*
X210991Y37880D01*
X210973Y37893D01*
X210966D01*
X210767Y37987D01*
X210585Y38099D01*
X210410Y38212D01*
X210335Y38268D01*
X210260Y38324D01*
X210198Y38374D01*
X210135Y38424D01*
X210085Y38468D01*
X210042Y38505D01*
X210004Y38537D01*
X209979Y38562D01*
X209967Y38574D01*
X209960Y38580D01*
X209948Y38555D01*
X209942Y38524D01*
X209917Y38455D01*
X209904Y38424D01*
X209898Y38393D01*
X209892Y38374D01*
Y38368D01*
X209854Y38243D01*
X209817Y38131D01*
X209792Y38037D01*
X209767Y37962D01*
X209742Y37899D01*
X209729Y37856D01*
X209717Y37831D01*
Y37824D01*
X207892D01*
X207973Y38005D01*
X208048Y38180D01*
X208105Y38337D01*
X208148Y38474D01*
X208167Y38537D01*
X208180Y38593D01*
X208198Y38637D01*
X208205Y38680D01*
X208211Y38712D01*
X208217Y38737D01*
X208223Y38749D01*
Y38755D01*
X208236Y38843D01*
X208255Y38937D01*
X208261Y39043D01*
X208273Y39149D01*
X208292Y39374D01*
X208298Y39599D01*
X208305Y39699D01*
Y39799D01*
X208311Y39886D01*
Y39961D01*
Y40024D01*
Y40074D01*
Y40099D01*
Y40111D01*
X208292Y42261D01*
Y42479D01*
X208305Y42673D01*
X208317Y42860D01*
X208330Y43023D01*
X208348Y43173D01*
X208373Y43310D01*
X208392Y43429D01*
X208417Y43535D01*
X208442Y43623D01*
X208461Y43698D01*
X208486Y43766D01*
X208505Y43816D01*
X208517Y43854D01*
X208529Y43885D01*
X208542Y43898D01*
Y43904D01*
X208592Y43985D01*
X208648Y44066D01*
X208780Y44210D01*
X208917Y44335D01*
X209061Y44448D01*
X209186Y44529D01*
X209242Y44566D01*
X209292Y44598D01*
X209336Y44616D01*
X209367Y44635D01*
X209386Y44641D01*
X209392Y44647D01*
X209510Y44697D01*
X209642Y44748D01*
X209785Y44785D01*
X209929Y44816D01*
X210235Y44872D01*
X210385Y44891D01*
X210529Y44904D01*
X210673Y44916D01*
X210804Y44929D01*
X210916Y44935D01*
X211023D01*
X211104Y44941D01*
X211223D01*
X211466Y44935D01*
D02*
G37*
G36*
X264834Y37824D02*
X263041D01*
X261866Y42298D01*
X260666Y37824D01*
X258892D01*
X256661Y44779D01*
X258473D01*
X259804Y40217D01*
X260966Y44779D01*
X262741D01*
X263940Y40217D01*
X265246Y44779D01*
X267033D01*
X264834Y37824D01*
D02*
G37*
G36*
X219652Y47584D02*
X219833Y47578D01*
X220008Y47559D01*
X220183Y47534D01*
X220514Y47466D01*
X220826Y47384D01*
X221114Y47284D01*
X221383Y47172D01*
X221626Y47053D01*
X221851Y46928D01*
X222051Y46803D01*
X222139Y46747D01*
X222226Y46684D01*
X222301Y46628D01*
X222376Y46572D01*
X222439Y46522D01*
X222501Y46472D01*
X222551Y46428D01*
X222595Y46391D01*
X222638Y46353D01*
X222670Y46322D01*
X222695Y46297D01*
X222713Y46278D01*
X222720Y46272D01*
X222726Y46266D01*
X222838Y46141D01*
X222945Y46003D01*
X223045Y45866D01*
X223132Y45729D01*
X223220Y45578D01*
X223301Y45429D01*
X223438Y45122D01*
X223563Y44816D01*
X223663Y44504D01*
X223744Y44204D01*
X223807Y43910D01*
X223857Y43629D01*
X223882Y43498D01*
X223901Y43373D01*
X223913Y43254D01*
X223926Y43142D01*
X223938Y43035D01*
X223944Y42936D01*
X223951Y42848D01*
X223957Y42773D01*
Y42704D01*
X223963Y42648D01*
Y42604D01*
Y42567D01*
Y42548D01*
Y42542D01*
X223957Y42329D01*
X223951Y42129D01*
X223932Y41929D01*
X223913Y41736D01*
X223851Y41367D01*
X223769Y41030D01*
X223726Y40867D01*
X223676Y40711D01*
X223626Y40561D01*
X223576Y40417D01*
X223519Y40280D01*
X223463Y40149D01*
X223407Y40024D01*
X223344Y39905D01*
X223288Y39792D01*
X223232Y39686D01*
X223176Y39593D01*
X223120Y39499D01*
X223070Y39418D01*
X223020Y39343D01*
X222970Y39268D01*
X222926Y39205D01*
X222882Y39149D01*
X222845Y39105D01*
X222813Y39062D01*
X222782Y39030D01*
X222763Y38999D01*
X222745Y38980D01*
X222738Y38974D01*
X222732Y38968D01*
X222613Y38849D01*
X222495Y38737D01*
X222370Y38637D01*
X222239Y38537D01*
X222114Y38449D01*
X221982Y38362D01*
X221720Y38212D01*
X221451Y38087D01*
X221189Y37980D01*
X220939Y37893D01*
X220695Y37824D01*
X220464Y37774D01*
X220252Y37731D01*
X220158Y37718D01*
X220064Y37699D01*
X219977Y37693D01*
X219902Y37681D01*
X219833Y37674D01*
X219770Y37668D01*
X219714D01*
X219670Y37662D01*
X219583D01*
X219302Y37668D01*
X219033Y37693D01*
X218777Y37731D01*
X218533Y37780D01*
X218308Y37837D01*
X218096Y37905D01*
X217902Y37974D01*
X217727Y38043D01*
X217571Y38112D01*
X217433Y38180D01*
X217315Y38249D01*
X217215Y38305D01*
X217134Y38355D01*
X217077Y38393D01*
X217046Y38418D01*
X217034Y38424D01*
X216852Y38574D01*
X216684Y38743D01*
X216528Y38924D01*
X216384Y39111D01*
X216253Y39305D01*
X216134Y39499D01*
X216028Y39686D01*
X215934Y39874D01*
X215853Y40055D01*
X215784Y40217D01*
X215721Y40367D01*
X215672Y40499D01*
X215653Y40555D01*
X215634Y40605D01*
X215621Y40649D01*
X215609Y40686D01*
X215603Y40717D01*
X215597Y40736D01*
X215590Y40749D01*
Y40755D01*
X217471Y41355D01*
X217521Y41161D01*
X217577Y40986D01*
X217633Y40817D01*
X217702Y40667D01*
X217765Y40530D01*
X217833Y40399D01*
X217902Y40286D01*
X217965Y40186D01*
X218027Y40093D01*
X218083Y40017D01*
X218140Y39955D01*
X218183Y39899D01*
X218221Y39855D01*
X218252Y39830D01*
X218271Y39811D01*
X218277Y39805D01*
X218383Y39718D01*
X218496Y39643D01*
X218608Y39580D01*
X218721Y39524D01*
X218833Y39474D01*
X218939Y39436D01*
X219046Y39405D01*
X219146Y39380D01*
X219239Y39361D01*
X219327Y39343D01*
X219408Y39330D01*
X219471Y39324D01*
X219527D01*
X219571Y39318D01*
X219602D01*
X219795Y39324D01*
X219977Y39349D01*
X220152Y39386D01*
X220308Y39436D01*
X220464Y39499D01*
X220601Y39561D01*
X220733Y39630D01*
X220845Y39705D01*
X220951Y39774D01*
X221045Y39843D01*
X221120Y39911D01*
X221189Y39968D01*
X221239Y40017D01*
X221276Y40055D01*
X221301Y40080D01*
X221308Y40086D01*
X221420Y40242D01*
X221526Y40424D01*
X221614Y40611D01*
X221689Y40817D01*
X221751Y41030D01*
X221801Y41248D01*
X221845Y41467D01*
X221882Y41680D01*
X221907Y41880D01*
X221926Y42067D01*
X221945Y42242D01*
X221951Y42317D01*
Y42386D01*
X221957Y42454D01*
Y42511D01*
X221964Y42561D01*
Y42604D01*
Y42642D01*
Y42667D01*
Y42679D01*
Y42685D01*
X221957Y42998D01*
X221932Y43285D01*
X221901Y43554D01*
X221857Y43798D01*
X221807Y44023D01*
X221751Y44223D01*
X221695Y44410D01*
X221632Y44573D01*
X221570Y44710D01*
X221514Y44835D01*
X221458Y44935D01*
X221408Y45022D01*
X221364Y45085D01*
X221332Y45129D01*
X221308Y45160D01*
X221301Y45166D01*
X221170Y45304D01*
X221033Y45422D01*
X220895Y45522D01*
X220745Y45610D01*
X220601Y45685D01*
X220458Y45747D01*
X220314Y45797D01*
X220183Y45841D01*
X220052Y45872D01*
X219939Y45897D01*
X219833Y45910D01*
X219739Y45922D01*
X219664Y45929D01*
X219614Y45935D01*
X219564D01*
X219421Y45929D01*
X219283Y45916D01*
X219158Y45897D01*
X219033Y45866D01*
X218914Y45835D01*
X218808Y45797D01*
X218708Y45760D01*
X218614Y45722D01*
X218533Y45679D01*
X218465Y45641D01*
X218402Y45603D01*
X218346Y45572D01*
X218308Y45541D01*
X218277Y45522D01*
X218258Y45510D01*
X218252Y45504D01*
X218152Y45422D01*
X218065Y45329D01*
X217983Y45235D01*
X217908Y45135D01*
X217846Y45041D01*
X217790Y44941D01*
X217733Y44847D01*
X217690Y44754D01*
X217652Y44666D01*
X217621Y44585D01*
X217596Y44510D01*
X217577Y44448D01*
X217558Y44398D01*
X217546Y44354D01*
X217540Y44329D01*
Y44323D01*
X215621Y44779D01*
X215684Y44991D01*
X215759Y45185D01*
X215834Y45372D01*
X215909Y45541D01*
X215990Y45704D01*
X216071Y45847D01*
X216153Y45978D01*
X216234Y46097D01*
X216309Y46203D01*
X216378Y46297D01*
X216440Y46372D01*
X216496Y46441D01*
X216540Y46491D01*
X216571Y46522D01*
X216596Y46547D01*
X216602Y46553D01*
X216815Y46734D01*
X217040Y46897D01*
X217277Y47034D01*
X217515Y47153D01*
X217752Y47253D01*
X217990Y47341D01*
X218221Y47403D01*
X218446Y47459D01*
X218658Y47503D01*
X218846Y47534D01*
X219021Y47559D01*
X219102Y47565D01*
X219171Y47572D01*
X219239Y47578D01*
X219296Y47584D01*
X219345D01*
X219389Y47590D01*
X219464D01*
X219652Y47584D01*
D02*
G37*
G36*
X243677Y46166D02*
Y44779D01*
X244520D01*
Y43310D01*
X243677D01*
Y40280D01*
Y40105D01*
Y39943D01*
X243671Y39799D01*
X243664Y39668D01*
Y39549D01*
X243658Y39443D01*
X243652Y39349D01*
X243645Y39268D01*
X243639Y39193D01*
X243633Y39136D01*
X243627Y39086D01*
Y39049D01*
X243620Y39018D01*
X243614Y38999D01*
Y38986D01*
Y38980D01*
X243583Y38818D01*
X243546Y38680D01*
X243502Y38555D01*
X243458Y38455D01*
X243421Y38368D01*
X243389Y38312D01*
X243364Y38274D01*
X243358Y38268D01*
Y38262D01*
X243277Y38168D01*
X243189Y38087D01*
X243089Y38012D01*
X242996Y37949D01*
X242908Y37899D01*
X242833Y37862D01*
X242808Y37849D01*
X242789Y37837D01*
X242777Y37831D01*
X242771D01*
X242615Y37774D01*
X242458Y37737D01*
X242308Y37706D01*
X242171Y37687D01*
X242108Y37681D01*
X242052Y37674D01*
X241996D01*
X241952Y37668D01*
X241871D01*
X241721Y37674D01*
X241577Y37681D01*
X241434Y37693D01*
X241302Y37712D01*
X241171Y37731D01*
X241052Y37756D01*
X240940Y37780D01*
X240840Y37806D01*
X240746Y37831D01*
X240659Y37849D01*
X240590Y37874D01*
X240528Y37893D01*
X240478Y37912D01*
X240446Y37924D01*
X240421Y37937D01*
X240415D01*
X240578Y39368D01*
X240746Y39311D01*
X240896Y39268D01*
X241021Y39236D01*
X241127Y39218D01*
X241209Y39205D01*
X241265Y39193D01*
X241315D01*
X241377Y39199D01*
X241440Y39205D01*
X241496Y39218D01*
X241540Y39236D01*
X241577Y39255D01*
X241602Y39268D01*
X241621Y39274D01*
X241627Y39280D01*
X241671Y39318D01*
X241702Y39355D01*
X241733Y39393D01*
X241752Y39430D01*
X241771Y39461D01*
X241784Y39486D01*
X241790Y39505D01*
Y39511D01*
X241796Y39549D01*
X241802Y39599D01*
X241808Y39655D01*
Y39730D01*
X241815Y39805D01*
X241821Y39892D01*
Y40068D01*
Y40149D01*
X241827Y40230D01*
Y40311D01*
Y40374D01*
Y40430D01*
Y40474D01*
Y40499D01*
Y40511D01*
Y43310D01*
X240571D01*
Y44779D01*
X241827D01*
Y47241D01*
X243677Y46166D01*
D02*
G37*
G36*
X193096Y40380D02*
Y40199D01*
X193083Y40030D01*
X193071Y39874D01*
X193058Y39724D01*
X193040Y39586D01*
X193015Y39455D01*
X192996Y39343D01*
X192971Y39236D01*
X192946Y39143D01*
X192927Y39068D01*
X192902Y38993D01*
X192883Y38937D01*
X192871Y38893D01*
X192859Y38861D01*
X192846Y38843D01*
Y38837D01*
X192796Y38737D01*
X192740Y38643D01*
X192615Y38468D01*
X192546Y38393D01*
X192484Y38318D01*
X192415Y38255D01*
X192346Y38199D01*
X192290Y38143D01*
X192227Y38099D01*
X192178Y38062D01*
X192127Y38031D01*
X192090Y38005D01*
X192065Y37987D01*
X192046Y37980D01*
X192040Y37974D01*
X191934Y37918D01*
X191828Y37874D01*
X191715Y37831D01*
X191609Y37799D01*
X191396Y37743D01*
X191296Y37724D01*
X191203Y37706D01*
X191109Y37693D01*
X191028Y37687D01*
X190959Y37680D01*
X190896Y37674D01*
X190847Y37668D01*
X190778D01*
X190647Y37674D01*
X190522Y37680D01*
X190284Y37718D01*
X190172Y37743D01*
X190059Y37768D01*
X189959Y37799D01*
X189866Y37831D01*
X189778Y37856D01*
X189703Y37887D01*
X189634Y37912D01*
X189578Y37937D01*
X189534Y37956D01*
X189497Y37974D01*
X189478Y37980D01*
X189472Y37987D01*
X189253Y38118D01*
X189147Y38187D01*
X189053Y38255D01*
X188966Y38330D01*
X188885Y38405D01*
X188810Y38474D01*
X188741Y38543D01*
X188678Y38612D01*
X188622Y38668D01*
X188578Y38724D01*
X188541Y38768D01*
X188510Y38805D01*
X188491Y38837D01*
X188478Y38855D01*
X188472Y38861D01*
Y37824D01*
X186760D01*
Y44779D01*
X188603D01*
Y41842D01*
Y41705D01*
Y41573D01*
X188610Y41448D01*
Y41336D01*
X188616Y41117D01*
X188622Y40917D01*
X188635Y40749D01*
X188647Y40592D01*
X188660Y40461D01*
X188672Y40342D01*
X188685Y40249D01*
X188697Y40167D01*
X188710Y40099D01*
X188722Y40049D01*
X188728Y40011D01*
X188735Y39986D01*
X188741Y39974D01*
Y39968D01*
X188803Y39830D01*
X188878Y39705D01*
X188966Y39599D01*
X189047Y39505D01*
X189128Y39430D01*
X189191Y39374D01*
X189216Y39349D01*
X189235Y39336D01*
X189247Y39330D01*
X189253Y39324D01*
X189397Y39236D01*
X189541Y39174D01*
X189684Y39130D01*
X189816Y39099D01*
X189928Y39080D01*
X189978Y39074D01*
X190016D01*
X190053Y39068D01*
X190097D01*
X190247Y39074D01*
X190378Y39099D01*
X190490Y39130D01*
X190590Y39168D01*
X190672Y39199D01*
X190728Y39230D01*
X190765Y39255D01*
X190772Y39261D01*
X190778D01*
X190872Y39343D01*
X190947Y39424D01*
X191015Y39511D01*
X191065Y39599D01*
X191103Y39674D01*
X191134Y39730D01*
X191140Y39755D01*
X191147Y39774D01*
X191153Y39780D01*
Y39786D01*
X191159Y39824D01*
X191171Y39861D01*
X191184Y39961D01*
X191196Y40074D01*
X191209Y40205D01*
X191222Y40349D01*
X191228Y40499D01*
X191240Y40811D01*
X191246Y40961D01*
Y41105D01*
Y41236D01*
X191253Y41348D01*
Y41448D01*
Y41486D01*
Y41523D01*
Y41548D01*
Y41567D01*
Y41579D01*
Y41586D01*
Y44779D01*
X193096D01*
Y40380D01*
D02*
G37*
G36*
X275000Y45803D02*
X272151D01*
Y37824D01*
X270214D01*
Y45803D01*
X267365D01*
Y47428D01*
X275000D01*
Y45803D01*
D02*
G37*
G36*
X255686Y37824D02*
X253849D01*
Y44779D01*
X255686D01*
Y37824D01*
D02*
G37*
G36*
X248094Y44935D02*
X248226Y44929D01*
X248463Y44891D01*
X248694Y44835D01*
X248913Y44760D01*
X249113Y44666D01*
X249300Y44566D01*
X249475Y44460D01*
X249632Y44354D01*
X249775Y44241D01*
X249900Y44135D01*
X250006Y44035D01*
X250100Y43948D01*
X250169Y43867D01*
X250219Y43810D01*
X250250Y43773D01*
X250263Y43766D01*
Y44779D01*
X251968D01*
Y37824D01*
X250131D01*
Y40974D01*
Y41186D01*
X250125Y41380D01*
X250119Y41555D01*
X250113Y41717D01*
X250100Y41861D01*
X250088Y41992D01*
X250075Y42111D01*
X250063Y42211D01*
X250050Y42298D01*
X250038Y42373D01*
X250025Y42436D01*
X250013Y42486D01*
X250006Y42523D01*
X250000Y42554D01*
X249994Y42567D01*
Y42573D01*
X249931Y42729D01*
X249850Y42860D01*
X249763Y42979D01*
X249675Y43079D01*
X249594Y43160D01*
X249531Y43217D01*
X249506Y43242D01*
X249488Y43254D01*
X249475Y43267D01*
X249469D01*
X249325Y43354D01*
X249175Y43417D01*
X249025Y43467D01*
X248894Y43498D01*
X248782Y43517D01*
X248732Y43523D01*
X248688D01*
X248650Y43529D01*
X248607D01*
X248476Y43523D01*
X248351Y43498D01*
X248244Y43473D01*
X248151Y43435D01*
X248076Y43404D01*
X248019Y43373D01*
X247988Y43348D01*
X247976Y43342D01*
X247882Y43267D01*
X247801Y43185D01*
X247732Y43098D01*
X247682Y43017D01*
X247638Y42942D01*
X247613Y42885D01*
X247601Y42860D01*
X247595Y42842D01*
X247588Y42835D01*
Y42829D01*
X247570Y42761D01*
X247551Y42673D01*
X247532Y42573D01*
X247519Y42461D01*
X247507Y42348D01*
X247501Y42223D01*
X247482Y41979D01*
Y41861D01*
X247476Y41748D01*
Y41642D01*
X247470Y41555D01*
Y41480D01*
Y41423D01*
Y41386D01*
Y41380D01*
Y41373D01*
Y37824D01*
X245626D01*
Y42148D01*
Y42298D01*
X245632Y42436D01*
X245639Y42561D01*
X245645Y42679D01*
X245651Y42792D01*
X245658Y42892D01*
X245670Y42986D01*
X245676Y43067D01*
X245689Y43142D01*
X245701Y43204D01*
X245707Y43260D01*
X245714Y43304D01*
X245720Y43342D01*
X245726Y43367D01*
X245732Y43379D01*
Y43385D01*
X245776Y43542D01*
X245833Y43685D01*
X245889Y43816D01*
X245951Y43929D01*
X246007Y44023D01*
X246032Y44060D01*
X246051Y44098D01*
X246070Y44123D01*
X246082Y44141D01*
X246089Y44148D01*
X246095Y44154D01*
X246201Y44279D01*
X246320Y44385D01*
X246451Y44485D01*
X246570Y44566D01*
X246682Y44629D01*
X246732Y44654D01*
X246776Y44679D01*
X246807Y44691D01*
X246832Y44704D01*
X246851Y44716D01*
X246857D01*
X247051Y44791D01*
X247245Y44847D01*
X247426Y44885D01*
X247601Y44916D01*
X247676Y44922D01*
X247751Y44929D01*
X247813Y44935D01*
X247863D01*
X247907Y44941D01*
X247969D01*
X248094Y44935D01*
D02*
G37*
G36*
X239290Y37824D02*
X237453D01*
Y44779D01*
X239290D01*
Y37824D01*
D02*
G37*
G36*
X203418Y44929D02*
X203568Y44904D01*
X203706Y44872D01*
X203825Y44829D01*
X203918Y44785D01*
X203962Y44766D01*
X203993Y44754D01*
X204018Y44735D01*
X204037Y44729D01*
X204049Y44716D01*
X204056D01*
X204124Y44666D01*
X204187Y44610D01*
X204256Y44548D01*
X204324Y44479D01*
X204456Y44323D01*
X204580Y44173D01*
X204687Y44023D01*
X204730Y43960D01*
X204768Y43904D01*
X204799Y43860D01*
X204824Y43823D01*
X204837Y43798D01*
X204843Y43791D01*
Y44779D01*
X206555D01*
Y37824D01*
X204712D01*
Y39974D01*
Y40136D01*
Y40292D01*
X204706Y40442D01*
Y40586D01*
X204699Y40717D01*
Y40848D01*
X204693Y40974D01*
X204687Y41086D01*
X204674Y41298D01*
X204662Y41492D01*
X204649Y41661D01*
X204637Y41804D01*
X204624Y41929D01*
X204612Y42036D01*
X204599Y42123D01*
X204587Y42192D01*
X204574Y42242D01*
X204568Y42279D01*
X204562Y42298D01*
Y42304D01*
X204531Y42404D01*
X204499Y42498D01*
X204462Y42579D01*
X204431Y42660D01*
X204393Y42729D01*
X204356Y42792D01*
X204324Y42848D01*
X204293Y42898D01*
X204262Y42942D01*
X204231Y42979D01*
X204181Y43029D01*
X204149Y43060D01*
X204137Y43073D01*
X204031Y43142D01*
X203918Y43198D01*
X203812Y43235D01*
X203706Y43260D01*
X203618Y43273D01*
X203543Y43285D01*
X203481D01*
X203406Y43279D01*
X203331Y43273D01*
X203175Y43242D01*
X203031Y43192D01*
X202900Y43135D01*
X202787Y43079D01*
X202737Y43054D01*
X202700Y43035D01*
X202662Y43011D01*
X202637Y42998D01*
X202625Y42992D01*
X202619Y42986D01*
X202044Y44591D01*
X202156Y44654D01*
X202262Y44710D01*
X202375Y44754D01*
X202481Y44791D01*
X202687Y44854D01*
X202781Y44879D01*
X202868Y44897D01*
X202950Y44910D01*
X203025Y44922D01*
X203093Y44929D01*
X203150Y44935D01*
X203193Y44941D01*
X203256D01*
X203418Y44929D01*
D02*
G37*
G36*
X182592Y44935D02*
X182842Y44916D01*
X183080Y44885D01*
X183298Y44847D01*
X183498Y44798D01*
X183680Y44748D01*
X183842Y44691D01*
X183992Y44635D01*
X184117Y44573D01*
X184230Y44516D01*
X184323Y44466D01*
X184398Y44423D01*
X184461Y44379D01*
X184504Y44348D01*
X184529Y44329D01*
X184536Y44323D01*
X184661Y44204D01*
X184773Y44079D01*
X184867Y43954D01*
X184948Y43823D01*
X185017Y43698D01*
X185073Y43573D01*
X185123Y43448D01*
X185161Y43329D01*
X185186Y43223D01*
X185210Y43123D01*
X185223Y43029D01*
X185236Y42954D01*
X185242Y42892D01*
X185248Y42842D01*
Y42817D01*
Y42804D01*
X185236Y42623D01*
X185210Y42448D01*
X185173Y42286D01*
X185117Y42136D01*
X185054Y41992D01*
X184986Y41867D01*
X184911Y41748D01*
X184836Y41642D01*
X184761Y41548D01*
X184686Y41467D01*
X184617Y41398D01*
X184554Y41342D01*
X184498Y41292D01*
X184461Y41261D01*
X184429Y41242D01*
X184423Y41236D01*
X184361Y41198D01*
X184292Y41161D01*
X184217Y41117D01*
X184130Y41080D01*
X184042Y41042D01*
X183942Y41005D01*
X183730Y40924D01*
X183505Y40848D01*
X183267Y40774D01*
X183030Y40698D01*
X182786Y40636D01*
X182555Y40574D01*
X182336Y40511D01*
X182136Y40461D01*
X182043Y40442D01*
X181955Y40417D01*
X181880Y40399D01*
X181811Y40386D01*
X181749Y40367D01*
X181693Y40361D01*
X181655Y40349D01*
X181624Y40342D01*
X181605Y40336D01*
X181599D01*
X181511Y40317D01*
X181437Y40292D01*
X181362Y40274D01*
X181299Y40249D01*
X181243Y40230D01*
X181193Y40211D01*
X181112Y40174D01*
X181049Y40142D01*
X181012Y40117D01*
X180987Y40099D01*
X180980Y40092D01*
X180937Y40036D01*
X180905Y39980D01*
X180880Y39924D01*
X180868Y39867D01*
X180855Y39824D01*
X180849Y39786D01*
Y39755D01*
Y39749D01*
X180862Y39643D01*
X180887Y39543D01*
X180924Y39461D01*
X180968Y39386D01*
X181018Y39330D01*
X181055Y39286D01*
X181080Y39261D01*
X181093Y39255D01*
X181161Y39211D01*
X181243Y39168D01*
X181411Y39105D01*
X181593Y39055D01*
X181768Y39024D01*
X181849Y39018D01*
X181924Y39005D01*
X181993Y38999D01*
X182049D01*
X182099Y38993D01*
X182167D01*
X182286Y38999D01*
X182399Y39005D01*
X182505Y39018D01*
X182599Y39036D01*
X182692Y39055D01*
X182774Y39080D01*
X182849Y39105D01*
X182917Y39130D01*
X182980Y39155D01*
X183030Y39180D01*
X183074Y39205D01*
X183111Y39224D01*
X183142Y39243D01*
X183161Y39255D01*
X183174Y39268D01*
X183180D01*
X183305Y39386D01*
X183405Y39511D01*
X183486Y39649D01*
X183548Y39780D01*
X183598Y39899D01*
X183617Y39955D01*
X183630Y39999D01*
X183642Y40036D01*
X183648Y40061D01*
X183655Y40080D01*
Y40086D01*
X185504Y39805D01*
X185448Y39624D01*
X185385Y39455D01*
X185310Y39293D01*
X185229Y39143D01*
X185142Y39005D01*
X185048Y38874D01*
X184961Y38761D01*
X184867Y38655D01*
X184779Y38562D01*
X184698Y38474D01*
X184623Y38405D01*
X184554Y38349D01*
X184498Y38305D01*
X184461Y38268D01*
X184429Y38249D01*
X184423Y38243D01*
X184261Y38143D01*
X184086Y38055D01*
X183905Y37974D01*
X183717Y37912D01*
X183530Y37856D01*
X183342Y37806D01*
X183161Y37768D01*
X182986Y37743D01*
X182817Y37718D01*
X182661Y37699D01*
X182524Y37687D01*
X182405Y37674D01*
X182305D01*
X182261Y37668D01*
X182167D01*
X181886Y37674D01*
X181618Y37699D01*
X181368Y37731D01*
X181136Y37774D01*
X180930Y37831D01*
X180737Y37887D01*
X180555Y37949D01*
X180399Y38012D01*
X180262Y38074D01*
X180143Y38137D01*
X180037Y38199D01*
X179956Y38249D01*
X179887Y38293D01*
X179843Y38324D01*
X179812Y38349D01*
X179806Y38355D01*
X179662Y38487D01*
X179543Y38624D01*
X179437Y38761D01*
X179343Y38905D01*
X179268Y39043D01*
X179200Y39180D01*
X179150Y39311D01*
X179106Y39436D01*
X179075Y39555D01*
X179050Y39661D01*
X179031Y39755D01*
X179018Y39836D01*
X179012Y39905D01*
X179006Y39955D01*
Y39986D01*
Y39999D01*
X179012Y40161D01*
X179031Y40311D01*
X179056Y40449D01*
X179093Y40580D01*
X179137Y40705D01*
X179187Y40817D01*
X179237Y40917D01*
X179293Y41011D01*
X179349Y41092D01*
X179400Y41167D01*
X179450Y41223D01*
X179493Y41280D01*
X179524Y41317D01*
X179556Y41342D01*
X179574Y41361D01*
X179581Y41367D01*
X179699Y41455D01*
X179837Y41542D01*
X179987Y41623D01*
X180149Y41698D01*
X180312Y41773D01*
X180487Y41842D01*
X180655Y41905D01*
X180824Y41961D01*
X180987Y42011D01*
X181136Y42054D01*
X181274Y42092D01*
X181399Y42129D01*
X181499Y42154D01*
X181536Y42161D01*
X181574Y42173D01*
X181599Y42179D01*
X181618D01*
X181630Y42186D01*
X181636D01*
X181768Y42217D01*
X181899Y42248D01*
X182018Y42279D01*
X182130Y42304D01*
X182236Y42329D01*
X182342Y42361D01*
X182524Y42411D01*
X182686Y42454D01*
X182824Y42498D01*
X182942Y42536D01*
X183049Y42573D01*
X183130Y42604D01*
X183199Y42629D01*
X183255Y42654D01*
X183292Y42673D01*
X183323Y42685D01*
X183342Y42698D01*
X183349Y42704D01*
X183355D01*
X183417Y42761D01*
X183461Y42817D01*
X183492Y42867D01*
X183511Y42923D01*
X183523Y42967D01*
X183536Y43004D01*
Y43029D01*
Y43035D01*
X183530Y43117D01*
X183505Y43192D01*
X183473Y43254D01*
X183430Y43310D01*
X183392Y43354D01*
X183361Y43385D01*
X183336Y43404D01*
X183330Y43410D01*
X183267Y43448D01*
X183192Y43479D01*
X183117Y43504D01*
X183036Y43529D01*
X182861Y43566D01*
X182692Y43591D01*
X182611Y43598D01*
X182536Y43604D01*
X182467Y43610D01*
X182405Y43616D01*
X182180D01*
X182080Y43610D01*
X181993Y43598D01*
X181905Y43585D01*
X181824Y43566D01*
X181755Y43548D01*
X181686Y43529D01*
X181624Y43510D01*
X181574Y43485D01*
X181530Y43467D01*
X181486Y43448D01*
X181455Y43435D01*
X181430Y43417D01*
X181411Y43410D01*
X181405Y43398D01*
X181399D01*
X181293Y43310D01*
X181199Y43210D01*
X181124Y43104D01*
X181068Y43004D01*
X181024Y42910D01*
X180999Y42842D01*
X180987Y42811D01*
X180980Y42792D01*
X180974Y42779D01*
Y42773D01*
X179237Y43098D01*
X179293Y43267D01*
X179356Y43417D01*
X179424Y43566D01*
X179499Y43698D01*
X179574Y43823D01*
X179656Y43935D01*
X179737Y44035D01*
X179818Y44129D01*
X179893Y44210D01*
X179962Y44279D01*
X180031Y44335D01*
X180087Y44385D01*
X180131Y44423D01*
X180168Y44454D01*
X180193Y44466D01*
X180199Y44473D01*
X180337Y44554D01*
X180487Y44629D01*
X180649Y44691D01*
X180824Y44741D01*
X180999Y44791D01*
X181174Y44829D01*
X181349Y44860D01*
X181518Y44885D01*
X181680Y44904D01*
X181830Y44916D01*
X181968Y44929D01*
X182086Y44935D01*
X182180Y44941D01*
X182318D01*
X182592Y44935D01*
D02*
G37*
G36*
X197551D02*
X197676Y44929D01*
X197907Y44891D01*
X198020Y44866D01*
X198126Y44835D01*
X198220Y44804D01*
X198313Y44779D01*
X198395Y44748D01*
X198463Y44716D01*
X198526Y44685D01*
X198582Y44660D01*
X198626Y44641D01*
X198657Y44623D01*
X198676Y44616D01*
X198682Y44610D01*
X198882Y44479D01*
X199063Y44341D01*
X199144Y44266D01*
X199219Y44198D01*
X199288Y44129D01*
X199351Y44066D01*
X199401Y44004D01*
X199451Y43941D01*
X199494Y43892D01*
X199526Y43848D01*
X199551Y43810D01*
X199569Y43785D01*
X199582Y43766D01*
X199588Y43760D01*
Y44779D01*
X201306D01*
Y35181D01*
X199463D01*
Y38680D01*
X199369Y38580D01*
X199269Y38487D01*
X199182Y38399D01*
X199088Y38324D01*
X199007Y38249D01*
X198926Y38187D01*
X198845Y38130D01*
X198776Y38080D01*
X198707Y38037D01*
X198651Y37993D01*
X198601Y37962D01*
X198557Y37937D01*
X198520Y37918D01*
X198495Y37905D01*
X198482Y37893D01*
X198476D01*
X198295Y37818D01*
X198113Y37762D01*
X197938Y37724D01*
X197776Y37699D01*
X197707Y37687D01*
X197639Y37680D01*
X197582Y37674D01*
X197532D01*
X197489Y37668D01*
X197432D01*
X197207Y37680D01*
X196995Y37712D01*
X196789Y37755D01*
X196601Y37818D01*
X196414Y37893D01*
X196245Y37974D01*
X196089Y38062D01*
X195945Y38149D01*
X195820Y38237D01*
X195702Y38324D01*
X195602Y38405D01*
X195520Y38480D01*
X195458Y38543D01*
X195408Y38587D01*
X195383Y38618D01*
X195370Y38630D01*
X195220Y38818D01*
X195089Y39024D01*
X194970Y39243D01*
X194877Y39461D01*
X194789Y39686D01*
X194721Y39911D01*
X194664Y40136D01*
X194621Y40349D01*
X194583Y40555D01*
X194558Y40742D01*
X194539Y40911D01*
X194533Y40986D01*
X194527Y41055D01*
X194521Y41117D01*
Y41173D01*
X194514Y41223D01*
Y41267D01*
Y41298D01*
Y41323D01*
Y41336D01*
Y41342D01*
X194521Y41648D01*
X194552Y41942D01*
X194596Y42217D01*
X194646Y42467D01*
X194714Y42704D01*
X194783Y42923D01*
X194858Y43123D01*
X194939Y43298D01*
X195021Y43460D01*
X195096Y43598D01*
X195164Y43717D01*
X195233Y43810D01*
X195283Y43885D01*
X195327Y43941D01*
X195352Y43973D01*
X195364Y43985D01*
X195527Y44154D01*
X195695Y44304D01*
X195864Y44429D01*
X196039Y44535D01*
X196214Y44629D01*
X196383Y44710D01*
X196551Y44773D01*
X196708Y44823D01*
X196857Y44860D01*
X196989Y44891D01*
X197114Y44910D01*
X197220Y44929D01*
X197301Y44935D01*
X197364Y44941D01*
X197420D01*
X197551Y44935D01*
D02*
G37*
G36*
X263878Y29641D02*
X263959Y29485D01*
X264040Y29335D01*
X264134Y29198D01*
X264228Y29060D01*
X264321Y28935D01*
X264422Y28816D01*
X264515Y28710D01*
X264609Y28610D01*
X264696Y28523D01*
X264771Y28448D01*
X264840Y28385D01*
X264896Y28335D01*
X264940Y28298D01*
X264965Y28273D01*
X264978Y28267D01*
X265134Y28148D01*
X265290Y28042D01*
X265434Y27942D01*
X265577Y27848D01*
X265715Y27767D01*
X265846Y27698D01*
X265965Y27629D01*
X266077Y27573D01*
X266177Y27523D01*
X266271Y27486D01*
X266352Y27448D01*
X266421Y27423D01*
X266471Y27398D01*
X266515Y27386D01*
X266540Y27373D01*
X266546D01*
Y25705D01*
X266290Y25792D01*
X266046Y25892D01*
X265815Y25998D01*
X265596Y26111D01*
X265384Y26230D01*
X265190Y26342D01*
X265009Y26461D01*
X264840Y26573D01*
X264690Y26679D01*
X264559Y26773D01*
X264440Y26867D01*
X264347Y26942D01*
X264265Y27011D01*
X264209Y27054D01*
X264178Y27086D01*
X264165Y27098D01*
Y20162D01*
X262322D01*
Y29804D01*
X263815D01*
X263878Y29641D01*
D02*
G37*
G36*
X272194Y20162D02*
X270539D01*
X267771Y27117D01*
X269664D01*
X270989Y23568D01*
X271026Y23455D01*
X271063Y23355D01*
X271101Y23255D01*
X271126Y23162D01*
X271151Y23087D01*
X271170Y23031D01*
X271182Y22993D01*
X271189Y22987D01*
Y22980D01*
X271195Y22949D01*
X271207Y22912D01*
X271232Y22824D01*
X271264Y22724D01*
X271295Y22624D01*
X271326Y22531D01*
X271351Y22456D01*
X271363Y22424D01*
X271370Y22399D01*
X271376Y22387D01*
Y22381D01*
X271757Y23568D01*
X273069Y27117D01*
X275000D01*
X272194Y20162D01*
D02*
G37*
G36*
X259173D02*
X257336D01*
Y21999D01*
X259173D01*
Y20162D01*
D02*
G37*
G36*
X252981Y29791D02*
X253218Y29760D01*
X253443Y29716D01*
X253649Y29654D01*
X253843Y29579D01*
X254024Y29491D01*
X254187Y29404D01*
X254336Y29316D01*
X254461Y29223D01*
X254580Y29135D01*
X254674Y29048D01*
X254755Y28979D01*
X254818Y28916D01*
X254861Y28867D01*
X254893Y28835D01*
X254899Y28823D01*
X254986Y28704D01*
X255068Y28585D01*
X255143Y28448D01*
X255211Y28310D01*
X255336Y28017D01*
X255443Y27710D01*
X255536Y27386D01*
X255611Y27061D01*
X255674Y26742D01*
X255724Y26423D01*
X255761Y26123D01*
X255780Y25980D01*
X255792Y25836D01*
X255805Y25705D01*
X255811Y25586D01*
X255824Y25467D01*
X255830Y25361D01*
Y25261D01*
X255836Y25174D01*
Y25099D01*
X255842Y25036D01*
Y24986D01*
Y24949D01*
Y24924D01*
Y24918D01*
Y24661D01*
X255830Y24418D01*
X255824Y24186D01*
X255805Y23955D01*
X255786Y23743D01*
X255761Y23537D01*
X255736Y23337D01*
X255711Y23149D01*
X255680Y22968D01*
X255643Y22799D01*
X255611Y22637D01*
X255574Y22487D01*
X255536Y22343D01*
X255492Y22206D01*
X255455Y22081D01*
X255411Y21956D01*
X255374Y21850D01*
X255336Y21743D01*
X255293Y21650D01*
X255255Y21562D01*
X255218Y21481D01*
X255186Y21406D01*
X255149Y21343D01*
X255118Y21287D01*
X255093Y21237D01*
X255068Y21193D01*
X255043Y21156D01*
X255024Y21125D01*
X255005Y21106D01*
X254999Y21087D01*
X254986Y21081D01*
Y21075D01*
X254905Y20975D01*
X254818Y20887D01*
X254643Y20719D01*
X254455Y20575D01*
X254268Y20456D01*
X254080Y20350D01*
X253893Y20262D01*
X253706Y20194D01*
X253531Y20138D01*
X253368Y20087D01*
X253212Y20056D01*
X253074Y20031D01*
X252956Y20019D01*
X252862Y20006D01*
X252818D01*
X252787Y20000D01*
X252724D01*
X252468Y20013D01*
X252231Y20044D01*
X252006Y20094D01*
X251800Y20156D01*
X251600Y20225D01*
X251425Y20312D01*
X251262Y20400D01*
X251112Y20494D01*
X250981Y20581D01*
X250869Y20669D01*
X250775Y20756D01*
X250694Y20831D01*
X250631Y20893D01*
X250588Y20937D01*
X250556Y20968D01*
X250550Y20981D01*
X250462Y21100D01*
X250381Y21218D01*
X250306Y21350D01*
X250238Y21493D01*
X250113Y21781D01*
X250006Y22093D01*
X249913Y22418D01*
X249838Y22743D01*
X249775Y23068D01*
X249725Y23387D01*
X249688Y23686D01*
X249669Y23837D01*
X249657Y23974D01*
X249644Y24105D01*
X249638Y24230D01*
X249625Y24349D01*
X249619Y24455D01*
Y24549D01*
X249613Y24636D01*
Y24718D01*
X249606Y24780D01*
Y24830D01*
Y24867D01*
Y24892D01*
Y24899D01*
Y25149D01*
X249619Y25392D01*
X249632Y25624D01*
X249644Y25849D01*
X249669Y26067D01*
X249694Y26273D01*
X249719Y26473D01*
X249750Y26661D01*
X249788Y26842D01*
X249825Y27017D01*
X249863Y27179D01*
X249900Y27336D01*
X249944Y27486D01*
X249988Y27623D01*
X250031Y27754D01*
X250075Y27879D01*
X250119Y27992D01*
X250163Y28104D01*
X250206Y28198D01*
X250250Y28292D01*
X250288Y28379D01*
X250325Y28454D01*
X250363Y28523D01*
X250400Y28585D01*
X250431Y28635D01*
X250456Y28685D01*
X250481Y28723D01*
X250506Y28754D01*
X250519Y28779D01*
X250531Y28798D01*
X250544Y28804D01*
Y28810D01*
X250700Y28985D01*
X250862Y29141D01*
X251037Y29273D01*
X251219Y29385D01*
X251400Y29479D01*
X251581Y29560D01*
X251756Y29629D01*
X251931Y29679D01*
X252093Y29722D01*
X252243Y29754D01*
X252375Y29773D01*
X252493Y29791D01*
X252593Y29797D01*
X252631D01*
X252662Y29804D01*
X252724D01*
X252981Y29791D01*
D02*
G37*
%LPC*%
G36*
X232598Y43529D02*
X232567D01*
X232442Y43523D01*
X232323Y43504D01*
X232211Y43479D01*
X232105Y43448D01*
X232005Y43410D01*
X231911Y43360D01*
X231824Y43317D01*
X231749Y43267D01*
X231680Y43217D01*
X231617Y43173D01*
X231567Y43129D01*
X231524Y43085D01*
X231486Y43054D01*
X231461Y43029D01*
X231449Y43011D01*
X231442Y43004D01*
X231361Y42898D01*
X231292Y42786D01*
X231236Y42660D01*
X231180Y42529D01*
X231136Y42398D01*
X231105Y42267D01*
X231074Y42136D01*
X231049Y42004D01*
X231030Y41880D01*
X231017Y41767D01*
X231005Y41667D01*
X230999Y41573D01*
X230993Y41505D01*
Y41448D01*
Y41411D01*
Y41405D01*
Y41398D01*
X230999Y41211D01*
X231011Y41036D01*
X231036Y40867D01*
X231068Y40717D01*
X231099Y40574D01*
X231143Y40449D01*
X231180Y40330D01*
X231224Y40230D01*
X231268Y40136D01*
X231311Y40055D01*
X231355Y39992D01*
X231386Y39936D01*
X231417Y39892D01*
X231442Y39861D01*
X231455Y39843D01*
X231461Y39836D01*
X231549Y39743D01*
X231642Y39661D01*
X231736Y39593D01*
X231836Y39530D01*
X231930Y39480D01*
X232024Y39443D01*
X232117Y39405D01*
X232205Y39380D01*
X232286Y39355D01*
X232361Y39336D01*
X232430Y39330D01*
X232486Y39318D01*
X232536D01*
X232567Y39311D01*
X232598D01*
X232717Y39318D01*
X232823Y39336D01*
X232929Y39361D01*
X233029Y39393D01*
X233123Y39430D01*
X233211Y39474D01*
X233292Y39518D01*
X233367Y39568D01*
X233429Y39618D01*
X233492Y39661D01*
X233542Y39705D01*
X233586Y39743D01*
X233617Y39774D01*
X233642Y39805D01*
X233654Y39818D01*
X233661Y39824D01*
X233736Y39924D01*
X233798Y40043D01*
X233854Y40161D01*
X233904Y40292D01*
X233948Y40430D01*
X233979Y40561D01*
X234029Y40830D01*
X234048Y40955D01*
X234060Y41067D01*
X234073Y41173D01*
X234079Y41267D01*
X234086Y41342D01*
Y41398D01*
Y41436D01*
Y41448D01*
X234079Y41642D01*
X234067Y41817D01*
X234048Y41979D01*
X234017Y42136D01*
X233986Y42273D01*
X233948Y42404D01*
X233911Y42517D01*
X233873Y42623D01*
X233836Y42717D01*
X233792Y42792D01*
X233761Y42860D01*
X233729Y42917D01*
X233698Y42954D01*
X233679Y42986D01*
X233667Y43004D01*
X233661Y43011D01*
X233579Y43104D01*
X233492Y43179D01*
X233398Y43254D01*
X233311Y43310D01*
X233217Y43360D01*
X233123Y43404D01*
X233036Y43435D01*
X232955Y43467D01*
X232873Y43485D01*
X232798Y43504D01*
X232736Y43510D01*
X232680Y43523D01*
X232630D01*
X232598Y43529D01*
D02*
G37*
G36*
X210110Y41161D02*
X210104D01*
Y40799D01*
Y40680D01*
Y40567D01*
X210110Y40467D01*
X210117Y40380D01*
X210123Y40299D01*
Y40224D01*
X210129Y40155D01*
X210135Y40099D01*
X210142Y40049D01*
X210148Y40011D01*
X210154Y39974D01*
X210160Y39949D01*
X210167Y39924D01*
Y39911D01*
X210173Y39899D01*
X210223Y39767D01*
X210285Y39649D01*
X210360Y39549D01*
X210435Y39455D01*
X210504Y39386D01*
X210560Y39330D01*
X210604Y39299D01*
X210610Y39286D01*
X210616D01*
X210704Y39230D01*
X210785Y39180D01*
X210873Y39136D01*
X210954Y39099D01*
X211116Y39043D01*
X211260Y39005D01*
X211323Y38986D01*
X211385Y38980D01*
X211435Y38974D01*
X211479Y38968D01*
X211516Y38962D01*
X211566D01*
X211647Y38968D01*
X211723Y38974D01*
X211866Y39005D01*
X211991Y39049D01*
X212097Y39105D01*
X212185Y39155D01*
X212247Y39199D01*
X212266Y39218D01*
X212285Y39230D01*
X212291Y39243D01*
X212297D01*
X212347Y39299D01*
X212391Y39355D01*
X212466Y39468D01*
X212516Y39580D01*
X212547Y39680D01*
X212572Y39774D01*
X212579Y39849D01*
X212585Y39874D01*
Y39892D01*
Y39905D01*
Y39911D01*
X212579Y39986D01*
X212572Y40055D01*
X212554Y40117D01*
X212528Y40180D01*
X212472Y40292D01*
X212404Y40386D01*
X212341Y40461D01*
X212285Y40517D01*
X212260Y40536D01*
X212241Y40549D01*
X212235Y40561D01*
X212229D01*
X212179Y40592D01*
X212116Y40617D01*
X212047Y40649D01*
X211972Y40680D01*
X211804Y40730D01*
X211635Y40780D01*
X211554Y40799D01*
X211479Y40817D01*
X211410Y40836D01*
X211348Y40855D01*
X211298Y40861D01*
X211254Y40873D01*
X211229Y40880D01*
X211223D01*
X211085Y40911D01*
X210954Y40942D01*
X210835Y40967D01*
X210723Y40992D01*
X210623Y41017D01*
X210529Y41042D01*
X210448Y41067D01*
X210373Y41086D01*
X210310Y41098D01*
X210254Y41117D01*
X210210Y41130D01*
X210173Y41142D01*
X210142Y41148D01*
X210123Y41155D01*
X210110Y41161D01*
D02*
G37*
G36*
X197945Y43485D02*
X197913D01*
X197795Y43479D01*
X197682Y43460D01*
X197576Y43435D01*
X197470Y43404D01*
X197376Y43360D01*
X197289Y43317D01*
X197207Y43267D01*
X197132Y43223D01*
X197064Y43173D01*
X197008Y43123D01*
X196951Y43079D01*
X196914Y43035D01*
X196876Y43004D01*
X196851Y42979D01*
X196839Y42960D01*
X196833Y42954D01*
X196751Y42848D01*
X196689Y42729D01*
X196626Y42604D01*
X196576Y42479D01*
X196533Y42342D01*
X196495Y42204D01*
X196470Y42073D01*
X196445Y41942D01*
X196426Y41817D01*
X196414Y41705D01*
X196401Y41598D01*
X196395Y41511D01*
X196389Y41436D01*
Y41380D01*
Y41342D01*
Y41336D01*
Y41330D01*
X196395Y41117D01*
X196408Y40917D01*
X196426Y40736D01*
X196458Y40567D01*
X196489Y40417D01*
X196520Y40280D01*
X196564Y40155D01*
X196601Y40042D01*
X196639Y39949D01*
X196676Y39861D01*
X196714Y39792D01*
X196745Y39736D01*
X196776Y39692D01*
X196795Y39661D01*
X196807Y39643D01*
X196814Y39636D01*
X196895Y39549D01*
X196982Y39468D01*
X197070Y39399D01*
X197157Y39343D01*
X197251Y39293D01*
X197339Y39249D01*
X197426Y39218D01*
X197507Y39186D01*
X197582Y39168D01*
X197657Y39149D01*
X197720Y39143D01*
X197776Y39130D01*
X197820D01*
X197851Y39124D01*
X197882D01*
X198007Y39130D01*
X198126Y39149D01*
X198232Y39174D01*
X198345Y39211D01*
X198445Y39255D01*
X198538Y39305D01*
X198620Y39355D01*
X198701Y39405D01*
X198776Y39455D01*
X198838Y39511D01*
X198888Y39555D01*
X198938Y39599D01*
X198969Y39636D01*
X199001Y39661D01*
X199013Y39680D01*
X199020Y39686D01*
X199101Y39799D01*
X199169Y39924D01*
X199232Y40055D01*
X199288Y40192D01*
X199332Y40336D01*
X199369Y40480D01*
X199401Y40623D01*
X199426Y40761D01*
X199444Y40892D01*
X199457Y41017D01*
X199469Y41130D01*
X199476Y41223D01*
Y41305D01*
X199482Y41367D01*
Y41405D01*
Y41411D01*
Y41417D01*
X199476Y41604D01*
X199463Y41779D01*
X199438Y41942D01*
X199413Y42092D01*
X199382Y42229D01*
X199344Y42354D01*
X199301Y42473D01*
X199257Y42573D01*
X199219Y42667D01*
X199176Y42742D01*
X199138Y42811D01*
X199107Y42867D01*
X199082Y42904D01*
X199057Y42935D01*
X199044Y42954D01*
X199038Y42960D01*
X198951Y43054D01*
X198863Y43135D01*
X198769Y43204D01*
X198670Y43267D01*
X198576Y43317D01*
X198482Y43360D01*
X198395Y43392D01*
X198307Y43423D01*
X198226Y43442D01*
X198151Y43460D01*
X198082Y43467D01*
X198026Y43479D01*
X197976D01*
X197945Y43485D01*
D02*
G37*
G36*
X252781Y28279D02*
X252724D01*
X252606Y28273D01*
X252493Y28248D01*
X252393Y28210D01*
X252306Y28173D01*
X252237Y28135D01*
X252181Y28098D01*
X252150Y28073D01*
X252137Y28067D01*
X252087Y28023D01*
X252043Y27967D01*
X252000Y27910D01*
X251956Y27842D01*
X251887Y27704D01*
X251825Y27561D01*
X251775Y27429D01*
X251756Y27373D01*
X251737Y27323D01*
X251725Y27279D01*
X251712Y27242D01*
X251706Y27223D01*
Y27217D01*
X251675Y27086D01*
X251650Y26936D01*
X251625Y26767D01*
X251606Y26586D01*
X251587Y26398D01*
X251575Y26205D01*
X251562Y26011D01*
X251550Y25824D01*
X251544Y25636D01*
X251537Y25467D01*
Y25311D01*
X251531Y25174D01*
Y25111D01*
Y25061D01*
Y25011D01*
Y24974D01*
Y24943D01*
Y24918D01*
Y24905D01*
Y24899D01*
Y24593D01*
X251537Y24311D01*
X251550Y24049D01*
X251562Y23812D01*
X251575Y23593D01*
X251593Y23393D01*
X251612Y23218D01*
X251625Y23062D01*
X251644Y22931D01*
X251662Y22812D01*
X251681Y22718D01*
X251693Y22637D01*
X251706Y22574D01*
X251719Y22531D01*
X251725Y22506D01*
Y22499D01*
X251750Y22399D01*
X251781Y22312D01*
X251818Y22224D01*
X251850Y22149D01*
X251881Y22081D01*
X251918Y22018D01*
X251950Y21962D01*
X251981Y21912D01*
X252012Y21868D01*
X252037Y21831D01*
X252087Y21781D01*
X252118Y21749D01*
X252131Y21737D01*
X252231Y21668D01*
X252337Y21612D01*
X252431Y21575D01*
X252525Y21550D01*
X252606Y21537D01*
X252668Y21531D01*
X252693Y21525D01*
X252724D01*
X252849Y21531D01*
X252962Y21556D01*
X253062Y21587D01*
X253149Y21631D01*
X253218Y21668D01*
X253274Y21700D01*
X253306Y21725D01*
X253318Y21731D01*
X253368Y21774D01*
X253412Y21831D01*
X253456Y21887D01*
X253493Y21950D01*
X253568Y22093D01*
X253631Y22231D01*
X253680Y22362D01*
X253699Y22424D01*
X253718Y22474D01*
X253731Y22512D01*
X253743Y22549D01*
X253749Y22568D01*
Y22574D01*
X253780Y22706D01*
X253805Y22856D01*
X253824Y23024D01*
X253849Y23205D01*
X253862Y23393D01*
X253874Y23587D01*
X253887Y23780D01*
X253899Y23974D01*
X253905Y24155D01*
X253912Y24330D01*
Y24486D01*
X253918Y24624D01*
Y24686D01*
Y24736D01*
Y24786D01*
Y24824D01*
Y24855D01*
Y24880D01*
Y24892D01*
Y24899D01*
Y25205D01*
X253912Y25486D01*
X253899Y25749D01*
X253887Y25986D01*
X253874Y26205D01*
X253855Y26405D01*
X253843Y26580D01*
X253824Y26736D01*
X253805Y26873D01*
X253787Y26986D01*
X253774Y27086D01*
X253762Y27167D01*
X253749Y27229D01*
X253737Y27273D01*
X253731Y27298D01*
Y27304D01*
X253699Y27404D01*
X253668Y27498D01*
X253637Y27579D01*
X253605Y27654D01*
X253568Y27723D01*
X253537Y27785D01*
X253505Y27842D01*
X253468Y27892D01*
X253443Y27936D01*
X253412Y27973D01*
X253368Y28023D01*
X253337Y28054D01*
X253324Y28067D01*
X253224Y28135D01*
X253118Y28192D01*
X253018Y28229D01*
X252924Y28254D01*
X252843Y28267D01*
X252781Y28279D01*
D02*
G37*
%LPD*%
M02*
